<svg width="540" height="540" viewBox="0 0 540 540" fill="none" xmlns="http://www.w3.org/2000/svg">
    <path d="M235.034 280.303H268.866L250.977 251.522L218.144 303.559H203.202L243.137 241.051C244.873 238.526 247.767 237 250.977 237C254.081 237 256.975 238.473 258.659 240.946L298.752 303.559H283.809L276.759 291.931H242.506L235.034 280.303ZM390.251 291.931V237.631H377.571V297.245C377.571 298.876 378.202 300.455 379.412 301.665C380.622 302.875 382.253 303.559 384.042 303.559H441.867L449.339 291.931H390.251ZM180.472 282.197C192.784 282.197 202.781 272.253 202.781 259.941C202.781 247.628 192.784 237.631 180.472 237.631H124.998V303.559H137.674V249.26H179.63C185.523 249.26 190.258 254.048 190.258 259.941C190.258 265.833 185.523 270.622 179.63 270.622L143.883 270.569L181.734 303.559H200.15L174.684 282.197H180.472ZM46.9694 303.559C28.7694 303.559 14 288.827 14 270.622C14 252.416 28.7694 237.631 46.9694 237.631H85.2893C103.494 237.631 118.253 252.416 118.253 270.622C118.253 288.827 103.494 303.559 85.2893 303.559H46.9694ZM84.4369 291.931C96.2283 291.931 105.778 282.407 105.778 270.622C105.778 258.836 96.2283 249.26 84.4369 249.26H47.8164C36.0304 249.26 26.4751 258.836 26.4751 270.622C26.4751 282.407 36.0304 291.931 47.8164 291.931H84.4369ZM325.218 303.559C307.013 303.559 292.228 288.827 292.228 270.622C292.228 252.416 307.013 237.631 325.218 237.631H370.731L363.312 249.26H326.06C314.274 249.26 304.698 258.836 304.698 270.622C304.698 282.407 314.274 291.931 326.06 291.931H371.783L364.311 303.559H325.218ZM480.277 291.931C470.543 291.931 462.282 285.407 459.757 276.409H513.951L521.422 264.781H459.757C462.282 255.836 470.543 249.26 480.277 249.26H517.476L525 237.631H479.435C461.23 237.631 446.445 252.416 446.445 270.622C446.445 288.827 461.23 303.559 479.435 303.559H518.529L526 291.931H480.277Z" fill="#EA1B22"/>
    </svg>
    