
<svg width="540" height="540" viewBox="0 0 540 540" fill="none" xmlns="http://www.w3.org/2000/svg">
    <path d="M433 278.165C433 250.883 416.052 226.909 390.562 217.677C391.665 211.89 392.216 206.103 392.216 200.178C392.216 149.336 350.88 108 300.176 108C270.414 108 242.856 122.192 225.495 146.167C216.952 139.553 206.481 135.97 195.596 135.97C168.59 135.97 146.682 157.878 146.682 184.884C146.682 190.809 147.784 196.596 149.713 201.969C124.361 211.064 107 235.451 107 262.595C107 290.014 124.085 313.989 149.576 323.221C148.473 328.87 147.922 334.795 147.922 340.719C147.922 391.425 189.121 432.622 239.825 432.622C269.587 432.622 297.144 418.293 314.367 394.318C322.91 401.069 333.381 404.79 344.267 404.79C371.272 404.79 393.18 382.882 393.18 355.876C393.18 349.951 392.078 344.164 390.149 338.79C415.501 329.697 433 305.309 433 278.165Z" fill="white"/>
    <path d="M235.137 247.852L306.51 280.37L378.434 217.264C379.536 212.028 379.95 206.93 379.95 201.418C379.95 157.051 343.85 120.952 299.483 120.952C272.891 120.952 248.227 134.041 233.208 155.949L221.221 218.09L235.137 247.852Z" fill="#FED10A"/>
    <path d="M161.289 323.359C160.187 328.595 159.773 333.968 159.773 339.479C159.773 383.984 196.011 420.084 240.515 420.084C267.246 420.084 292.185 406.856 307.204 384.811L319.053 322.945L303.208 292.632L231.559 259.977L161.289 323.359Z" fill="#24BBB1"/>
    <path d="M160.871 199.903L209.785 211.476L220.532 155.949C213.918 150.851 205.652 148.095 197.109 148.095C175.89 148.095 158.529 165.319 158.529 186.675C158.529 191.222 159.355 195.769 160.871 199.903Z" fill="#EF5098"/>
    <path d="M156.606 211.615C134.836 218.779 119.542 239.723 119.542 262.733C119.542 285.192 133.458 305.171 154.263 313.162L222.881 251.159L210.342 224.291L156.606 211.615Z" fill="#1BA9F5"/>
    <path d="M319.604 384.81C326.356 389.908 334.486 392.802 342.89 392.802C364.11 392.802 381.47 375.578 381.47 354.222C381.47 349.537 380.644 344.99 379.128 340.857L330.352 329.42L319.604 384.81Z" fill="#93C83E"/>
    <path d="M329.522 316.608L383.258 329.146C405.166 321.981 420.322 301.038 420.322 277.89C420.322 255.569 406.406 235.452 385.6 227.598L315.33 289.188L329.522 316.608Z" fill="#0077CC"/>
    </svg>
    