
<svg width="821" height="821" viewBox="0 0 821 821" fill="none" xmlns="http://www.w3.org/2000/svg">
    <g clip-path="url(#clip0_594_1755)">
    <g clip-path="url(#clip1_594_1755)">
    <g clip-path="url(#clip2_594_1755)">
    <path d="M912 -84H-88V916H912V-84Z" fill="white"/>
    <path d="M229.074 13.5605H204.684V37.9508H229.074V13.5605Z" fill="black"/>
    <path d="M253.463 13.5605H229.072V37.9508H253.463V13.5605Z" fill="black"/>
    <path d="M277.853 13.5605H253.463V37.9508H277.853V13.5605Z" fill="black"/>
    <path d="M302.244 13.5605H277.854V37.9508H302.244V13.5605Z" fill="black"/>
    <path d="M326.634 13.5605H302.244V37.9508H326.634V13.5605Z" fill="black"/>
    <path d="M351.025 13.5605H326.635V37.9508H351.025V13.5605Z" fill="black"/>
    <path d="M375.414 13.5605H351.023V37.9508H375.414V13.5605Z" fill="black"/>
    <path d="M399.804 13.5605H375.414V37.9508H399.804V13.5605Z" fill="black"/>
    <path d="M424.195 13.5605H399.805V37.9508H424.195V13.5605Z" fill="black"/>
    <path d="M472.976 13.5605H448.586V37.9508H472.976V13.5605Z" fill="black"/>
    <path d="M497.367 13.5605H472.977V37.9508H497.367V13.5605Z" fill="black"/>
    <path d="M521.755 13.5605H497.365V37.9508H521.755V13.5605Z" fill="black"/>
    <path d="M570.537 13.5605H546.146V37.9508H570.537V13.5605Z" fill="black"/>
    <path d="M619.318 13.5605H594.928V37.9508H619.318V13.5605Z" fill="black"/>
    <path d="M253.463 37.9512H229.072V62.3414H253.463V37.9512Z" fill="black"/>
    <path d="M277.853 37.9512H253.463V62.3414H277.853V37.9512Z" fill="black"/>
    <path d="M326.634 37.9512H302.244V62.3414H326.634V37.9512Z" fill="black"/>
    <path d="M375.414 37.9512H351.023V62.3414H375.414V37.9512Z" fill="black"/>
    <path d="M424.195 37.9512H399.805V62.3414H424.195V37.9512Z" fill="black"/>
    <path d="M448.586 37.9512H424.195V62.3414H448.586V37.9512Z" fill="black"/>
    <path d="M546.146 37.9512H521.756V62.3414H546.146V37.9512Z" fill="black"/>
    <path d="M594.927 37.9512H570.537V62.3414H594.927V37.9512Z" fill="black"/>
    <path d="M619.318 37.9512H594.928V62.3414H619.318V37.9512Z" fill="black"/>
    <path d="M277.853 62.3418H253.463V86.732H277.853V62.3418Z" fill="black"/>
    <path d="M375.414 62.3418H351.023V86.732H375.414V62.3418Z" fill="black"/>
    <path d="M448.586 62.3418H424.195V86.732H448.586V62.3418Z" fill="black"/>
    <path d="M472.976 62.3418H448.586V86.732H472.976V62.3418Z" fill="black"/>
    <path d="M497.367 62.3418H472.977V86.732H497.367V62.3418Z" fill="black"/>
    <path d="M521.755 62.3418H497.365V86.732H521.755V62.3418Z" fill="black"/>
    <path d="M546.146 62.3418H521.756V86.732H546.146V62.3418Z" fill="black"/>
    <path d="M619.318 62.3418H594.928V86.732H619.318V62.3418Z" fill="black"/>
    <path d="M229.074 86.7314H204.684V111.122H229.074V86.7314Z" fill="black"/>
    <path d="M326.634 86.7314H302.244V111.122H326.634V86.7314Z" fill="black"/>
    <path d="M375.414 86.7314H351.023V111.122H375.414V86.7314Z" fill="black"/>
    <path d="M399.804 86.7314H375.414V111.122H399.804V86.7314Z" fill="black"/>
    <path d="M448.586 86.7314H424.195V111.122H448.586V86.7314Z" fill="black"/>
    <path d="M472.976 86.7314H448.586V111.122H472.976V86.7314Z" fill="black"/>
    <path d="M521.755 86.7314H497.365V111.122H521.755V86.7314Z" fill="black"/>
    <path d="M570.537 86.7314H546.146V111.122H570.537V86.7314Z" fill="black"/>
    <path d="M594.927 86.7314H570.537V111.122H594.927V86.7314Z" fill="black"/>
    <path d="M229.074 111.122H204.684V135.512H229.074V111.122Z" fill="black"/>
    <path d="M253.463 111.122H229.072V135.512H253.463V111.122Z" fill="black"/>
    <path d="M351.025 111.122H326.635V135.512H351.025V111.122Z" fill="black"/>
    <path d="M375.414 111.122H351.023V135.512H375.414V111.122Z" fill="black"/>
    <path d="M399.804 111.122H375.414V135.512H399.804V111.122Z" fill="black"/>
    <path d="M472.976 111.122H448.586V135.512H472.976V111.122Z" fill="black"/>
    <path d="M497.367 111.122H472.977V135.512H497.367V111.122Z" fill="black"/>
    <path d="M619.318 111.122H594.928V135.512H619.318V111.122Z" fill="black"/>
    <path d="M229.074 135.512H204.684V159.902H229.074V135.512Z" fill="black"/>
    <path d="M253.463 135.512H229.072V159.902H253.463V135.512Z" fill="black"/>
    <path d="M277.853 135.512H253.463V159.902H277.853V135.512Z" fill="black"/>
    <path d="M302.244 135.512H277.854V159.902H302.244V135.512Z" fill="black"/>
    <path d="M424.195 135.512H399.805V159.902H424.195V135.512Z" fill="black"/>
    <path d="M448.586 135.512H424.195V159.902H448.586V135.512Z" fill="black"/>
    <path d="M521.755 135.512H497.365V159.902H521.755V135.512Z" fill="black"/>
    <path d="M546.146 135.512H521.756V159.902H546.146V135.512Z" fill="black"/>
    <path d="M570.537 135.512H546.146V159.902H570.537V135.512Z" fill="black"/>
    <path d="M229.074 159.902H204.684V184.293H229.074V159.902Z" fill="black"/>
    <path d="M277.853 159.902H253.463V184.293H277.853V159.902Z" fill="black"/>
    <path d="M326.634 159.902H302.244V184.293H326.634V159.902Z" fill="black"/>
    <path d="M375.414 159.902H351.023V184.293H375.414V159.902Z" fill="black"/>
    <path d="M424.195 159.902H399.805V184.293H424.195V159.902Z" fill="black"/>
    <path d="M472.976 159.902H448.586V184.293H472.976V159.902Z" fill="black"/>
    <path d="M521.755 159.902H497.365V184.293H521.755V159.902Z" fill="black"/>
    <path d="M570.537 159.902H546.146V184.293H570.537V159.902Z" fill="black"/>
    <path d="M619.318 159.902H594.928V184.293H619.318V159.902Z" fill="black"/>
    <path d="M229.074 184.293H204.684V208.683H229.074V184.293Z" fill="black"/>
    <path d="M302.244 184.293H277.854V208.683H302.244V184.293Z" fill="black"/>
    <path d="M326.634 184.293H302.244V208.683H326.634V184.293Z" fill="black"/>
    <path d="M424.195 184.293H399.805V208.683H424.195V184.293Z" fill="black"/>
    <path d="M472.976 184.293H448.586V208.683H472.976V184.293Z" fill="black"/>
    <path d="M497.367 184.293H472.977V208.683H497.367V184.293Z" fill="black"/>
    <path d="M570.537 184.293H546.146V208.683H570.537V184.293Z" fill="black"/>
    <path d="M33.9508 208.683H9.56055V233.073H33.9508V208.683Z" fill="black"/>
    <path d="M131.511 208.683H107.121V233.073H131.511V208.683Z" fill="black"/>
    <path d="M180.293 208.683H155.902V233.073H180.293V208.683Z" fill="black"/>
    <path d="M204.683 208.683H180.293V233.073H204.683V208.683Z" fill="black"/>
    <path d="M229.074 208.683H204.684V233.073H229.074V208.683Z" fill="black"/>
    <path d="M253.463 208.683H229.072V233.073H253.463V208.683Z" fill="black"/>
    <path d="M351.025 208.683H326.635V233.073H351.025V208.683Z" fill="black"/>
    <path d="M424.195 208.683H399.805V233.073H424.195V208.683Z" fill="black"/>
    <path d="M472.976 208.683H448.586V233.073H472.976V208.683Z" fill="black"/>
    <path d="M497.367 208.683H472.977V233.073H497.367V208.683Z" fill="black"/>
    <path d="M570.537 208.683H546.146V233.073H570.537V208.683Z" fill="black"/>
    <path d="M619.318 208.683H594.928V233.073H619.318V208.683Z" fill="black"/>
    <path d="M643.707 208.683H619.316V233.073H643.707V208.683Z" fill="black"/>
    <path d="M668.097 208.683H643.707V233.073H668.097V208.683Z" fill="black"/>
    <path d="M692.488 208.683H668.098V233.073H692.488V208.683Z" fill="black"/>
    <path d="M716.879 208.683H692.488V233.073H716.879V208.683Z" fill="black"/>
    <path d="M741.269 208.683H716.879V233.073H741.269V208.683Z" fill="black"/>
    <path d="M814.439 208.683H790.049V233.073H814.439V208.683Z" fill="black"/>
    <path d="M82.732 233.073H58.3418V257.463H82.732V233.073Z" fill="black"/>
    <path d="M107.123 233.073H82.7324V257.463H107.123V233.073Z" fill="black"/>
    <path d="M204.683 233.073H180.293V257.463H204.683V233.073Z" fill="black"/>
    <path d="M253.463 233.073H229.072V257.463H253.463V233.073Z" fill="black"/>
    <path d="M302.244 233.073H277.854V257.463H302.244V233.073Z" fill="black"/>
    <path d="M351.025 233.073H326.635V257.463H351.025V233.073Z" fill="black"/>
    <path d="M424.195 233.073H399.805V257.463H424.195V233.073Z" fill="black"/>
    <path d="M472.976 233.073H448.586V257.463H472.976V233.073Z" fill="black"/>
    <path d="M594.927 233.073H570.537V257.463H594.927V233.073Z" fill="black"/>
    <path d="M619.318 233.073H594.928V257.463H619.318V233.073Z" fill="black"/>
    <path d="M643.707 233.073H619.316V257.463H643.707V233.073Z" fill="black"/>
    <path d="M716.879 233.073H692.488V257.463H716.879V233.073Z" fill="black"/>
    <path d="M741.269 233.073H716.879V257.463H741.269V233.073Z" fill="black"/>
    <path d="M765.658 233.073H741.268V257.463H765.658V233.073Z" fill="black"/>
    <path d="M131.511 257.464H107.121V281.854H131.511V257.464Z" fill="black"/>
    <path d="M180.293 257.464H155.902V281.854H180.293V257.464Z" fill="black"/>
    <path d="M204.683 257.464H180.293V281.854H204.683V257.464Z" fill="black"/>
    <path d="M229.074 257.464H204.684V281.854H229.074V257.464Z" fill="black"/>
    <path d="M253.463 257.464H229.072V281.854H253.463V257.464Z" fill="black"/>
    <path d="M277.853 257.464H253.463V281.854H277.853V257.464Z" fill="black"/>
    <path d="M351.025 257.464H326.635V281.854H351.025V257.464Z" fill="black"/>
    <path d="M399.804 257.464H375.414V281.854H399.804V257.464Z" fill="black"/>
    <path d="M424.195 257.464H399.805V281.854H424.195V257.464Z" fill="black"/>
    <path d="M472.976 257.464H448.586V281.854H472.976V257.464Z" fill="black"/>
    <path d="M497.367 257.464H472.977V281.854H497.367V257.464Z" fill="black"/>
    <path d="M570.537 257.464H546.146V281.854H570.537V257.464Z" fill="black"/>
    <path d="M594.927 257.464H570.537V281.854H594.927V257.464Z" fill="black"/>
    <path d="M643.707 257.464H619.316V281.854H643.707V257.464Z" fill="black"/>
    <path d="M741.269 257.464H716.879V281.854H741.269V257.464Z" fill="black"/>
    <path d="M765.658 257.464H741.268V281.854H765.658V257.464Z" fill="black"/>
    <path d="M58.3414 281.854H33.9512V306.244H58.3414V281.854Z" fill="black"/>
    <path d="M82.732 281.854H58.3418V306.244H82.732V281.854Z" fill="black"/>
    <path d="M131.511 281.854H107.121V306.244H131.511V281.854Z" fill="black"/>
    <path d="M155.902 281.854H131.512V306.244H155.902V281.854Z" fill="black"/>
    <path d="M204.683 281.854H180.293V306.244H204.683V281.854Z" fill="black"/>
    <path d="M229.074 281.854H204.684V306.244H229.074V281.854Z" fill="black"/>
    <path d="M253.463 281.854H229.072V306.244H253.463V281.854Z" fill="black"/>
    <path d="M302.244 281.854H277.854V306.244H302.244V281.854Z" fill="black"/>
    <path d="M375.414 281.854H351.023V306.244H375.414V281.854Z" fill="black"/>
    <path d="M448.586 281.854H424.195V306.244H448.586V281.854Z" fill="black"/>
    <path d="M497.367 281.854H472.977V306.244H497.367V281.854Z" fill="black"/>
    <path d="M521.755 281.854H497.365V306.244H521.755V281.854Z" fill="black"/>
    <path d="M546.146 281.854H521.756V306.244H546.146V281.854Z" fill="black"/>
    <path d="M619.318 281.854H594.928V306.244H619.318V281.854Z" fill="black"/>
    <path d="M643.707 281.854H619.316V306.244H643.707V281.854Z" fill="black"/>
    <path d="M668.097 281.854H643.707V306.244H668.097V281.854Z" fill="black"/>
    <path d="M692.488 281.854H668.098V306.244H692.488V281.854Z" fill="black"/>
    <path d="M716.879 281.854H692.488V306.244H716.879V281.854Z" fill="black"/>
    <path d="M741.269 281.854H716.879V306.244H741.269V281.854Z" fill="black"/>
    <path d="M765.658 281.854H741.268V306.244H765.658V281.854Z" fill="black"/>
    <path d="M790.048 281.854H765.658V306.244H790.048V281.854Z" fill="black"/>
    <path d="M814.439 281.854H790.049V306.244H814.439V281.854Z" fill="black"/>
    <path d="M58.3414 306.244H33.9512V330.634H58.3414V306.244Z" fill="black"/>
    <path d="M82.732 306.244H58.3418V330.634H82.732V306.244Z" fill="black"/>
    <path d="M180.293 306.244H155.902V330.634H180.293V306.244Z" fill="black"/>
    <path d="M204.683 306.244H180.293V330.634H204.683V306.244Z" fill="black"/>
    <path d="M229.074 306.244H204.684V330.634H229.074V306.244Z" fill="black"/>
    <path d="M375.414 306.244H351.023V330.634H375.414V306.244Z" fill="black"/>
    <path d="M472.976 306.244H448.586V330.634H472.976V306.244Z" fill="black"/>
    <path d="M497.367 306.244H472.977V330.634H497.367V306.244Z" fill="black"/>
    <path d="M570.537 306.244H546.146V330.634H570.537V306.244Z" fill="black"/>
    <path d="M619.318 306.244H594.928V330.634H619.318V306.244Z" fill="black"/>
    <path d="M643.707 306.244H619.316V330.634H643.707V306.244Z" fill="black"/>
    <path d="M692.488 306.244H668.098V330.634H692.488V306.244Z" fill="black"/>
    <path d="M716.879 306.244H692.488V330.634H716.879V306.244Z" fill="black"/>
    <path d="M765.658 306.244H741.268V330.634H765.658V306.244Z" fill="black"/>
    <path d="M814.439 306.244H790.049V330.634H814.439V306.244Z" fill="black"/>
    <path d="M58.3414 330.634H33.9512V355.024H58.3414V330.634Z" fill="black"/>
    <path d="M82.732 330.634H58.3418V355.024H82.732V330.634Z" fill="black"/>
    <path d="M107.123 330.634H82.7324V355.024H107.123V330.634Z" fill="black"/>
    <path d="M131.511 330.634H107.121V355.024H131.511V330.634Z" fill="black"/>
    <path d="M253.463 330.634H229.072V355.024H253.463V330.634Z" fill="black"/>
    <path d="M375.414 330.634H351.023V355.024H375.414V330.634Z" fill="black"/>
    <path d="M399.804 330.634H375.414V355.024H399.804V330.634Z" fill="black"/>
    <path d="M497.367 330.634H472.977V355.024H497.367V330.634Z" fill="black"/>
    <path d="M570.537 330.634H546.146V355.024H570.537V330.634Z" fill="black"/>
    <path d="M594.927 330.634H570.537V355.024H594.927V330.634Z" fill="black"/>
    <path d="M619.318 330.634H594.928V355.024H619.318V330.634Z" fill="black"/>
    <path d="M643.707 330.634H619.316V355.024H643.707V330.634Z" fill="black"/>
    <path d="M668.097 330.634H643.707V355.024H668.097V330.634Z" fill="black"/>
    <path d="M692.488 330.634H668.098V355.024H692.488V330.634Z" fill="black"/>
    <path d="M716.879 330.634H692.488V355.024H716.879V330.634Z" fill="black"/>
    <path d="M765.658 330.634H741.268V355.024H765.658V330.634Z" fill="black"/>
    <path d="M814.439 330.634H790.049V355.024H814.439V330.634Z" fill="black"/>
    <path d="M33.9508 355.024H9.56055V379.415H33.9508V355.024Z" fill="black"/>
    <path d="M58.3414 355.024H33.9512V379.415H58.3414V355.024Z" fill="black"/>
    <path d="M155.902 355.024H131.512V379.415H155.902V355.024Z" fill="black"/>
    <path d="M180.293 355.024H155.902V379.415H180.293V355.024Z" fill="black"/>
    <path d="M277.853 355.024H253.463V379.415H277.853V355.024Z" fill="black"/>
    <path d="M302.244 355.024H277.854V379.415H302.244V355.024Z" fill="black"/>
    <path d="M326.634 355.024H302.244V379.415H326.634V355.024Z" fill="black"/>
    <path d="M399.804 355.024H375.414V379.415H399.804V355.024Z" fill="black"/>
    <path d="M594.927 355.024H570.537V379.415H594.927V355.024Z" fill="black"/>
    <path d="M619.318 355.024H594.928V379.415H619.318V355.024Z" fill="black"/>
    <path d="M692.488 355.024H668.098V379.415H692.488V355.024Z" fill="black"/>
    <path d="M741.269 355.024H716.879V379.415H741.269V355.024Z" fill="black"/>
    <path d="M765.658 355.024H741.268V379.415H765.658V355.024Z" fill="black"/>
    <path d="M790.048 355.024H765.658V379.415H790.048V355.024Z" fill="black"/>
    <path d="M814.439 355.024H790.049V379.415H814.439V355.024Z" fill="black"/>
    <path d="M33.9508 379.415H9.56055V403.805H33.9508V379.415Z" fill="black"/>
    <path d="M107.123 379.415H82.7324V403.805H107.123V379.415Z" fill="black"/>
    <path d="M155.902 379.415H131.512V403.805H155.902V379.415Z" fill="black"/>
    <path d="M229.074 379.415H204.684V403.805H229.074V379.415Z" fill="black"/>
    <path d="M253.463 379.415H229.072V403.805H253.463V379.415Z" fill="black"/>
    <path d="M326.634 379.415H302.244V403.805H326.634V379.415Z" fill="black"/>
    <path d="M351.025 379.415H326.635V403.805H351.025V379.415Z" fill="black"/>
    <path d="M375.414 379.415H351.023V403.805H375.414V379.415Z" fill="black"/>
    <path d="M424.195 379.415H399.805V403.805H424.195V379.415Z" fill="black"/>
    <path d="M497.367 379.415H472.977V403.805H497.367V379.415Z" fill="black"/>
    <path d="M521.755 379.415H497.365V403.805H521.755V379.415Z" fill="black"/>
    <path d="M546.146 379.415H521.756V403.805H546.146V379.415Z" fill="black"/>
    <path d="M570.537 379.415H546.146V403.805H570.537V379.415Z" fill="black"/>
    <path d="M668.097 379.415H643.707V403.805H668.097V379.415Z" fill="black"/>
    <path d="M716.879 379.415H692.488V403.805H716.879V379.415Z" fill="black"/>
    <path d="M765.658 379.415H741.268V403.805H765.658V379.415Z" fill="black"/>
    <path d="M790.048 379.415H765.658V403.805H790.048V379.415Z" fill="black"/>
    <path d="M814.439 379.415H790.049V403.805H814.439V379.415Z" fill="black"/>
    <path d="M33.9508 403.805H9.56055V428.195H33.9508V403.805Z" fill="black"/>
    <path d="M107.123 403.805H82.7324V428.195H107.123V403.805Z" fill="black"/>
    <path d="M131.511 403.805H107.121V428.195H131.511V403.805Z" fill="black"/>
    <path d="M180.293 403.805H155.902V428.195H180.293V403.805Z" fill="black"/>
    <path d="M204.683 403.805H180.293V428.195H204.683V403.805Z" fill="black"/>
    <path d="M326.634 403.805H302.244V428.195H326.634V403.805Z" fill="black"/>
    <path d="M351.025 403.805H326.635V428.195H351.025V403.805Z" fill="black"/>
    <path d="M424.195 403.805H399.805V428.195H424.195V403.805Z" fill="black"/>
    <path d="M448.586 403.805H424.195V428.195H448.586V403.805Z" fill="black"/>
    <path d="M497.367 403.805H472.977V428.195H497.367V403.805Z" fill="black"/>
    <path d="M521.755 403.805H497.365V428.195H521.755V403.805Z" fill="black"/>
    <path d="M570.537 403.805H546.146V428.195H570.537V403.805Z" fill="black"/>
    <path d="M692.488 403.805H668.098V428.195H692.488V403.805Z" fill="black"/>
    <path d="M716.879 403.805H692.488V428.195H716.879V403.805Z" fill="black"/>
    <path d="M741.269 403.805H716.879V428.195H741.269V403.805Z" fill="black"/>
    <path d="M790.048 403.805H765.658V428.195H790.048V403.805Z" fill="black"/>
    <path d="M814.439 403.805H790.049V428.195H814.439V403.805Z" fill="black"/>
    <path d="M131.511 428.195H107.121V452.586H131.511V428.195Z" fill="black"/>
    <path d="M155.902 428.195H131.512V452.586H155.902V428.195Z" fill="black"/>
    <path d="M229.074 428.195H204.684V452.586H229.074V428.195Z" fill="black"/>
    <path d="M277.853 428.195H253.463V452.586H277.853V428.195Z" fill="black"/>
    <path d="M302.244 428.195H277.854V452.586H302.244V428.195Z" fill="black"/>
    <path d="M351.025 428.195H326.635V452.586H351.025V428.195Z" fill="black"/>
    <path d="M399.804 428.195H375.414V452.586H399.804V428.195Z" fill="black"/>
    <path d="M424.195 428.195H399.805V452.586H424.195V428.195Z" fill="black"/>
    <path d="M472.976 428.195H448.586V452.586H472.976V428.195Z" fill="black"/>
    <path d="M570.537 428.195H546.146V452.586H570.537V428.195Z" fill="black"/>
    <path d="M594.927 428.195H570.537V452.586H594.927V428.195Z" fill="black"/>
    <path d="M741.269 428.195H716.879V452.586H741.269V428.195Z" fill="black"/>
    <path d="M765.658 428.195H741.268V452.586H765.658V428.195Z" fill="black"/>
    <path d="M790.048 428.195H765.658V452.586H790.048V428.195Z" fill="black"/>
    <path d="M814.439 428.195H790.049V452.586H814.439V428.195Z" fill="black"/>
    <path d="M82.732 452.585H58.3418V476.975H82.732V452.585Z" fill="black"/>
    <path d="M131.511 452.585H107.121V476.975H131.511V452.585Z" fill="black"/>
    <path d="M180.293 452.585H155.902V476.975H180.293V452.585Z" fill="black"/>
    <path d="M204.683 452.585H180.293V476.975H204.683V452.585Z" fill="black"/>
    <path d="M229.074 452.585H204.684V476.975H229.074V452.585Z" fill="black"/>
    <path d="M253.463 452.585H229.072V476.975H253.463V452.585Z" fill="black"/>
    <path d="M277.853 452.585H253.463V476.975H277.853V452.585Z" fill="black"/>
    <path d="M326.634 452.585H302.244V476.975H326.634V452.585Z" fill="black"/>
    <path d="M375.414 452.585H351.023V476.975H375.414V452.585Z" fill="black"/>
    <path d="M424.195 452.585H399.805V476.975H424.195V452.585Z" fill="black"/>
    <path d="M472.976 452.585H448.586V476.975H472.976V452.585Z" fill="black"/>
    <path d="M521.755 452.585H497.365V476.975H521.755V452.585Z" fill="black"/>
    <path d="M570.537 452.585H546.146V476.975H570.537V452.585Z" fill="black"/>
    <path d="M643.707 452.585H619.316V476.975H643.707V452.585Z" fill="black"/>
    <path d="M765.658 452.585H741.268V476.975H765.658V452.585Z" fill="black"/>
    <path d="M790.048 452.585H765.658V476.975H790.048V452.585Z" fill="black"/>
    <path d="M58.3414 476.976H33.9512V501.366H58.3414V476.976Z" fill="black"/>
    <path d="M155.902 476.976H131.512V501.366H155.902V476.976Z" fill="black"/>
    <path d="M302.244 476.976H277.854V501.366H302.244V476.976Z" fill="black"/>
    <path d="M351.025 476.976H326.635V501.366H351.025V476.976Z" fill="black"/>
    <path d="M375.414 476.976H351.023V501.366H375.414V476.976Z" fill="black"/>
    <path d="M424.195 476.976H399.805V501.366H424.195V476.976Z" fill="black"/>
    <path d="M497.367 476.976H472.977V501.366H497.367V476.976Z" fill="black"/>
    <path d="M521.755 476.976H497.365V501.366H521.755V476.976Z" fill="black"/>
    <path d="M570.537 476.976H546.146V501.366H570.537V476.976Z" fill="black"/>
    <path d="M619.318 476.976H594.928V501.366H619.318V476.976Z" fill="black"/>
    <path d="M643.707 476.976H619.316V501.366H643.707V476.976Z" fill="black"/>
    <path d="M668.097 476.976H643.707V501.366H668.097V476.976Z" fill="black"/>
    <path d="M716.879 476.976H692.488V501.366H716.879V476.976Z" fill="black"/>
    <path d="M790.048 476.976H765.658V501.366H790.048V476.976Z" fill="black"/>
    <path d="M814.439 476.976H790.049V501.366H814.439V476.976Z" fill="black"/>
    <path d="M33.9508 501.366H9.56055V525.756H33.9508V501.366Z" fill="black"/>
    <path d="M58.3414 501.366H33.9512V525.756H58.3414V501.366Z" fill="black"/>
    <path d="M180.293 501.366H155.902V525.756H180.293V501.366Z" fill="black"/>
    <path d="M229.074 501.366H204.684V525.756H229.074V501.366Z" fill="black"/>
    <path d="M253.463 501.366H229.072V525.756H253.463V501.366Z" fill="black"/>
    <path d="M277.853 501.366H253.463V525.756H277.853V501.366Z" fill="black"/>
    <path d="M351.025 501.366H326.635V525.756H351.025V501.366Z" fill="black"/>
    <path d="M424.195 501.366H399.805V525.756H424.195V501.366Z" fill="black"/>
    <path d="M497.367 501.366H472.977V525.756H497.367V501.366Z" fill="black"/>
    <path d="M521.755 501.366H497.365V525.756H521.755V501.366Z" fill="black"/>
    <path d="M546.146 501.366H521.756V525.756H546.146V501.366Z" fill="black"/>
    <path d="M570.537 501.366H546.146V525.756H570.537V501.366Z" fill="black"/>
    <path d="M619.318 501.366H594.928V525.756H619.318V501.366Z" fill="black"/>
    <path d="M643.707 501.366H619.316V525.756H643.707V501.366Z" fill="black"/>
    <path d="M716.879 501.366H692.488V525.756H716.879V501.366Z" fill="black"/>
    <path d="M765.658 501.366H741.268V525.756H765.658V501.366Z" fill="black"/>
    <path d="M814.439 501.366H790.049V525.756H814.439V501.366Z" fill="black"/>
    <path d="M33.9508 525.756H9.56055V550.146H33.9508V525.756Z" fill="black"/>
    <path d="M58.3414 525.756H33.9512V550.146H58.3414V525.756Z" fill="black"/>
    <path d="M107.123 525.756H82.7324V550.146H107.123V525.756Z" fill="black"/>
    <path d="M155.902 525.756H131.512V550.146H155.902V525.756Z" fill="black"/>
    <path d="M253.463 525.756H229.072V550.146H253.463V525.756Z" fill="black"/>
    <path d="M277.853 525.756H253.463V550.146H277.853V525.756Z" fill="black"/>
    <path d="M302.244 525.756H277.854V550.146H302.244V525.756Z" fill="black"/>
    <path d="M375.414 525.756H351.023V550.146H375.414V525.756Z" fill="black"/>
    <path d="M472.976 525.756H448.586V550.146H472.976V525.756Z" fill="black"/>
    <path d="M497.367 525.756H472.977V550.146H497.367V525.756Z" fill="black"/>
    <path d="M570.537 525.756H546.146V550.146H570.537V525.756Z" fill="black"/>
    <path d="M594.927 525.756H570.537V550.146H594.927V525.756Z" fill="black"/>
    <path d="M619.318 525.756H594.928V550.146H619.318V525.756Z" fill="black"/>
    <path d="M643.707 525.756H619.316V550.146H643.707V525.756Z" fill="black"/>
    <path d="M668.097 525.756H643.707V550.146H668.097V525.756Z" fill="black"/>
    <path d="M692.488 525.756H668.098V550.146H692.488V525.756Z" fill="black"/>
    <path d="M741.269 525.756H716.879V550.146H741.269V525.756Z" fill="black"/>
    <path d="M765.658 525.756H741.268V550.146H765.658V525.756Z" fill="black"/>
    <path d="M790.048 525.756H765.658V550.146H790.048V525.756Z" fill="black"/>
    <path d="M814.439 525.756H790.049V550.146H814.439V525.756Z" fill="black"/>
    <path d="M107.123 550.146H82.7324V574.537H107.123V550.146Z" fill="black"/>
    <path d="M180.293 550.146H155.902V574.537H180.293V550.146Z" fill="black"/>
    <path d="M229.074 550.146H204.684V574.537H229.074V550.146Z" fill="black"/>
    <path d="M253.463 550.146H229.072V574.537H253.463V550.146Z" fill="black"/>
    <path d="M326.634 550.146H302.244V574.537H326.634V550.146Z" fill="black"/>
    <path d="M351.025 550.146H326.635V574.537H351.025V550.146Z" fill="black"/>
    <path d="M399.804 550.146H375.414V574.537H399.804V550.146Z" fill="black"/>
    <path d="M472.976 550.146H448.586V574.537H472.976V550.146Z" fill="black"/>
    <path d="M521.755 550.146H497.365V574.537H521.755V550.146Z" fill="black"/>
    <path d="M570.537 550.146H546.146V574.537H570.537V550.146Z" fill="black"/>
    <path d="M594.927 550.146H570.537V574.537H594.927V550.146Z" fill="black"/>
    <path d="M619.318 550.146H594.928V574.537H619.318V550.146Z" fill="black"/>
    <path d="M741.269 550.146H716.879V574.537H741.269V550.146Z" fill="black"/>
    <path d="M765.658 550.146H741.268V574.537H765.658V550.146Z" fill="black"/>
    <path d="M790.048 550.146H765.658V574.537H790.048V550.146Z" fill="black"/>
    <path d="M107.123 574.536H82.7324V598.926H107.123V574.536Z" fill="black"/>
    <path d="M155.902 574.536H131.512V598.926H155.902V574.536Z" fill="black"/>
    <path d="M229.074 574.536H204.684V598.926H229.074V574.536Z" fill="black"/>
    <path d="M277.853 574.536H253.463V598.926H277.853V574.536Z" fill="black"/>
    <path d="M302.244 574.536H277.854V598.926H302.244V574.536Z" fill="black"/>
    <path d="M326.634 574.536H302.244V598.926H326.634V574.536Z" fill="black"/>
    <path d="M351.025 574.536H326.635V598.926H351.025V574.536Z" fill="black"/>
    <path d="M424.195 574.536H399.805V598.926H424.195V574.536Z" fill="black"/>
    <path d="M448.586 574.536H424.195V598.926H448.586V574.536Z" fill="black"/>
    <path d="M497.367 574.536H472.977V598.926H497.367V574.536Z" fill="black"/>
    <path d="M521.755 574.536H497.365V598.926H521.755V574.536Z" fill="black"/>
    <path d="M570.537 574.536H546.146V598.926H570.537V574.536Z" fill="black"/>
    <path d="M619.318 574.536H594.928V598.926H619.318V574.536Z" fill="black"/>
    <path d="M668.097 574.536H643.707V598.926H668.097V574.536Z" fill="black"/>
    <path d="M716.879 574.536H692.488V598.926H716.879V574.536Z" fill="black"/>
    <path d="M814.439 574.536H790.049V598.926H814.439V574.536Z" fill="black"/>
    <path d="M33.9508 598.927H9.56055V623.317H33.9508V598.927Z" fill="black"/>
    <path d="M58.3414 598.927H33.9512V623.317H58.3414V598.927Z" fill="black"/>
    <path d="M82.732 598.927H58.3418V623.317H82.732V598.927Z" fill="black"/>
    <path d="M131.511 598.927H107.121V623.317H131.511V598.927Z" fill="black"/>
    <path d="M155.902 598.927H131.512V623.317H155.902V598.927Z" fill="black"/>
    <path d="M180.293 598.927H155.902V623.317H180.293V598.927Z" fill="black"/>
    <path d="M204.683 598.927H180.293V623.317H204.683V598.927Z" fill="black"/>
    <path d="M277.853 598.927H253.463V623.317H277.853V598.927Z" fill="black"/>
    <path d="M326.634 598.927H302.244V623.317H326.634V598.927Z" fill="black"/>
    <path d="M375.414 598.927H351.023V623.317H375.414V598.927Z" fill="black"/>
    <path d="M424.195 598.927H399.805V623.317H424.195V598.927Z" fill="black"/>
    <path d="M448.586 598.927H424.195V623.317H448.586V598.927Z" fill="black"/>
    <path d="M472.976 598.927H448.586V623.317H472.976V598.927Z" fill="black"/>
    <path d="M497.367 598.927H472.977V623.317H497.367V598.927Z" fill="black"/>
    <path d="M546.146 598.927H521.756V623.317H546.146V598.927Z" fill="black"/>
    <path d="M570.537 598.927H546.146V623.317H570.537V598.927Z" fill="black"/>
    <path d="M619.318 598.927H594.928V623.317H619.318V598.927Z" fill="black"/>
    <path d="M643.707 598.927H619.316V623.317H643.707V598.927Z" fill="black"/>
    <path d="M668.097 598.927H643.707V623.317H668.097V598.927Z" fill="black"/>
    <path d="M692.488 598.927H668.098V623.317H692.488V598.927Z" fill="black"/>
    <path d="M716.879 598.927H692.488V623.317H716.879V598.927Z" fill="black"/>
    <path d="M765.658 598.927H741.268V623.317H765.658V598.927Z" fill="black"/>
    <path d="M790.048 598.927H765.658V623.317H790.048V598.927Z" fill="black"/>
    <path d="M229.074 623.317H204.684V647.708H229.074V623.317Z" fill="black"/>
    <path d="M326.634 623.317H302.244V647.708H326.634V623.317Z" fill="black"/>
    <path d="M375.414 623.317H351.023V647.708H375.414V623.317Z" fill="black"/>
    <path d="M424.195 623.317H399.805V647.708H424.195V623.317Z" fill="black"/>
    <path d="M497.367 623.317H472.977V647.708H497.367V623.317Z" fill="black"/>
    <path d="M594.927 623.317H570.537V647.708H594.927V623.317Z" fill="black"/>
    <path d="M619.318 623.317H594.928V647.708H619.318V623.317Z" fill="black"/>
    <path d="M716.879 623.317H692.488V647.708H716.879V623.317Z" fill="black"/>
    <path d="M741.269 623.317H716.879V647.708H741.269V623.317Z" fill="black"/>
    <path d="M765.658 623.317H741.268V647.708H765.658V623.317Z" fill="black"/>
    <path d="M790.048 623.317H765.658V647.708H790.048V623.317Z" fill="black"/>
    <path d="M229.074 647.707H204.684V672.097H229.074V647.707Z" fill="black"/>
    <path d="M253.463 647.707H229.072V672.097H253.463V647.707Z" fill="black"/>
    <path d="M277.853 647.707H253.463V672.097H277.853V647.707Z" fill="black"/>
    <path d="M302.244 647.707H277.854V672.097H302.244V647.707Z" fill="black"/>
    <path d="M375.414 647.707H351.023V672.097H375.414V647.707Z" fill="black"/>
    <path d="M424.195 647.707H399.805V672.097H424.195V647.707Z" fill="black"/>
    <path d="M472.976 647.707H448.586V672.097H472.976V647.707Z" fill="black"/>
    <path d="M594.927 647.707H570.537V672.097H594.927V647.707Z" fill="black"/>
    <path d="M619.318 647.707H594.928V672.097H619.318V647.707Z" fill="black"/>
    <path d="M668.097 647.707H643.707V672.097H668.097V647.707Z" fill="black"/>
    <path d="M716.879 647.707H692.488V672.097H716.879V647.707Z" fill="black"/>
    <path d="M765.658 647.707H741.268V672.097H765.658V647.707Z" fill="black"/>
    <path d="M790.048 647.707H765.658V672.097H790.048V647.707Z" fill="black"/>
    <path d="M814.439 647.707H790.049V672.097H814.439V647.707Z" fill="black"/>
    <path d="M277.853 672.098H253.463V696.488H277.853V672.098Z" fill="black"/>
    <path d="M351.025 672.098H326.635V696.488H351.025V672.098Z" fill="black"/>
    <path d="M497.367 672.098H472.977V696.488H497.367V672.098Z" fill="black"/>
    <path d="M521.755 672.098H497.365V696.488H521.755V672.098Z" fill="black"/>
    <path d="M546.146 672.098H521.756V696.488H546.146V672.098Z" fill="black"/>
    <path d="M619.318 672.098H594.928V696.488H619.318V672.098Z" fill="black"/>
    <path d="M716.879 672.098H692.488V696.488H716.879V672.098Z" fill="black"/>
    <path d="M814.439 672.098H790.049V696.488H814.439V672.098Z" fill="black"/>
    <path d="M229.074 696.488H204.684V720.879H229.074V696.488Z" fill="black"/>
    <path d="M253.463 696.488H229.072V720.879H253.463V696.488Z" fill="black"/>
    <path d="M277.853 696.488H253.463V720.879H277.853V696.488Z" fill="black"/>
    <path d="M302.244 696.488H277.854V720.879H302.244V696.488Z" fill="black"/>
    <path d="M375.414 696.488H351.023V720.879H375.414V696.488Z" fill="black"/>
    <path d="M424.195 696.488H399.805V720.879H424.195V696.488Z" fill="black"/>
    <path d="M448.586 696.488H424.195V720.879H448.586V696.488Z" fill="black"/>
    <path d="M472.976 696.488H448.586V720.879H472.976V696.488Z" fill="black"/>
    <path d="M497.367 696.488H472.977V720.879H497.367V696.488Z" fill="black"/>
    <path d="M546.146 696.488H521.756V720.879H546.146V696.488Z" fill="black"/>
    <path d="M594.927 696.488H570.537V720.879H594.927V696.488Z" fill="black"/>
    <path d="M619.318 696.488H594.928V720.879H619.318V696.488Z" fill="black"/>
    <path d="M643.707 696.488H619.316V720.879H643.707V696.488Z" fill="black"/>
    <path d="M668.097 696.488H643.707V720.879H668.097V696.488Z" fill="black"/>
    <path d="M692.488 696.488H668.098V720.879H692.488V696.488Z" fill="black"/>
    <path d="M716.879 696.488H692.488V720.879H716.879V696.488Z" fill="black"/>
    <path d="M765.658 696.488H741.268V720.879H765.658V696.488Z" fill="black"/>
    <path d="M814.439 696.488H790.049V720.879H814.439V696.488Z" fill="black"/>
    <path d="M253.463 720.878H229.072V745.268H253.463V720.878Z" fill="black"/>
    <path d="M277.853 720.878H253.463V745.268H277.853V720.878Z" fill="black"/>
    <path d="M302.244 720.878H277.854V745.268H302.244V720.878Z" fill="black"/>
    <path d="M326.634 720.878H302.244V745.268H326.634V720.878Z" fill="black"/>
    <path d="M399.804 720.878H375.414V745.268H399.804V720.878Z" fill="black"/>
    <path d="M424.195 720.878H399.805V745.268H424.195V720.878Z" fill="black"/>
    <path d="M497.367 720.878H472.977V745.268H497.367V720.878Z" fill="black"/>
    <path d="M521.755 720.878H497.365V745.268H521.755V720.878Z" fill="black"/>
    <path d="M741.269 720.878H716.879V745.268H741.269V720.878Z" fill="black"/>
    <path d="M765.658 720.878H741.268V745.268H765.658V720.878Z" fill="black"/>
    <path d="M814.439 720.878H790.049V745.268H814.439V720.878Z" fill="black"/>
    <path d="M253.463 745.269H229.072V769.659H253.463V745.269Z" fill="black"/>
    <path d="M302.244 745.269H277.854V769.659H302.244V745.269Z" fill="black"/>
    <path d="M424.195 745.269H399.805V769.659H424.195V745.269Z" fill="black"/>
    <path d="M472.976 745.269H448.586V769.659H472.976V745.269Z" fill="black"/>
    <path d="M643.707 745.269H619.316V769.659H643.707V745.269Z" fill="black"/>
    <path d="M668.097 745.269H643.707V769.659H668.097V745.269Z" fill="black"/>
    <path d="M692.488 745.269H668.098V769.659H692.488V745.269Z" fill="black"/>
    <path d="M716.879 745.269H692.488V769.659H716.879V745.269Z" fill="black"/>
    <path d="M741.269 745.269H716.879V769.659H741.269V745.269Z" fill="black"/>
    <path d="M765.658 745.269H741.268V769.659H765.658V745.269Z" fill="black"/>
    <path d="M253.463 769.658H229.072V794.048H253.463V769.658Z" fill="black"/>
    <path d="M302.244 769.658H277.854V794.048H302.244V769.658Z" fill="black"/>
    <path d="M326.634 769.658H302.244V794.048H326.634V769.658Z" fill="black"/>
    <path d="M351.025 769.658H326.635V794.048H351.025V769.658Z" fill="black"/>
    <path d="M424.195 769.658H399.805V794.048H424.195V769.658Z" fill="black"/>
    <path d="M497.367 769.658H472.977V794.048H497.367V769.658Z" fill="black"/>
    <path d="M521.755 769.658H497.365V794.048H521.755V769.658Z" fill="black"/>
    <path d="M546.146 769.658H521.756V794.048H546.146V769.658Z" fill="black"/>
    <path d="M570.537 769.658H546.146V794.048H570.537V769.658Z" fill="black"/>
    <path d="M594.927 769.658H570.537V794.048H594.927V769.658Z" fill="black"/>
    <path d="M619.318 769.658H594.928V794.048H619.318V769.658Z" fill="black"/>
    <path d="M643.707 769.658H619.316V794.048H643.707V769.658Z" fill="black"/>
    <path d="M790.048 769.658H765.658V794.048H790.048V769.658Z" fill="black"/>
    <path d="M814.439 769.658H790.049V794.048H814.439V769.658Z" fill="black"/>
    <path d="M229.074 794.049H204.684V818.439H229.074V794.049Z" fill="black"/>
    <path d="M253.463 794.049H229.072V818.439H253.463V794.049Z" fill="black"/>
    <path d="M302.244 794.049H277.854V818.439H302.244V794.049Z" fill="black"/>
    <path d="M351.025 794.049H326.635V818.439H351.025V794.049Z" fill="black"/>
    <path d="M375.414 794.049H351.023V818.439H375.414V794.049Z" fill="black"/>
    <path d="M424.195 794.049H399.805V818.439H424.195V794.049Z" fill="black"/>
    <path d="M448.586 794.049H424.195V818.439H448.586V794.049Z" fill="black"/>
    <path d="M497.367 794.049H472.977V818.439H497.367V794.049Z" fill="black"/>
    <path d="M521.755 794.049H497.365V818.439H521.755V794.049Z" fill="black"/>
    <path d="M570.537 794.049H546.146V818.439H570.537V794.049Z" fill="black"/>
    <path d="M594.927 794.049H570.537V818.439H594.927V794.049Z" fill="black"/>
    <path d="M619.318 794.049H594.928V818.439H619.318V794.049Z" fill="black"/>
    <path d="M643.707 794.049H619.316V818.439H643.707V794.049Z" fill="black"/>
    <path d="M692.488 794.049H668.098V818.439H692.488V794.049Z" fill="black"/>
    <path d="M741.269 794.049H716.879V818.439H741.269V794.049Z" fill="black"/>
    <path d="M765.658 794.049H741.268V818.439H765.658V794.049Z" fill="black"/>
    <path d="M814.439 794.049H790.049V818.439H814.439V794.049Z" fill="black"/>
    <path fill-rule="evenodd" clip-rule="evenodd" d="M9.56055 13.5605H180.292V184.292H9.56055V13.5605ZM33.9508 37.9508H155.902V159.902H33.9508V37.9508Z" fill="black"/>
    <path fill-rule="evenodd" clip-rule="evenodd" d="M643.707 13.5605H814.439V184.292H643.707V13.5605ZM668.097 37.9508H790.048V159.902H668.097V37.9508Z" fill="black"/>
    <path d="M131.513 62.3418H58.3418V135.513H131.513V62.3418Z" fill="black"/>
    <path d="M765.659 62.3418H692.488V135.513H765.659V62.3418Z" fill="black"/>
    <path fill-rule="evenodd" clip-rule="evenodd" d="M9.56055 647.707H180.292V818.439H9.56055V647.707ZM33.9508 672.097H155.902V794.048H33.9508V672.097Z" fill="black"/>
    <path d="M131.513 696.488H58.3418V769.659H131.513V696.488Z" fill="black"/>
    </g>
    </g>
    </g>
    <defs>
    <clipPath id="clip0_594_1755">
    <rect width="821" height="821" fill="white"/>
    </clipPath>
    <clipPath id="clip1_594_1755">
    <rect width="1000" height="1000" fill="white" transform="translate(-88 -84)"/>
    </clipPath>
    <clipPath id="clip2_594_1755">
    <rect width="1000" height="1000" fill="white" transform="translate(-88 -84)"/>
    </clipPath>
    </defs>
    </svg>
    