
<svg width="2010" height="1317" viewBox="0 0 2010 1317" fill="none" xmlns="http://www.w3.org/2000/svg">
<rect class="pouet" x="5" y="5" width="290" height="290" rx="45" fill="white" stroke="#C5C5C5" stroke-width="10"/>
<rect class="pouet" x="5" y="344" width="290" height="290" rx="45" fill="white" stroke="#C5C5C5" stroke-width="10"/>
<rect class="pouet" x="5" y="683" width="290" height="290" rx="45" fill="white" stroke="#C5C5C5" stroke-width="10"/>
<path d="M133.59 832.52H148.83L140.78 819.52L125.98 843H119.25L137.25 814.83C137.642 814.268 138.164 813.808 138.77 813.489C139.377 813.17 140.052 813.001 140.737 812.996C141.423 812.991 142.099 813.15 142.71 813.461C143.322 813.771 143.85 814.224 144.25 814.78L162.3 843H155.57L152.4 837.75H136.98L133.62 832.52M203.55 837.75V813.28H197.83V840.16C197.829 840.534 197.904 840.903 198.05 841.247C198.196 841.591 198.41 841.902 198.68 842.16C198.951 842.437 199.274 842.657 199.632 842.806C199.989 842.956 200.373 843.032 200.76 843.03H226.76L230.15 837.78H203.52M108.98 833.38C111.645 833.38 114.202 832.321 116.086 830.436C117.971 828.552 119.03 825.995 119.03 823.33C119.03 820.665 117.971 818.108 116.086 816.224C114.202 814.339 111.645 813.28 108.98 813.28H83.98V843H89.69V818.54H108.63C109.906 818.54 111.129 819.047 112.031 819.949C112.933 820.851 113.44 822.074 113.44 823.35C113.44 824.626 112.933 825.849 112.031 826.751C111.129 827.653 109.906 828.16 108.63 828.16H92.52L109.58 843H117.87L106.41 833.38H108.98ZM48.86 843H66.13C70.003 842.9 73.6837 841.29 76.3875 838.515C79.0913 835.741 80.6045 832.019 80.6045 828.145C80.6045 824.271 79.0913 820.55 76.3875 817.775C73.6837 815 70.003 813.391 66.13 813.29H48.86C46.8767 813.239 44.9033 813.585 43.056 814.308C41.2087 815.032 39.525 816.118 38.1041 817.502C36.6832 818.887 35.5539 820.542 34.7828 822.369C34.0118 824.197 33.6145 826.161 33.6145 828.145C33.6145 830.129 34.0118 832.093 34.7828 833.921C35.5539 835.749 36.6832 837.404 38.1041 838.788C39.525 840.173 41.2087 841.259 43.056 841.982C44.9033 842.705 46.8767 843.052 48.86 843ZM65.74 837.77H49.24C46.7436 837.69 44.3764 836.641 42.6389 834.847C40.9015 833.053 39.9301 830.653 39.9301 828.155C39.9301 825.657 40.9015 823.258 42.6389 821.463C44.3764 819.669 46.7436 818.621 49.24 818.54H65.74C67.0287 818.498 68.3127 818.716 69.5155 819.181C70.7184 819.645 71.8156 820.347 72.7419 821.244C73.6682 822.141 74.4048 823.215 74.9078 824.402C75.4109 825.589 75.6701 826.866 75.6701 828.155C75.6701 829.444 75.4109 830.721 74.9078 831.908C74.4048 833.095 73.6682 834.169 72.7419 835.066C71.8156 835.963 70.7184 836.665 69.5155 837.129C68.3127 837.594 67.0287 837.812 65.74 837.77ZM174.23 843H191.86L195.2 837.77H174.62C173.331 837.812 172.047 837.594 170.844 837.129C169.642 836.665 168.544 835.963 167.618 835.066C166.692 834.169 165.955 833.095 165.452 831.908C164.949 830.721 164.69 829.444 164.69 828.155C164.69 826.866 164.949 825.589 165.452 824.402C165.955 823.215 166.692 822.141 167.618 821.244C168.544 820.347 169.642 819.645 170.844 819.181C172.047 818.716 173.331 818.498 174.62 818.54H191.37L194.75 813.29H174.23C172.247 813.239 170.273 813.585 168.426 814.308C166.579 815.032 164.895 816.118 163.474 817.502C162.053 818.887 160.924 820.542 160.153 822.369C159.382 824.197 158.985 826.161 158.985 828.145C158.985 830.129 159.382 832.093 160.153 833.921C160.924 835.749 162.053 837.404 163.474 838.788C164.895 840.173 166.579 841.259 168.426 841.982C170.273 842.705 172.247 843.052 174.23 843ZM244.1 837.77C242.005 837.771 239.967 837.088 238.295 835.824C236.624 834.561 235.411 832.786 234.84 830.77H259.26L262.62 825.53H234.84C235.409 823.513 236.622 821.738 238.294 820.474C239.965 819.21 242.004 818.528 244.1 818.53H260.86L264.21 813.28H243.71C239.837 813.381 236.156 814.99 233.452 817.765C230.749 820.54 229.235 824.261 229.235 828.135C229.235 832.009 230.749 835.731 233.452 838.505C236.156 841.28 239.837 842.89 243.71 842.99H261.34L264.69 837.76H244.09" fill="#C74634"/>
<rect class="pouet" x="5" y="1022" width="290" height="290" rx="45" fill="white" stroke="#C5C5C5" stroke-width="10"/>
<path d="M27.8241 1176.64C27.7548 1175.6 27.6856 1174.25 27.6856 1173.28H27.6163C27.4086 1174.18 26.9931 1175.25 26.6469 1176.29L25.2967 1180.03H24.535L23.3233 1176.36C22.9771 1175.39 22.7001 1174.32 22.4231 1173.35C22.3539 1174.25 22.3539 1175.6 22.2846 1176.77L22.0769 1180.06H21.1768L21.7307 1172.27H23.0117L24.3619 1176.08C24.7081 1176.98 24.9159 1177.92 25.1236 1178.75H25.1928C25.4006 1177.99 25.6775 1177.05 26.0237 1176.08L27.4432 1172.27H28.7242L29.2089 1180.06H28.101L27.8241 1176.64Z" fill="#00AAF2"/>
<path d="M31.8344 1172.9C31.8344 1173.24 31.5574 1173.52 31.2112 1173.52H31.142C30.7958 1173.52 30.5188 1173.24 30.5188 1172.9C30.5188 1172.55 30.7958 1172.27 31.142 1172.27C31.5574 1172.27 31.8344 1172.55 31.8344 1172.9ZM30.7265 1180.1V1174.56H31.7652V1180.1H30.7265Z" fill="#00AAF2"/>
<path d="M37.3819 1179.85C36.8972 1180.06 36.3433 1180.2 35.7547 1180.2C34.0583 1180.2 32.9504 1179.09 32.9504 1177.32C32.8812 1175.69 34.0583 1174.38 35.6855 1174.31H35.9625C36.4472 1174.31 36.9319 1174.38 37.3819 1174.59L37.1742 1175.35C36.828 1175.21 36.4125 1175.07 35.9625 1175.14C34.6815 1175.14 33.9891 1176.04 33.9891 1177.25C33.9891 1178.6 34.82 1179.36 35.9625 1179.36C36.3779 1179.36 36.7934 1179.3 37.1742 1179.09L37.3819 1179.85Z" fill="#00AAF2"/>
<path d="M38.5182 1176.22C38.5182 1175.6 38.449 1175.01 38.449 1174.52H39.3491L39.4184 1175.63H39.4876C39.6953 1174.94 40.3185 1174.42 41.0456 1174.42C41.1148 1174.42 41.2533 1174.42 41.3225 1174.49V1175.39C41.2533 1175.32 41.1148 1175.32 40.9763 1175.32C40.2839 1175.32 39.7646 1175.87 39.6261 1176.67C39.6261 1176.81 39.5569 1176.95 39.5569 1177.08V1180.1H38.5875L38.5182 1176.22Z" fill="#00AAF2"/>
<path d="M47.3126 1177.25C47.3818 1178.74 46.2739 1180.06 44.7852 1180.13H44.5775C43.0888 1180.13 41.9116 1179.02 41.9116 1177.25C41.9116 1175.35 43.1926 1174.31 44.716 1174.31C46.1008 1174.31 47.3126 1175.52 47.3126 1177.25ZM42.881 1177.25C42.881 1178.36 43.435 1179.36 44.5775 1179.36C45.6854 1179.36 46.2739 1178.33 46.2739 1177.25C46.2739 1176.28 45.8585 1175.07 44.5775 1175.07C43.2272 1175.14 42.881 1176.28 42.881 1177.25Z" fill="#00AAF2"/>
<path d="M48.4263 1179.02C48.8417 1179.3 49.2572 1179.43 49.7765 1179.43C50.4689 1179.43 50.8152 1179.09 50.8152 1178.6C50.8152 1178.19 50.5382 1177.91 49.7765 1177.56C48.8071 1177.22 48.2878 1176.66 48.2878 1175.94C48.2878 1175.04 48.9802 1174.31 50.192 1174.31C50.6767 1174.31 51.1614 1174.45 51.6114 1174.66L51.4037 1175.35C51.0575 1175.14 50.6421 1175 50.2958 1175C49.8111 1174.93 49.3957 1175.28 49.3957 1175.76C49.3957 1176.18 49.7419 1176.39 50.4343 1176.66C51.3345 1177.01 51.923 1177.5 51.923 1178.36C51.923 1179.33 51.1614 1180.06 49.8111 1180.06C49.2572 1180.06 48.7725 1179.92 48.2532 1179.64L48.4263 1179.02Z" fill="#00AAF2"/>
<path d="M58.1895 1177.25C58.2588 1178.74 57.1509 1180.06 55.6622 1180.13H55.4544C53.9657 1180.13 52.7886 1179.02 52.7886 1177.25C52.7886 1175.35 54.0696 1174.31 55.5929 1174.31C57.0124 1174.31 58.1895 1175.52 58.1895 1177.25ZM53.7926 1177.25C53.7926 1178.36 54.3465 1179.36 55.489 1179.36C56.6316 1179.36 57.1855 1178.33 57.1855 1177.25C57.1855 1176.28 56.77 1175.07 55.489 1175.07C54.2081 1175.07 53.7926 1176.28 53.7926 1177.25Z" fill="#00AAF2"/>
<path d="M59.5385 1180.09V1175.24H58.7769V1174.48H59.5385V1174.2C59.4693 1173.51 59.677 1172.78 60.1617 1172.23C60.5079 1171.88 60.9926 1171.68 61.5119 1171.68C61.7889 1171.68 62.0659 1171.75 62.3429 1171.81L62.2044 1172.58C61.9966 1172.51 61.7889 1172.44 61.5812 1172.44C60.7503 1172.44 60.5425 1173.2 60.5425 1174.06V1174.41H61.8928V1175.17H60.5425V1179.95L59.5385 1180.09Z" fill="#00AAF2"/>
<path d="M64.1755 1172.82V1174.44H65.6643V1175.21H64.1755V1178.22C64.1755 1178.91 64.3833 1179.26 64.9372 1179.26C65.1449 1179.26 65.3527 1179.26 65.4912 1179.19L65.5604 1179.95C65.2834 1180.09 65.0065 1180.09 64.6603 1180.09C64.2448 1180.09 63.8986 1179.95 63.5524 1179.67C63.2754 1179.26 63.1369 1178.7 63.2062 1178.18V1175.1H62.3752V1174.34H63.2062V1172.99L64.1755 1172.82Z" fill="#00AAF2"/>
<path d="M27.1972 1201.23L24.5314 1209.47H21L29.9323 1183.3H33.9484L42.8807 1209.44H39.2801L36.4757 1201.2H27.1972V1201.23ZM35.7833 1198.64L33.2559 1191.12C32.702 1189.43 32.2866 1187.83 31.9057 1186.35H31.7672C31.421 1187.9 31.0056 1189.5 30.4862 1191.05L27.9589 1198.64H35.7833Z" fill="#00AAF2"/>
<path d="M59.4696 1208.83C57.7732 1209.6 55.9383 1209.94 54.0687 1209.94C48.4601 1209.94 44.7209 1206.06 44.7209 1200.39C44.7209 1194.71 48.737 1190.42 54.7611 1190.42C56.3883 1190.42 57.9809 1190.69 59.4696 1191.38L58.708 1193.98C57.4962 1193.36 56.1114 1193.08 54.6919 1193.08C50.3988 1193.08 48.0792 1196.3 48.0792 1200.18C48.0792 1204.54 50.8835 1207.21 54.6227 1207.21C56.0421 1207.21 57.4962 1206.93 58.7772 1206.31L59.4696 1208.83Z" fill="#00AAF2"/>
<path d="M68.1131 1185.34V1190.74H72.96V1193.26H68.1131V1203.37C68.1131 1205.69 68.7362 1207.04 70.6404 1207.04C71.2636 1207.04 71.9906 1206.97 72.6138 1206.84L72.7523 1209.36C72.1291 1209.71 71.0559 1209.85 69.671 1209.85C68.2515 1209.92 66.9359 1209.36 66.0012 1208.43C65.101 1207.32 64.7202 1205.76 64.7202 1203.51V1193.26H61.7773V1190.74H64.6509V1186.17L68.1131 1185.34Z" fill="#00AAF2"/>
<path d="M80.6114 1185.48C80.6114 1186.59 79.7805 1187.52 78.638 1187.59H78.4995C77.3917 1187.59 76.4569 1186.76 76.4569 1185.69V1185.55C76.3876 1184.44 77.2878 1183.44 78.4303 1183.44H78.5688C79.7113 1183.3 80.6114 1184.27 80.6114 1185.48C80.6114 1185.41 80.6114 1185.41 80.6114 1185.48ZM76.8377 1209.51V1190.74H80.196V1209.44H76.8377V1209.51Z" fill="#00AAF2"/>
<path d="M87.233 1190.74L90.9028 1201.3C91.526 1203 92.0107 1204.59 92.4608 1206.15H92.5993C93.0147 1204.59 93.5687 1203 94.1573 1201.3L97.8271 1190.74H101.428L94.0534 1209.44H90.7644L83.667 1190.74H87.233Z" fill="#00AAF2"/>
<path d="M106.069 1200.71C106.138 1205.35 109.081 1207.26 112.474 1207.26C114.932 1207.26 116.49 1206.84 117.667 1206.29L118.221 1208.74C116.248 1209.57 114.136 1210.02 111.955 1209.96C106.207 1209.96 102.745 1206.08 102.745 1200.47C102.745 1194.79 106.034 1190.36 111.608 1190.36C117.736 1190.36 119.329 1195.69 119.329 1199.15C119.329 1199.71 119.26 1200.19 119.19 1200.78H106.069V1200.71ZM116.04 1198.25C116.109 1196.14 115.14 1192.78 111.331 1192.78C107.904 1192.78 106.346 1195.93 106.069 1198.25H116.04Z" fill="#00AAF2"/>
<path d="M131.86 1183.72C134.249 1183.37 136.638 1183.16 139.096 1183.16C143.943 1183.16 147.405 1184.27 149.655 1186.45C151.975 1188.56 153.325 1191.65 153.325 1195.8C153.325 1200.09 151.975 1203.52 149.517 1205.98C147.059 1208.44 143.043 1209.79 137.988 1209.79C135.945 1209.79 133.833 1209.72 131.791 1209.44L131.86 1183.72ZM135.322 1206.84C136.43 1206.98 137.573 1207.05 138.68 1207.05C145.916 1207.05 149.863 1203.04 149.863 1195.94C149.932 1189.74 146.436 1185.9 139.304 1185.9C137.953 1185.9 136.638 1186.04 135.288 1186.24L135.322 1206.84Z" fill="#00AAF2"/>
<path d="M161.529 1185.48C161.529 1186.59 160.698 1187.52 159.555 1187.59H159.417C158.309 1187.59 157.374 1186.76 157.374 1185.69V1185.55C157.305 1184.44 158.205 1183.44 159.348 1183.44H159.486C160.559 1183.3 161.529 1184.27 161.529 1185.48C161.529 1185.41 161.529 1185.41 161.529 1185.48ZM157.686 1209.51V1190.74H161.044V1209.44H157.686V1209.51Z" fill="#00AAF2"/>
<path d="M166.718 1196.6C166.718 1194.42 166.649 1192.51 166.58 1190.75H169.592L169.73 1194.42H169.869C170.769 1191.89 172.881 1190.33 175.131 1190.33C175.478 1190.33 175.755 1190.33 176.031 1190.4V1193.62C175.685 1193.55 175.339 1193.48 174.924 1193.48C172.465 1193.48 170.838 1195.32 170.354 1197.85C170.215 1198.33 170.215 1198.88 170.215 1199.4V1209.44H166.857L166.718 1196.6Z" fill="#00AAF2"/>
<path d="M180.953 1200.71C181.023 1205.35 183.965 1207.26 187.358 1207.26C189.816 1207.26 191.374 1206.84 192.551 1206.29L193.105 1208.74C191.132 1209.57 189.02 1210.02 186.839 1209.96C181.092 1209.96 177.63 1206.08 177.63 1200.47C177.63 1194.79 180.919 1190.36 186.493 1190.36C192.621 1190.36 194.213 1195.69 194.213 1199.15C194.213 1199.71 194.144 1200.19 194.075 1200.78H180.953V1200.71ZM190.924 1198.25C190.993 1196.14 190.024 1192.78 186.216 1192.78C182.788 1192.78 181.23 1195.93 180.953 1198.25H190.924Z" fill="#00AAF2"/>
<path d="M211.799 1208.83C210.103 1209.6 208.268 1209.94 206.398 1209.94C200.789 1209.94 197.05 1206.06 197.05 1200.39C197.05 1194.71 201.066 1190.42 207.09 1190.42C208.718 1190.42 210.31 1190.69 211.799 1191.38L211.037 1193.98C209.826 1193.36 208.441 1193.08 207.021 1193.08C202.728 1193.08 200.409 1196.3 200.409 1200.18C200.409 1204.54 203.213 1207.21 206.952 1207.21C208.371 1207.21 209.826 1206.93 211.107 1206.31L211.799 1208.83Z" fill="#00AAF2"/>
<path d="M220.454 1185.34V1190.74H225.301V1193.26H220.454V1203.37C220.454 1205.69 221.077 1207.04 222.981 1207.04C223.605 1207.04 224.332 1206.97 224.955 1206.84L225.093 1209.36C224.47 1209.71 223.397 1209.85 222.012 1209.85C220.592 1209.92 219.277 1209.36 218.342 1208.43C217.442 1207.32 217.061 1205.76 217.061 1203.51V1193.26H214.188V1190.74H217.061V1186.17L220.454 1185.34Z" fill="#00AAF2"/>
<path d="M245.899 1200.1C245.899 1206.99 240.844 1209.93 236.482 1209.93C231.565 1209.93 227.549 1206.26 227.549 1200.17C227.549 1193.9 231.842 1190.33 236.897 1190.33C242.16 1190.33 245.899 1194.07 245.899 1200.1ZM231.046 1200.17C231.046 1203.97 232.95 1207.33 236.724 1207.33C240.463 1207.33 242.471 1203.97 242.471 1200.1C242.471 1196.81 240.913 1192.79 236.724 1192.79C232.535 1192.79 231.046 1196.81 231.046 1200.17Z" fill="#00AAF2"/>
<path d="M250.19 1196.6C250.19 1194.42 250.121 1192.51 250.052 1190.75H253.064L253.202 1194.42H253.341C254.241 1191.89 256.353 1190.33 258.603 1190.33C258.949 1190.33 259.226 1190.33 259.503 1190.4V1193.62C259.157 1193.55 258.811 1193.48 258.395 1193.48C255.937 1193.48 254.31 1195.32 253.825 1197.85C253.687 1198.33 253.687 1198.88 253.687 1199.4V1209.44H250.328L250.19 1196.6Z" fill="#00AAF2"/>
<path d="M265.082 1190.74L269.168 1201.78C269.583 1203 270.068 1204.45 270.38 1205.66H270.449C270.795 1204.55 271.141 1203.13 271.661 1201.78L275.4 1190.74H279L273.876 1204.1C271.418 1210.51 269.791 1213.87 267.471 1215.91C266.26 1216.95 264.875 1217.68 263.317 1218.09L262.486 1215.22C263.594 1214.87 264.598 1214.32 265.498 1213.52C266.71 1212.48 267.679 1211.2 268.302 1209.71C268.441 1209.44 268.579 1209.16 268.579 1208.88C268.579 1208.54 268.441 1208.26 268.302 1207.98L261.413 1190.77H265.082V1190.74Z" fill="#00AAF2"/>
<path d="M162.602 1157.78V1169.31C162.602 1170.66 162.186 1170.94 160.905 1170.73C152.319 1169.45 143.629 1168.27 134.974 1167.06C133.416 1166.85 132.862 1166.3 132.862 1164.6C133.001 1158.47 132.931 1152.31 132.862 1146.11C132.862 1144.76 133.278 1144.35 134.628 1144.35C143.491 1144.42 152.215 1144.42 160.905 1144.42C162.325 1144.42 162.671 1144.97 162.671 1146.25C162.533 1150.13 162.602 1153.94 162.602 1157.78Z" fill="#00AAF2"/>
<path d="M147.88 1142.2C143.517 1142.2 139.155 1142.13 134.793 1142.2C133.443 1142.2 132.889 1141.92 132.889 1140.37C132.958 1134.1 132.958 1127.94 132.889 1121.74C132.889 1120.53 133.304 1120.11 134.447 1119.9C143.379 1118.62 152.311 1117.38 161.244 1116.03C162.802 1115.82 162.525 1116.86 162.525 1117.72C162.525 1123.26 162.594 1128.91 162.525 1134.45C162.525 1136.49 162.455 1138.53 162.525 1140.57C162.594 1141.85 162.109 1142.2 160.897 1142.2C156.604 1142.13 152.242 1142.2 147.88 1142.2Z" fill="#00AAF2"/>
<path d="M119.007 1144.53H128.771C129.809 1144.53 130.259 1144.88 130.259 1145.95V1165.2C130.259 1166.31 129.775 1166.41 128.771 1166.31C122.296 1165.34 115.822 1164.41 109.383 1163.51C108.102 1163.3 107.686 1162.88 107.686 1161.53C107.756 1156.41 107.756 1151.28 107.686 1146.06C107.686 1144.77 108.032 1144.43 109.313 1144.43C112.603 1144.53 115.753 1144.53 119.007 1144.53Z" fill="#00AAF2"/>
<path d="M119.006 1142.21H109.381C108.17 1142.21 107.754 1141.79 107.754 1140.51C107.823 1135.46 107.823 1130.4 107.754 1125.31C107.754 1124.1 108.1 1123.69 109.381 1123.48C115.856 1122.65 122.33 1121.71 128.769 1120.68C130.258 1120.47 130.396 1120.95 130.396 1122.16V1140.58C130.396 1141.93 129.843 1142.14 128.631 1142.14C125.411 1142.14 122.157 1142.21 119.006 1142.21Z" fill="#00AAF2"/>
<path d="M204.221 470.504L103.281 474.254C99.9408 474.254 97.993 475.504 97.0729 478.716L76.1196 550.398C75.2533 553.445 71.1003 554.87 68.2113 554.87C65.3241 554.87 62.9614 552.508 62.9614 549.621V529.532V447.231V443.299V431.249C62.9614 427.209 66.2366 423.934 70.2762 423.934H122.248C124.188 423.934 126.048 424.704 127.419 426.076L142.498 441.155C143.87 442.526 145.731 443.297 147.67 443.297H196.906C200.946 443.297 204.221 446.572 204.221 450.612V453.111V470.504Z" fill="#E0AD31"/>
<path d="M68.2112 554.87C71.0983 554.87 72.5947 552.667 73.461 549.62L94.5832 475.931C95.5033 472.719 98.4404 470.506 101.783 470.506H231.211C234.302 470.506 236.522 473.476 235.65 476.442L214.72 547.565C213.775 550.929 211.702 554.899 207.415 554.87H68.2112Z" fill="#FFC843"/>
<g clip-path="url(#clip0_549_1243)">
<path class="white" d="M181.474 158.72C174.463 158.72 168.177 161.827 163.873 166.717L152.844 158.909C154.014 155.685 154.687 152.224 154.687 148.601C154.687 145.041 154.038 141.637 152.905 138.461L163.91 130.736C168.214 135.602 174.483 138.691 181.474 138.691C194.415 138.691 204.944 128.163 204.944 115.221C204.944 102.278 194.415 91.7504 181.474 91.7504C168.533 91.7504 158.004 102.278 158.004 115.221C158.004 117.537 158.354 119.771 158.982 121.887L147.97 129.616C143.369 123.909 136.746 119.924 129.199 118.708V105.436C139.831 103.203 147.841 93.7572 147.841 82.4703C147.841 69.528 137.312 59 124.371 59C111.43 59 100.901 69.528 100.901 82.4703C100.901 93.606 108.704 102.935 119.122 105.328V118.772C104.903 121.268 94.0554 133.677 94.0554 148.601C94.0554 163.597 105.011 176.052 119.332 178.463V192.659C108.807 194.973 100.901 204.359 100.901 215.571C100.901 228.513 111.43 239.041 124.371 239.041C137.312 239.041 147.841 228.513 147.841 215.571C147.841 204.359 139.935 194.973 129.41 192.659V178.463C136.658 177.242 143.216 173.427 147.862 167.731L158.965 175.589C158.349 177.686 158.004 179.898 158.004 182.191C158.004 195.133 168.533 205.661 181.474 205.661C194.415 205.661 204.944 195.133 204.944 182.191C204.944 169.248 194.415 158.72 181.474 158.72ZM181.474 103.841C187.749 103.841 192.853 108.947 192.853 115.221C192.853 121.494 187.749 126.6 181.474 126.6C175.199 126.6 170.095 121.494 170.095 115.221C170.095 108.947 175.199 103.841 181.474 103.841ZM112.991 82.4703C112.991 76.1969 118.096 71.0912 124.371 71.0912C130.646 71.0912 135.75 76.1969 135.75 82.4703C135.75 88.7438 130.646 93.8495 124.371 93.8495C118.096 93.8495 112.991 88.7438 112.991 82.4703ZM135.75 215.571C135.75 221.844 130.646 226.95 124.371 226.95C118.096 226.95 112.991 221.844 112.991 215.571C112.991 209.297 118.096 204.192 124.371 204.192C130.646 204.192 135.75 209.297 135.75 215.571ZM124.37 164.471C115.618 164.471 108.498 157.352 108.498 148.601C108.498 139.849 115.618 132.729 124.37 132.729C133.122 132.729 140.242 139.849 140.242 148.601C140.242 157.352 133.122 164.471 124.37 164.471ZM181.474 193.57C175.199 193.57 170.095 188.464 170.095 182.191C170.095 175.917 175.199 170.812 181.474 170.812C187.749 170.812 192.853 175.917 192.853 182.191C192.853 188.464 187.749 193.57 181.474 193.57Z" fill="#231F20"/>
</g>
<rect class="pouet" x="647" y="408" width="502" height="502" rx="45" fill="white" stroke="#C5C5C5" stroke-width="10"/>
<path class="white" d="M758.648 605.8H832.02V626.716H780.56V653.276H830.028V674.192H780.56V701.084H834.012V722H758.648V605.8ZM855.643 605.8H939.307V626.716H908.431V722H886.519V626.716H855.643V605.8ZM961.933 605.8H983.845V701.084H1036.63V722H961.933V605.8Z" fill="black"/>
<rect class="pouet" x="1503" y="408" width="502" height="502" rx="45" fill="white" stroke="#C5C5C5" stroke-width="10"/>
<path d="M1634.78 578.098H1833.25C1855.12 578.098 1874.65 568.069 1887.76 552.412C1860.42 516.904 1817.52 494 1769.24 494C1710.13 494 1659.05 528.313 1634.78 578.098Z" fill="#F0BF1A"/>
<path d="M1816.43 601.458H1625.77C1621.87 614.802 1619.73 628.902 1619.73 643.507C1619.73 658.112 1621.87 672.213 1625.77 685.556H1816.43C1839.32 685.556 1858.48 666.868 1858.48 643.507C1858.48 620.147 1839.79 601.458 1816.43 601.458Z" fill="#07A5DE"/>
<path d="M1888.27 733.953C1875.24 718.648 1855.87 708.917 1834.18 708.917H1634.78C1659.05 758.703 1710.13 793.014 1769.24 793.014C1817.81 793.014 1860.96 769.835 1888.27 733.953Z" fill="#3EBEB0"/>
<path d="M1625.77 601.458C1621.87 614.802 1619.73 628.902 1619.73 643.507C1619.73 658.112 1621.87 672.213 1625.77 685.556H1750.55C1753.82 672.941 1755.69 658.925 1755.69 643.507C1755.69 628.089 1753.82 614.073 1750.55 601.458H1625.77Z" fill="#231F20"/>
<path d="M1694.02 514.09C1668.79 529.041 1647.77 551.467 1634.68 578.098H1744.95C1733.73 552.401 1715.98 530.91 1694.02 514.09Z" fill="#D7A229"/>
<path d="M1698.69 775.261C1720.18 757.974 1737.47 735.08 1748.22 708.917H1634.69C1648.7 736.95 1671.13 760.31 1698.69 775.261Z" fill="#019B8F"/>
<path class="wire" d="M1154 659H1498" stroke="black" stroke-width="10"/>
<rect class="pouet" x="647" y="5" width="502" height="290" rx="45" fill="white" stroke="#C5C5C5" stroke-width="10"/>
<path class="white" d="M929.474 159.72C922.463 159.72 916.178 162.827 911.873 167.717L900.844 159.909C902.015 156.685 902.687 153.224 902.687 149.601C902.687 146.041 902.038 142.637 900.906 139.461L911.911 131.736C916.214 136.602 922.484 139.691 929.474 139.691C942.415 139.691 952.945 129.163 952.945 116.221C952.945 103.278 942.415 92.7504 929.474 92.7504C916.534 92.7504 906.004 103.278 906.004 116.221C906.004 118.537 906.354 120.771 906.982 122.887L895.97 130.616C891.37 124.909 884.746 120.924 877.2 119.708V106.436C887.831 104.203 895.842 94.7572 895.842 83.4703C895.842 70.528 885.312 60 872.371 60C859.431 60 848.901 70.528 848.901 83.4703C848.901 94.606 856.704 103.935 867.123 106.328V119.772C852.904 122.268 842.056 134.677 842.056 149.601C842.056 164.597 853.011 177.052 867.333 179.463V193.659C856.807 195.973 848.901 205.359 848.901 216.571C848.901 229.513 859.431 240.041 872.371 240.041C885.312 240.041 895.842 229.513 895.842 216.571C895.842 205.359 887.935 195.973 877.41 193.659V179.463C884.659 178.242 891.217 174.427 895.862 168.731L906.966 176.589C906.349 178.686 906.004 180.898 906.004 183.191C906.004 196.133 916.534 206.661 929.474 206.661C942.415 206.661 952.945 196.133 952.945 183.191C952.945 170.248 942.415 159.72 929.474 159.72ZM929.474 104.841C935.75 104.841 940.853 109.947 940.853 116.221C940.853 122.494 935.75 127.6 929.474 127.6C923.199 127.6 918.095 122.494 918.095 116.221C918.095 109.947 923.199 104.841 929.474 104.841ZM860.992 83.4703C860.992 77.1969 866.096 72.0912 872.371 72.0912C878.646 72.0912 883.75 77.1969 883.75 83.4703C883.75 89.7438 878.646 94.8495 872.371 94.8495C866.096 94.8495 860.992 89.7438 860.992 83.4703ZM883.75 216.571C883.75 222.844 878.646 227.95 872.371 227.95C866.096 227.95 860.992 222.844 860.992 216.571C860.992 210.297 866.096 205.192 872.371 205.192C878.646 205.192 883.75 210.297 883.75 216.571ZM872.37 165.471C863.618 165.471 856.499 158.352 856.499 149.601C856.499 140.849 863.618 133.729 872.37 133.729C881.122 133.729 888.242 140.849 888.242 149.601C888.242 158.352 881.122 165.471 872.37 165.471ZM929.474 194.57C923.199 194.57 918.095 189.464 918.095 183.191C918.095 176.917 923.199 171.812 929.474 171.812C935.75 171.812 940.853 176.917 940.853 183.191C940.853 189.464 935.75 194.57 929.474 194.57Z" fill="#231F20"/>
<path class="wire wire-reverse" d="M773 300V403" stroke="black" stroke-width="10"/>
<path class="wire" d="M1005 300V403" stroke="black" stroke-width="10"/>
<path class="wire" d="M300 150H421C448.614 150 471 172.386 471 200V609C471 636.614 493.386 659 521 659H642" stroke="black" stroke-width="10"/>
<path class="wire" d="M300 489H421C448.614 489 471 511.386 471 539V609C471 636.614 493.386 659 521 659H642" stroke="black" stroke-width="10"/>
<path class="wire" d="M300 1167H421C448.614 1167 471 1144.61 471 1117V709C471 681.386 493.386 659 521 659H642" stroke="black" stroke-width="10"/>
<path class="wire" d="M300 828H421C448.614 828 471 805.614 471 778V709C471 681.386 493.386 659 521 659H642" stroke="black" stroke-width="10"/>
<defs>
<clipPath id="clip0_549_1243">
<rect width="111" height="180.195" fill="white" transform="translate(94 59)"/>
</clipPath>
</defs>
</svg>
