<svg width="45" height="45" fill="none" xmlns="http://www.w3.org/2000/svg"><path fill="#fff" d="M0 0h45v45H0z"/><path d="M37 33.675h-4.395V19.774l-7.734 13.2c-.19.337-.459.592-.806.766-.335.173-.699.26-1.09.26-.38 0-.738-.087-1.074-.26a1.914 1.914 0 0 1-.772-.765l-7.767-13.201v13.9H9V12.14c0-.488.145-.922.436-1.302.302-.38.694-.635 1.175-.765.234-.054.47-.07.704-.049.235.011.459.06.671.147.224.076.425.19.604.341.18.141.33.315.453.521l9.932 16.75 9.931-16.75c.258-.412.61-.705 1.058-.879.458-.173.933-.2 1.425-.081.47.13.856.385 1.158.765.302.38.453.814.453 1.302v21.535Z" fill="#000"/></svg>