<svg width="45" height="45" viewBox="0 0 45 45" fill="none" xmlns="http://www.w3.org/2000/svg">
<rect width="45" height="45" fill="white"/>
<path d="M37 33.6745H32.6046V19.774L24.8706 32.9746C24.6804 33.3109 24.412 33.5659 24.0653 33.7396C23.7298 33.9132 23.3663 34 22.9748 34C22.5946 34 22.2367 33.9132 21.9011 33.7396C21.5768 33.5659 21.3196 33.3109 21.1294 32.9746L13.3619 19.774V33.6745H9V12.1401C9 11.6518 9.1454 11.2178 9.43619 10.838C9.73817 10.4582 10.1296 10.2032 10.6105 10.0729C10.8454 10.0187 11.0803 10.0024 11.3152 10.0241C11.55 10.035 11.7737 10.0838 11.9862 10.1706C12.2099 10.2466 12.4112 10.3605 12.5902 10.5124C12.7691 10.6535 12.9201 10.8271 13.0431 11.0333L22.9748 27.7822L32.9065 11.0333C33.1638 10.6209 33.5161 10.3279 33.9635 10.1543C34.422 9.98071 34.8973 9.95358 35.3895 10.0729C35.8592 10.2032 36.2451 10.4582 36.547 10.838C36.849 11.2178 37 11.6518 37 12.1401V33.6745Z" fill="black"/>
</svg>
