<svg width="0" height="0"><symbol id="github-2" viewBox="0 0 256 250" fill="none" xmlns="http://www.w3.org/2000/svg"><path fill="currentColor" d="M128.001 0C57.317 0 0 57.307 0 128.001c0 56.554 36.676 104.535 87.535 121.46 6.397 1.185 8.746-2.777 8.746-6.158 0-3.052-.12-13.135-.174-23.83-35.61 7.742-43.124-15.103-43.124-15.103-5.823-14.795-14.213-18.73-14.213-18.73-11.613-7.944.876-7.78.876-7.78 12.853.902 19.621 13.19 19.621 13.19 11.417 19.568 29.945 13.911 37.249 10.64 1.149-8.272 4.466-13.92 8.127-17.116-28.431-3.236-58.318-14.212-58.318-63.258 0-13.975 5-25.394 13.188-34.358-1.329-3.224-5.71-16.242 1.24-33.874 0 0 10.749-3.44 35.21 13.121 10.21-2.836 21.16-4.258 32.038-4.307 10.878.049 21.837 1.47 32.066 4.307 24.431-16.56 35.165-13.12 35.165-13.12 6.967 17.63 2.584 30.65 1.255 33.873 8.207 8.964 13.173 20.383 13.173 34.358 0 49.163-29.944 59.988-58.447 63.157 4.591 3.972 8.682 11.762 8.682 23.704 0 17.126-.148 30.91-.148 35.126 0 3.407 2.304 7.398 8.792 6.14C219.37 232.5 256 184.537 256 128.002 256 57.307 198.691 0 128.001 0Zm-80.06 182.34c-.282.636-1.283.827-2.194.39-.929-.417-1.45-1.284-1.15-1.922.276-.655 1.279-.838 2.205-.399.93.418 1.46 1.293 1.139 1.931Zm6.296 5.618c-.61.566-1.804.303-2.614-.591-.837-.892-.994-2.086-.375-2.66.63-.566 1.787-.301 2.626.591.838.903 1 2.088.363 2.66Zm4.32 7.188c-.785.545-2.067.034-2.86-1.104-.784-1.138-.784-2.503.017-3.05.795-.547 2.058-.055 2.861 1.075.782 1.157.782 2.522-.019 3.08Zm7.304 8.325c-.701.774-2.196.566-3.29-.49-1.119-1.032-1.43-2.496-.726-3.27.71-.776 2.213-.558 3.315.49 1.11 1.03 1.45 2.505.701 3.27Zm9.442 2.81c-.31 1.003-1.75 1.459-3.199 1.033-1.448-.439-2.395-1.613-2.103-2.626.301-1.01 1.747-1.484 3.207-1.028 1.446.436 2.396 1.602 2.095 2.622Zm10.744 1.193c.036 1.055-1.193 1.93-2.715 1.95-1.53.034-2.769-.82-2.786-1.86 0-1.065 1.202-1.932 2.733-1.958 1.522-.03 2.768.818 2.768 1.868Zm10.555-.405c.182 1.03-.875 2.088-2.387 2.37-1.485.271-2.861-.365-3.05-1.386-.184-1.056.893-2.114 2.376-2.387 1.514-.263 2.868.356 3.061 1.403Z"/></symbol><symbol id="github" xmlns="http://www.w3.org/2000/svg" viewBox="0 0 16 16" fill="currentColor"><path fill-rule="evenodd" d="M8 0C3.58 0 0 3.58 0 8c0 3.54 2.29 6.53 5.47 7.59.4.07.55-.17.55-.38 0-.19-.01-.82-.01-1.49-2.01.37-2.53-.49-2.69-.94-.09-.23-.48-.94-.82-1.13-.28-.15-.68-.52-.01-.53.63-.01 1.08.58 1.23.82.72 1.21 1.87.87 2.33.66.07-.52.28-.87.51-1.07-1.78-.2-3.64-.89-3.64-3.95 0-.87.31-1.59.82-2.15-.08-.2-.36-1.02.08-2.12 0 0 .67-.21 2.2.82.64-.18 1.32-.27 2-.27.68 0 1.36.09 2 .27 1.53-1.04 2.2-.82 2.2-.82.44 1.1.16 1.92.08 2.12.51.56.82 1.27.82 2.15 0 3.07-1.87 3.75-3.65 3.95.29.25.54.73.54 1.48 0 1.07-.01 1.93-.01 2.2 0 .21.15.46.55.38A8.013 8.013 0 0 0 16 8c0-4.42-3.58-8-8-8z"/></symbol><svg id="rss" viewBox="0 0 12 12" fill="currentColor" xmlns="http://www.w3.org/2000/svg"><path fill-rule="evenodd" clip-rule="evenodd" d="M1.002 1.585a.626.626 0 0 1 .666-.584 10.022 10.022 0 0 1 9.33 9.331.626.626 0 0 1-1.25.082 8.77 8.77 0 0 0-8.162-8.163A.626.626 0 0 1 1 1.585h.001Zm-.001 8.58a.835.835 0 1 1 1.67 0 .835.835 0 0 1-1.67 0Zm.7-4.969a.626.626 0 0 0-.149 1.244 4.595 4.595 0 0 1 4.008 4.007.626.626 0 1 0 1.245-.148A5.847 5.847 0 0 0 1.7 5.196h.002Z"/></svg><symbol id="arrow" stroke="currentColor" fill="currentColor" stroke-width="0" viewBox="0 0 20 20" xmlns="http://www.w3.org/2000/svg"><path fill-rule="evenodd" d="M10.293 3.293a1 1 0 0 1 1.414 0l6 6a1 1 0 0 1 0 1.414l-6 6a1 1 0 0 1-1.414-1.414L14.586 11H3a1 1 0 1 1 0-2h11.586l-4.293-4.293a1 1 0 0 1 0-1.414z" clip-rule="evenodd"/></symbol><symbol id="theme" fill="currentColor" xmlns="http://www.w3.org/2000/svg"><path d="M12 22c5.523 0 10-4.477 10-10S17.523 2 12 2 2 6.477 2 12s4.477 10 10 10zm0-1.5v-17a8.5 8.5 0 1 1 0 17z"/></symbol><symbol id="theme-light" fill="currentColor" xmlns="http://www.w3.org/2000/svg" viewBox="0 0 16 16"><path fill-rule="evenodd" d="M8 10.5a2.5 2.5 0 1 0 0-5 2.5 2.5 0 0 0 0 5zM8 12a4 4 0 1 0 0-8 4 4 0 0 0 0 8zM8 0a.75.75 0 0 1 .75.75v1.5a.75.75 0 0 1-1.5 0V.75A.75.75 0 0 1 8 0zm0 13a.75.75 0 0 1 .75.75v1.5a.75.75 0 0 1-1.5 0v-1.5A.75.75 0 0 1 8 13zM2.343 2.343a.75.75 0 0 1 1.061 0l1.06 1.061a.75.75 0 0 1-1.06 1.06l-1.06-1.06a.75.75 0 0 1 0-1.06zm9.193 9.193a.75.75 0 0 1 1.06 0l1.061 1.06a.75.75 0 0 1-1.06 1.061l-1.061-1.06a.75.75 0 0 1 0-1.061zM16 8a.75.75 0 0 1-.75.75h-1.5a.75.75 0 0 1 0-1.5h1.5A.75.75 0 0 1 16 8zM3 8a.75.75 0 0 1-.75.75H.75a.75.75 0 0 1 0-1.5h1.5A.75.75 0 0 1 3 8zm10.657-5.657a.75.75 0 0 1 0 1.061l-1.061 1.06a.75.75 0 1 1-1.06-1.06l1.06-1.06a.75.75 0 0 1 1.06 0zm-9.193 9.193a.75.75 0 0 1 0 1.06l-1.06 1.061a.75.75 0 1 1-1.061-1.06l1.06-1.061a.75.75 0 0 1 1.061 0z"/></symbol><symbol id="theme-dark" fill="currentColor" xmlns="http://www.w3.org/2000/svg" viewBox="0 0 16 16"><path fill-rule="evenodd" d="M9.598 1.591a.75.75 0 0 1 .785-.175 7 7 0 1 1-8.967 8.967.75.75 0 0 1 .961-.96 5.5 5.5 0 0 0 7.046-7.046.75.75 0 0 1 .175-.786zm1.616 1.945a7 7 0 0 1-7.678 7.678 5.5 5.5 0 1 0 7.678-7.678z"/></symbol><symbol id="theme-system" fill="currentColor" xmlns="http://www.w3.org/2000/svg" viewBox="0 0 16 16"><path fill-rule="evenodd" d="M1.75 2.5h12.5a.25.25 0 0 1 .25.25v7.5a.25.25 0 0 1-.25.25H1.75a.25.25 0 0 1-.25-.25v-7.5a.25.25 0 0 1 .25-.25zM14.25 1H1.75A1.75 1.75 0 0 0 0 2.75v7.5C0 11.216.784 12 1.75 12h3.727c-.1 1.041-.52 1.872-1.292 2.757A.75.75 0 0 0 4.75 16h6.5a.75.75 0 0 0 .565-1.243c-.772-.885-1.193-1.716-1.292-2.757h3.727A1.75 1.75 0 0 0 16 10.25v-7.5A1.75 1.75 0 0 0 14.25 1zM9.018 12H6.982a5.72 5.72 0 0 1-.765 2.5h3.566a5.72 5.72 0 0 1-.765-2.5z"/></symbol><symbol id="mastodon" viewBox="0 0 20 20" xmlns="http://www.w3.org/2000/svg" fill="currentColor"><path fill-rule="evenodd" d="M14.255 15.213c2.686-.298 5.025-1.84 5.32-3.247.463-2.218.424-5.413.424-5.413 0-4.33-3.047-5.599-3.047-5.599C15.415.297 12.777.021 10.036 0h-.068C7.228.02 4.59.297 3.054.954c0 0-3.048 1.27-3.048 5.6l-.003.825C0 8.177-.006 9.063.02 9.987c.11 4.235.834 8.408 5.04 9.444 1.939.478 3.604.578 4.945.51 2.431-.126 3.796-.808 3.796-.808l-.08-1.643s-1.738.51-3.69.448c-1.933-.062-3.974-.194-4.286-2.404a4.225 4.225 0 0 1-.044-.62s1.898.433 4.304.535c1.47.063 2.85-.08 4.25-.236Zm2.15-3.081V6.889c0-1.071-.294-1.923-.882-2.553-.607-.63-1.402-.953-2.389-.953-1.142 0-2.007.409-2.578 1.226L10 5.476l-.556-.867c-.571-.817-1.436-1.226-2.578-1.226-.987 0-1.782.323-2.389.953-.589.63-.882 1.482-.882 2.553v5.243h2.232V7.043c0-1.073.484-1.617 1.454-1.617 1.073 0 1.61.646 1.61 1.923v2.785h2.218V7.35c0-1.277.537-1.923 1.61-1.923.97 0 1.454.544 1.454 1.617v5.089h2.232Z" clip-rule="evenodd"/></symbol></svg>