<svg width="0" height="0"><symbol xmlns="http://www.w3.org/2000/svg" id="github-2" fill="none" viewBox="0 0 256 250"><path fill="currentColor" d="M128.001 0C57.317 0 0 57.307 0 128.001c0 56.554 36.676 104.535 87.535 121.46 6.397 1.185 8.746-2.777 8.746-6.158 0-3.052-.12-13.135-.174-23.83-35.61 7.742-43.124-15.103-43.124-15.103-5.823-14.795-14.213-18.73-14.213-18.73-11.613-7.944.876-7.78.876-7.78 12.853.902 19.621 13.19 19.621 13.19 11.417 19.568 29.945 13.911 37.249 10.64 1.149-8.272 4.466-13.92 8.127-17.116-28.431-3.236-58.318-14.212-58.318-63.258 0-13.975 5-25.394 13.188-34.358-1.329-3.224-5.71-16.242 1.24-33.874 0 0 10.749-3.44 35.21 13.121 10.21-2.836 21.16-4.258 32.038-4.307 10.878.049 21.837 1.47 32.066 4.307 24.431-16.56 35.165-13.12 35.165-13.12 6.967 17.63 2.584 30.65 1.255 33.873 8.207 8.964 13.173 20.383 13.173 34.358 0 49.163-29.944 59.988-58.447 63.157 4.591 3.972 8.682 11.762 8.682 23.704 0 17.126-.148 30.91-.148 35.126 0 3.407 2.304 7.398 8.792 6.14C219.37 232.5 256 184.537 256 128.002 256 57.307 198.691 0 128.001 0Zm-80.06 182.34c-.282.636-1.283.827-2.194.39-.929-.417-1.45-1.284-1.15-1.922.276-.655 1.279-.838 2.205-.399.93.418 1.46 1.293 1.139 1.931Zm6.296 5.618c-.61.566-1.804.303-2.614-.591-.837-.892-.994-2.086-.375-2.66.63-.566 1.787-.301 2.626.591.838.903 1 2.088.363 2.66Zm4.32 7.188c-.785.545-2.067.034-2.86-1.104-.784-1.138-.784-2.503.017-3.05.795-.547 2.058-.055 2.861 1.075.782 1.157.782 2.522-.019 3.08Zm7.304 8.325c-.701.774-2.196.566-3.29-.49-1.119-1.032-1.43-2.496-.726-3.27.71-.776 2.213-.558 3.315.49 1.11 1.03 1.45 2.505.701 3.27Zm9.442 2.81c-.31 1.003-1.75 1.459-3.199 1.033-1.448-.439-2.395-1.613-2.103-2.626.301-1.01 1.747-1.484 3.207-1.028 1.446.436 2.396 1.602 2.095 2.622Zm10.744 1.193c.036 1.055-1.193 1.93-2.715 1.95-1.53.034-2.769-.82-2.786-1.86 0-1.065 1.202-1.932 2.733-1.958 1.522-.03 2.768.818 2.768 1.868Zm10.555-.405c.182 1.03-.875 2.088-2.387 2.37-1.485.271-2.861-.365-3.05-1.386-.184-1.056.893-2.114 2.376-2.387 1.514-.263 2.868.356 3.061 1.403Z"/></symbol><symbol xmlns="http://www.w3.org/2000/svg" id="github" fill="currentColor" viewBox="0 0 16 16"><path fill-rule="evenodd" d="M8 0C3.58 0 0 3.58 0 8c0 3.54 2.29 6.53 5.47 7.59.4.07.55-.17.55-.38 0-.19-.01-.82-.01-1.49-2.01.37-2.53-.49-2.69-.94-.09-.23-.48-.94-.82-1.13-.28-.15-.68-.52-.01-.53.63-.01 1.08.58 1.23.82.72 1.21 1.87.87 2.33.66.07-.52.28-.87.51-1.07-1.78-.2-3.64-.89-3.64-3.95 0-.87.31-1.59.82-2.15-.08-.2-.36-1.02.08-2.12 0 0 .67-.21 2.2.82.64-.18 1.32-.27 2-.27.68 0 1.36.09 2 .27 1.53-1.04 2.2-.82 2.2-.82.44 1.1.16 1.92.08 2.12.51.56.82 1.27.82 2.15 0 3.07-1.87 3.75-3.65 3.95.29.25.54.73.54 1.48 0 1.07-.01 1.93-.01 2.2 0 .21.15.46.55.38A8.013 8.013 0 0 0 16 8c0-4.42-3.58-8-8-8z"/></symbol><svg xmlns="http://www.w3.org/2000/svg" id="rss" fill="currentColor" viewBox="0 0 12 12"><path fill-rule="evenodd" d="M1.002 1.585a.626.626 0 0 1 .666-.584 10.022 10.022 0 0 1 9.33 9.331.626.626 0 0 1-1.25.082 8.77 8.77 0 0 0-8.162-8.163A.626.626 0 0 1 1 1.585h.001Zm-.001 8.58a.835.835 0 1 1 1.67 0 .835.835 0 0 1-1.67 0Zm.7-4.969a.626.626 0 0 0-.149 1.244 4.595 4.595 0 0 1 4.008 4.007.626.626 0 1 0 1.245-.148A5.847 5.847 0 0 0 1.7 5.196h.002Z" clip-rule="evenodd"/></svg><symbol xmlns="http://www.w3.org/2000/svg" id="arrow" fill="currentColor" stroke="currentColor" stroke-width="0" viewBox="0 0 20 20"><path fill-rule="evenodd" d="M10.293 3.293a1 1 0 0 1 1.414 0l6 6a1 1 0 0 1 0 1.414l-6 6a1 1 0 0 1-1.414-1.414L14.586 11H3a1 1 0 1 1 0-2h11.586l-4.293-4.293a1 1 0 0 1 0-1.414z" clip-rule="evenodd"/></symbol><symbol xmlns="http://www.w3.org/2000/svg" id="theme" fill="currentColor"><path d="M12 22c5.523 0 10-4.477 10-10S17.523 2 12 2 2 6.477 2 12s4.477 10 10 10zm0-1.5v-17a8.5 8.5 0 1 1 0 17z"/></symbol><symbol xmlns="http://www.w3.org/2000/svg" id="theme-light" fill="currentColor" viewBox="0 0 16 16"><path fill-rule="evenodd" d="M8 10.5a2.5 2.5 0 1 0 0-5 2.5 2.5 0 0 0 0 5zM8 12a4 4 0 1 0 0-8 4 4 0 0 0 0 8zM8 0a.75.75 0 0 1 .75.75v1.5a.75.75 0 0 1-1.5 0V.75A.75.75 0 0 1 8 0zm0 13a.75.75 0 0 1 .75.75v1.5a.75.75 0 0 1-1.5 0v-1.5A.75.75 0 0 1 8 13zM2.343 2.343a.75.75 0 0 1 1.061 0l1.06 1.061a.75.75 0 0 1-1.06 1.06l-1.06-1.06a.75.75 0 0 1 0-1.06zm9.193 9.193a.75.75 0 0 1 1.06 0l1.061 1.06a.75.75 0 0 1-1.06 1.061l-1.061-1.06a.75.75 0 0 1 0-1.061zM16 8a.75.75 0 0 1-.75.75h-1.5a.75.75 0 0 1 0-1.5h1.5A.75.75 0 0 1 16 8zM3 8a.75.75 0 0 1-.75.75H.75a.75.75 0 0 1 0-1.5h1.5A.75.75 0 0 1 3 8zm10.657-5.657a.75.75 0 0 1 0 1.061l-1.061 1.06a.75.75 0 1 1-1.06-1.06l1.06-1.06a.75.75 0 0 1 1.06 0zm-9.193 9.193a.75.75 0 0 1 0 1.06l-1.06 1.061a.75.75 0 1 1-1.061-1.06l1.06-1.061a.75.75 0 0 1 1.061 0z"/></symbol><symbol xmlns="http://www.w3.org/2000/svg" id="theme-dark" fill="currentColor" viewBox="0 0 16 16"><path fill-rule="evenodd" d="M9.598 1.591a.75.75 0 0 1 .785-.175 7 7 0 1 1-8.967 8.967.75.75 0 0 1 .961-.96 5.5 5.5 0 0 0 7.046-7.046.75.75 0 0 1 .175-.786zm1.616 1.945a7 7 0 0 1-7.678 7.678 5.5 5.5 0 1 0 7.678-7.678z"/></symbol><symbol xmlns="http://www.w3.org/2000/svg" id="theme-system" fill="currentColor" viewBox="0 0 16 16"><path fill-rule="evenodd" d="M1.75 2.5h12.5a.25.25 0 0 1 .25.25v7.5a.25.25 0 0 1-.25.25H1.75a.25.25 0 0 1-.25-.25v-7.5a.25.25 0 0 1 .25-.25zM14.25 1H1.75A1.75 1.75 0 0 0 0 2.75v7.5C0 11.216.784 12 1.75 12h3.727c-.1 1.041-.52 1.872-1.292 2.757A.75.75 0 0 0 4.75 16h6.5a.75.75 0 0 0 .565-1.243c-.772-.885-1.193-1.716-1.292-2.757h3.727A1.75 1.75 0 0 0 16 10.25v-7.5A1.75 1.75 0 0 0 14.25 1zM9.018 12H6.982a5.72 5.72 0 0 1-.765 2.5h3.566a5.72 5.72 0 0 1-.765-2.5z"/></symbol><symbol xmlns="http://www.w3.org/2000/svg" id="mastodon" fill="currentColor" viewBox="0 0 20 20"><path fill-rule="evenodd" d="M14.255 15.213c2.686-.298 5.025-1.84 5.32-3.247.463-2.218.424-5.413.424-5.413 0-4.33-3.047-5.599-3.047-5.599C15.415.297 12.777.021 10.036 0h-.068C7.228.02 4.59.297 3.054.954c0 0-3.048 1.27-3.048 5.6l-.003.825C0 8.177-.006 9.063.02 9.987c.11 4.235.834 8.408 5.04 9.444 1.939.478 3.604.578 4.945.51 2.431-.126 3.796-.808 3.796-.808l-.08-1.643s-1.738.51-3.69.448c-1.933-.062-3.974-.194-4.286-2.404a4.225 4.225 0 0 1-.044-.62s1.898.433 4.304.535c1.47.063 2.85-.08 4.25-.236Zm2.15-3.081V6.889c0-1.071-.294-1.923-.882-2.553-.607-.63-1.402-.953-2.389-.953-1.142 0-2.007.409-2.578 1.226L10 5.476l-.556-.867c-.571-.817-1.436-1.226-2.578-1.226-.987 0-1.782.323-2.389.953-.589.63-.882 1.482-.882 2.553v5.243h2.232V7.043c0-1.073.484-1.617 1.454-1.617 1.073 0 1.61.646 1.61 1.923v2.785h2.218V7.35c0-1.277.537-1.923 1.61-1.923.97 0 1.454.544 1.454 1.617v5.089h2.232Z" clip-rule="evenodd"/></symbol><symbol xmlns="http://www.w3.org/2000/svg" id="root-me" fill="none" viewBox="0 0 20 20"><path fill="currentColor" d="M10.191 15.987c-.008-.008-.016-.016-.016-.024l-.016-.015c-.008 0-.008-.008-.016-.008-.008-.008-.016-.008-.024-.016-.008 0-.016-.008-.024-.008s-.015-.008-.015-.008c-.008 0-.016 0-.024-.008H9.96c-.008 0-.016 0-.024.008-.008 0-.016.008-.016.008-.008 0-.016.008-.023.008-.008 0-.016.008-.024.016-.008 0-.008.008-.016.008l-.016.015-.016.016-.645.803a.23.23 0 0 0 .183.373.238.238 0 0 0 .183-.087l.008-.008a.585.585 0 0 1 .915 0l.008.008a.238.238 0 0 0 .327.04.23.23 0 0 0 .04-.326l-.653-.795ZM9.117 2.416a.612.612 0 0 0-.613.58l-1.218.445a.162.162 0 0 0-.111.15v.771h-.98a.613.613 0 1 0-.589.77.606.606 0 0 0 .59-.452h1.138a.16.16 0 0 0 .16-.159v-.818l1.073-.397c.104.198.31.333.542.333.334 0 .612-.27.612-.612a.606.606 0 0 0-.604-.611Z"/><path fill="#9D9D9C" d="M7.827 13.794a9.533 9.533 0 0 1-.573-.222c-.135-.064-.27-.127-.398-.191.303.302 1.035.842 1.823.858a.726.726 0 0 0 .12-.183 6.924 6.924 0 0 1-.97-.262Z"/><path fill="currentColor" d="M17.815 8.248c0-.374-.024-.747-.08-1.105 0-.023-.007-.047-.007-.071-.486-3.155-2.881-5.745-6.033-6.436a.801.801 0 1 0-.955.953v2.932c0 .048.024.096.064.127a.16.16 0 0 0 .087.024c.016 0 .04 0 .056-.008l1.178-.445a.59.59 0 0 0 .342.239V5.84c-.597.731-1.337 1.39-2.125 1.979l-.9-2.082a.608.608 0 0 0-.333-1.12.613.613 0 1 0 0 1.223h.032l.939 2.17a20.53 20.53 0 0 1-1.672 1.08l-2.674-.802a.133.133 0 0 0-.095.008l-.796.31a.603.603 0 0 0-.493-.247.613.613 0 1 0 .612.612c0-.024-.008-.048-.008-.072l.748-.294 2.332.7a27.967 27.967 0 0 1-4.066 1.86l-.144.047a.764.764 0 0 0-.461-.151h-.024a7.209 7.209 0 0 1-.565-2.805c0-.477.048-.946.135-1.399h3.494a.613.613 0 1 0 .589-.77.606.606 0 0 0-.59.453h-3.42A7.255 7.255 0 0 1 8.37 1.216c.143.23.397.39.684.39a.8.8 0 0 0 .804-.803A.801.801 0 0 0 9.053 0a.81.81 0 0 0-.788.636c-3.51.794-6.08 3.949-6.08 7.604 0 1.04.207 2.082.613 3.035a.808.808 0 0 0 .31 1.335v3.131c0 .056.016.111.048.159l.175.12 2.38 1.676v2.002c0 .167.135.302.302.302h7.958a.302.302 0 0 0 .303-.302v-2.002l2.387-1.677.175-.127a.286.286 0 0 0 .048-.159v-3.155a.798.798 0 0 0 .294-1.279 7.517 7.517 0 0 0 .637-3.051Zm-9.04-7.7A.386.386 0 0 1 9.06.421a.39.39 0 1 1-.215.715.396.396 0 0 1-.175-.318c0-.11.04-.206.103-.27Zm1.75.255a.39.39 0 0 1 .39-.39.39.39 0 0 1 .279.12.387.387 0 0 1-.287.65.377.377 0 0 1-.382-.38Zm1.496 3.059c0 .024.008.04.008.055l-.97.366V1.58a.771.771 0 0 0 .549-.381A7.06 7.06 0 0 1 13.963 2.2c-.008 1.176-.461 2.257-1.178 3.234V4.45a.606.606 0 0 0 .454-.588.613.613 0 0 0-.613-.612.616.616 0 0 0-.605.612Zm-8.65 8.375a.419.419 0 0 1-.255-.096.392.392 0 0 1-.135-.286.37.37 0 0 1 .024-.135.39.39 0 0 1 .358-.246c.071 0 .135.024.19.056.112.063.192.19.192.333a.382.382 0 0 1-.056.191.346.346 0 0 1-.318.183Zm13.529-.151a.401.401 0 0 1-.302.15.39.39 0 0 1-.279-.118.387.387 0 0 1-.104-.263.37.37 0 0 1 .255-.357.372.372 0 0 1 .135-.024.4.4 0 0 1 .383.31.246.246 0 0 1 .007.08.555.555 0 0 1-.095.222Zm-.239-1.033h-.072a.801.801 0 0 0-.66 1.26.791.791 0 0 0 .382.29v2.923l-2.507 1.764a.305.305 0 0 0-.127.247v1.684c0 .096-.08.175-.175.175h-.931a.177.177 0 0 1-.175-.175v-.604c0-.159-.112-.302-.271-.317a.305.305 0 0 0-.334.302v.627c0 .096-.08.175-.175.175h-1.139a.177.177 0 0 1-.175-.175v-.93c0-.158-.111-.301-.27-.317a.306.306 0 0 0-.334.302v.953c0 .096-.08.175-.176.175H8.384a.177.177 0 0 1-.175-.175v-.62c0-.159-.111-.302-.27-.317a.305.305 0 0 0-.334.302v.627c0 .096-.08.175-.176.175H6.5a.177.177 0 0 1-.176-.175v-1.684a.305.305 0 0 0-.127-.247l-2.499-1.764v-2.956a.8.8 0 0 0 .47-.73.874.874 0 0 0-.016-.144 28.1 28.1 0 0 0 5.133-2.463c3.23-2.01 5.021-4.29 5.228-6.635a7.28 7.28 0 0 1 2.635 4.561c-.04 3.981-6.988 6.437-7.06 6.46-.015.008-.055.016-.087.032l-.27-.048c-.064-.015-.136-.023-.2-.04a4.27 4.27 0 0 1-.31-.063c-.016-.008-.04-.008-.056-.008l-.119-.024c-.048-.008-.096-.024-.143-.031a3.907 3.907 0 0 1-.327-.08c-.198-.048-.39-.103-.58-.15-.184-.056-.375-.104-.55-.16H7.43a5.565 5.565 0 0 1-.39-.127.778.778 0 0 0-.127-.04 1.902 1.902 0 0 0-.175-.055 2.393 2.393 0 0 1-.286-.104h-.008a4.956 4.956 0 0 1-.382-.143l-.303-.119c-.08-.04-.151-.063-.19-.087-.049-.024-.072-.032-.072-.032s.015.024.047.056c.046.057.097.11.152.159.08.08.165.153.254.222.115.088.231.173.35.254h.008c-.047.16-.08.334-.08.509a1.661 1.661 0 0 0 3.215.588l.248.024c.143.008.278.008.405.008.008 0 .016.008.024.008l1.345 1.366c.343.342.876.398 1.274.135l2.1-1.176a.661.661 0 0 0 .303-.548v-2.415c.812-.644 1.544-1.407 2.022-2.273a6.777 6.777 0 0 1-.502 1.788Zm-7.863 3.003c-.032.064-.08.128-.12.183a1.05 1.05 0 0 1-1.59 0 1.023 1.023 0 0 1-.247-.675c0-.064.007-.12.015-.183.128.064.263.127.398.19a7.786 7.786 0 0 0 1.544.485Z"/></symbol><symbol xmlns="http://www.w3.org/2000/svg" id="duration" viewBox="0 0 512 512"><path fill="none" stroke="currentColor" stroke-miterlimit="10" stroke-width="32" d="M256 64C150 64 64 150 64 256s86 192 192 192 192-86 192-192S362 64 256 64z"/><path fill="none" stroke="currentColor" stroke-linecap="round" stroke-linejoin="round" stroke-width="32" d="M256 128v144h96"/></symbol><symbol xmlns="http://www.w3.org/2000/svg" id="leaf" viewBox="0 0 512 512"><path fill="none" stroke="currentColor" stroke-linecap="round" stroke-linejoin="round" stroke-width="32" d="M321.89 171.42C233 114 141 155.22 56 65.22c-19.8-21-8.3 235.5 98.1 332.7 77.79 71 197.9 63.08 238.4-5.92s18.28-163.17-70.61-220.58zM173 253c86 81 175 129 292 147"/></symbol></svg>