<svg width="0" height="0"><symbol viewBox="0 0 256 250" fill="none" xmlns="http://www.w3.org/2000/svg" id="github"><path fill="currentColor" d="M128.001 0C57.317 0 0 57.307 0 128.001c0 56.554 36.676 104.535 87.535 121.46 6.397 1.185 8.746-2.777 8.746-6.158 0-3.052-.12-13.135-.174-23.83-35.61 7.742-43.124-15.103-43.124-15.103-5.823-14.795-14.213-18.73-14.213-18.73-11.613-7.944.876-7.78.876-7.78 12.853.902 19.621 13.19 19.621 13.19 11.417 19.568 29.945 13.911 37.249 10.64 1.149-8.272 4.466-13.92 8.127-17.116-28.431-3.236-58.318-14.212-58.318-63.258 0-13.975 5-25.394 13.188-34.358-1.329-3.224-5.71-16.242 1.24-33.874 0 0 10.749-3.44 35.21 13.121 10.21-2.836 21.16-4.258 32.038-4.307 10.878.049 21.837 1.47 32.066 4.307 24.431-16.56 35.165-13.12 35.165-13.12 6.967 17.63 2.584 30.65 1.255 33.873 8.207 8.964 13.173 20.383 13.173 34.358 0 49.163-29.944 59.988-58.447 63.157 4.591 3.972 8.682 11.762 8.682 23.704 0 17.126-.148 30.91-.148 35.126 0 3.407 2.304 7.398 8.792 6.14C219.37 232.5 256 184.537 256 128.002 256 57.307 198.691 0 128.001 0Zm-80.06 182.34c-.282.636-1.283.827-2.194.39-.929-.417-1.45-1.284-1.15-1.922.276-.655 1.279-.838 2.205-.399.93.418 1.46 1.293 1.139 1.931Zm6.296 5.618c-.61.566-1.804.303-2.614-.591-.837-.892-.994-2.086-.375-2.66.63-.566 1.787-.301 2.626.591.838.903 1 2.088.363 2.66Zm4.32 7.188c-.785.545-2.067.034-2.86-1.104-.784-1.138-.784-2.503.017-3.05.795-.547 2.058-.055 2.861 1.075.782 1.157.782 2.522-.019 3.08Zm7.304 8.325c-.701.774-2.196.566-3.29-.49-1.119-1.032-1.43-2.496-.726-3.27.71-.776 2.213-.558 3.315.49 1.11 1.03 1.45 2.505.701 3.27Zm9.442 2.81c-.31 1.003-1.75 1.459-3.199 1.033-1.448-.439-2.395-1.613-2.103-2.626.301-1.01 1.747-1.484 3.207-1.028 1.446.436 2.396 1.602 2.095 2.622Zm10.744 1.193c.036 1.055-1.193 1.93-2.715 1.95-1.53.034-2.769-.82-2.786-1.86 0-1.065 1.202-1.932 2.733-1.958 1.522-.03 2.768.818 2.768 1.868Zm10.555-.405c.182 1.03-.875 2.088-2.387 2.37-1.485.271-2.861-.365-3.05-1.386-.184-1.056.893-2.114 2.376-2.387 1.514-.263 2.868.356 3.061 1.403Z"/></symbol><symbol xmlns="http://www.w3.org/2000/svg" id="rss" viewBox="0 0 8 8"><rect width="8" height="8" rx="1.5" fill="orange"/><circle fill="#fff" cx="2" cy="6" r="1"/><path class="symbol" fill="#fff" d="M1 4a3 3 0 0 1 3 3h1a4 4 0 0 0-4-4z"/><path class="symbol" fill="#fff" d="M1 2a5 5 0 0 1 5 5h1a6 6 0 0 0-6-6z"/></symbol><symbol xmlns="http://www.w3.org/2000/svg" id="rss-2" viewBox="0 -256 1792 1792"><path d="M384 192q0-80-56-136T192 0Q112 0 56 56T0 192q0 80 56 136t136 56q80 0 136-56t56-136zM896 69q2-28-17-48-18-21-47-21H697q-25 0-43 16.5T634 58q-22 229-184.5 391.5T58 634q-25 2-41.5 20T0 697v135q0 29 21 47 17 17 43 17h5q160-13 306-80.5T634 634q114-113 181.5-259T896 69zm512-2q2-27-18-47-18-20-46-20h-143q-26 0-44.5 17.5T1137 60q-12 215-101 408.5t-231.5 336Q662 947 468.5 1036T60 1138q-25 1-42.5 19.5T0 1201v143q0 28 20 46 18 18 44 18h3q262-13 501.5-120T994 994q187-186 294-425.5T1408 67z" style="fill:currentColor" transform="matrix(1 0 0 -1 212.61 1346.17)"/></symbol></svg>