<svg width="0" height="0">
  <symbol id="github-2" viewBox="0 0 256 250" fill="none" xmlns="http://www.w3.org/2000/svg">
      <path fill="currentColor" d="M128.00106,0 C57.3172926,0 0,57.3066942 0,128.00106 C0,184.555281 36.6761997,232.535542 87.534937,249.460899 C93.9320223,250.645779 96.280588,246.684165 96.280588,243.303333 C96.280588,240.251045 96.1618878,230.167899 96.106777,219.472176 C60.4967585,227.215235 52.9826207,204.369712 52.9826207,204.369712 C47.1599584,189.574598 38.770408,185.640538 38.770408,185.640538 C27.1568785,177.696113 39.6458206,177.859325 39.6458206,177.859325 C52.4993419,178.762293 59.267365,191.04987 59.267365,191.04987 C70.6837675,210.618423 89.2115753,204.961093 96.5158685,201.690482 C97.6647155,193.417512 100.981959,187.77078 104.642583,184.574357 C76.211799,181.33766 46.324819,170.362144 46.324819,121.315702 C46.324819,107.340889 51.3250588,95.9223682 59.5132437,86.9583937 C58.1842268,83.7344152 53.8029229,70.715562 60.7532354,53.0843636 C60.7532354,53.0843636 71.5019501,49.6441813 95.9626412,66.2049595 C106.172967,63.368876 117.123047,61.9465949 128.00106,61.8978432 C138.879073,61.9465949 149.837632,63.368876 160.067033,66.2049595 C184.49805,49.6441813 195.231926,53.0843636 195.231926,53.0843636 C202.199197,70.715562 197.815773,83.7344152 196.486756,86.9583937 C204.694018,95.9223682 209.660343,107.340889 209.660343,121.315702 C209.660343,170.478725 179.716133,181.303747 151.213281,184.472614 C155.80443,188.444828 159.895342,196.234518 159.895342,208.176593 C159.895342,225.303317 159.746968,239.087361 159.746968,243.303333 C159.746968,246.709601 162.05102,250.70089 168.53925,249.443941 C219.370432,232.499507 256,184.536204 256,128.00106 C256,57.3066942 198.691187,0 128.00106,0 Z M47.9405593,182.340212 C47.6586465,182.976105 46.6581745,183.166873 45.7467277,182.730227 C44.8183235,182.312656 44.2968914,181.445722 44.5978808,180.80771 C44.8734344,180.152739 45.876026,179.97045 46.8023103,180.409216 C47.7328342,180.826786 48.2627451,181.702199 47.9405593,182.340212 Z M54.2367892,187.958254 C53.6263318,188.524199 52.4329723,188.261363 51.6232682,187.366874 C50.7860088,186.474504 50.6291553,185.281144 51.2480912,184.70672 C51.8776254,184.140775 53.0349512,184.405731 53.8743302,185.298101 C54.7115892,186.201069 54.8748019,187.38595 54.2367892,187.958254 Z M58.5562413,195.146347 C57.7719732,195.691096 56.4895886,195.180261 55.6968417,194.042013 C54.9125733,192.903764 54.9125733,191.538713 55.713799,190.991845 C56.5086651,190.444977 57.7719732,190.936735 58.5753181,192.066505 C59.3574669,193.22383 59.3574669,194.58888 58.5562413,195.146347 Z M65.8613592,203.471174 C65.1597571,204.244846 63.6654083,204.03712 62.5716717,202.981538 C61.4524999,201.94927 61.1409122,200.484596 61.8446341,199.710926 C62.5547146,198.935137 64.0575422,199.15346 65.1597571,200.200564 C66.2704506,201.230712 66.6095936,202.705984 65.8613592,203.471174 Z M75.3025151,206.281542 C74.9930474,207.284134 73.553809,207.739857 72.1039724,207.313809 C70.6562556,206.875043 69.7087748,205.700761 70.0012857,204.687571 C70.302275,203.678621 71.7478721,203.20382 73.2083069,203.659543 C74.6539041,204.09619 75.6035048,205.261994 75.3025151,206.281542 Z M86.046947,207.473627 C86.0829806,208.529209 84.8535871,209.404622 83.3316829,209.4237 C81.8013,209.457614 80.563428,208.603398 80.5464708,207.564772 C80.5464708,206.498591 81.7483088,205.631657 83.2786917,205.606221 C84.8005962,205.576546 86.046947,206.424403 86.046947,207.473627 Z M96.6021471,207.069023 C96.7844366,208.099171 95.7267341,209.156872 94.215428,209.438785 C92.7295577,209.710099 91.3539086,209.074206 91.1652603,208.052538 C90.9808515,206.996955 92.0576306,205.939253 93.5413813,205.66582 C95.054807,205.402984 96.4092596,206.021919 96.6021471,207.069023 Z"/>
  </symbol>
  <symbol id="github" xmlns="http://www.w3.org/2000/svg" viewBox="0 0 16 16" fill="currentColor"><path fill-rule="evenodd" d="M8 0C3.58 0 0 3.58 0 8c0 3.54 2.29 6.53 5.47 7.59.4.07.55-.17.55-.38 0-.19-.01-.82-.01-1.49-2.01.37-2.53-.49-2.69-.94-.09-.23-.48-.94-.82-1.13-.28-.15-.68-.52-.01-.53.63-.01 1.08.58 1.23.82.72 1.21 1.87.87 2.33.66.07-.52.28-.87.51-1.07-1.78-.2-3.64-.89-3.64-3.95 0-.87.31-1.59.82-2.15-.08-.2-.36-1.02.08-2.12 0 0 .67-.21 2.2.82.64-.18 1.32-.27 2-.27.68 0 1.36.09 2 .27 1.53-1.04 2.2-.82 2.2-.82.44 1.1.16 1.92.08 2.12.51.56.82 1.27.82 2.15 0 3.07-1.87 3.75-3.65 3.95.29.25.54.73.54 1.48 0 1.07-.01 1.93-.01 2.2 0 .21.15.46.55.38A8.013 8.013 0 0016 8c0-4.42-3.58-8-8-8z"></path></symbol>
  <svg id="rss" viewBox="0 0 12 12" fill="currentColor" xmlns="http://www.w3.org/2000/svg">
    <path fill-rule="evenodd" clip-rule="evenodd" d="M1.0022 1.58497C1.01314 1.41936 1.08938 1.26486 1.21416 1.15542C1.33894 1.04598 1.50206 0.990557 1.66769 1.00132C6.67009 1.3303 10.6697 5.32989 10.9987 10.3323C11.0095 10.498 10.9541 10.6613 10.8445 10.7862C10.735 10.9111 10.5803 10.9873 10.4146 10.9982C10.2488 11.009 10.0856 10.9536 9.96067 10.8441C9.83579 10.7345 9.75954 10.5799 9.74869 10.4141C9.60668 8.29594 8.70108 6.30119 7.19994 4.80004C5.69879 3.2989 3.70404 2.3933 1.58586 2.25129C1.50371 2.24599 1.42341 2.22453 1.34956 2.18816C1.2757 2.15179 1.20975 2.10121 1.15546 2.03932C1.10117 1.97744 1.05962 1.90545 1.03318 1.82749C1.00674 1.74953 0.995929 1.66712 1.00137 1.58497H1.0022ZM1.00053 10.1645C1.00053 9.94301 1.08851 9.73063 1.2451 9.57403C1.40169 9.41744 1.61407 9.32947 1.83552 9.32947C2.05697 9.32947 2.26935 9.41744 2.42594 9.57403C2.58254 9.73063 2.67051 9.94301 2.67051 10.1645C2.67051 10.3859 2.58254 10.5983 2.42594 10.7549C2.26935 10.9115 2.05697 10.9994 1.83552 10.9994C1.61407 10.9994 1.40169 10.9115 1.2451 10.7549C1.08851 10.5983 1.00053 10.3859 1.00053 10.1645V10.1645ZM1.70192 5.19629C1.53875 5.17986 1.37565 5.2281 1.24766 5.33063C1.11966 5.43316 1.037 5.58181 1.01743 5.74464C0.997853 5.90746 1.04293 6.07146 1.14297 6.20141C1.24302 6.33136 1.39004 6.41687 1.55246 6.43959C3.64744 6.69008 5.3099 8.35254 5.56039 10.4475C5.5801 10.6125 5.66454 10.7629 5.79514 10.8656C5.92574 10.9683 6.09179 11.015 6.25677 10.9953C6.42176 10.9756 6.57215 10.8911 6.67487 10.7605C6.7776 10.6299 6.82423 10.4639 6.80452 10.2989C6.64729 8.99991 6.05892 7.79121 5.13355 6.86614C4.20818 5.94107 2.99928 5.3531 1.70025 5.19629H1.70192Z" fill="currentColor"/>
  </svg>
  <symbol id="arrow" stroke="currentColor" fill="currentColor" stroke-width="0" viewBox="0 0 20 20" xmlns="http://www.w3.org/2000/svg">
    <path fill-rule="evenodd" d="M10.293 3.293a1 1 0 011.414 0l6 6a1 1 0 010 1.414l-6 6a1 1 0 01-1.414-1.414L14.586 11H3a1 1 0 110-2h11.586l-4.293-4.293a1 1 0 010-1.414z" clip-rule="evenodd">
    </path>
  </symbol>
  <symbol id="theme" height="24" width="24" fill="currentColor" xmlns="http://www.w3.org/2000/svg"><path d="M12 22c5.523 0 10-4.477 10-10S17.523 2 12 2 2 6.477 2 12s4.477 10 10 10zm0-1.5v-17a8.5 8.5 0 1 1 0 17z"/></symbol>
  <symbol id="theme-light" fill="currentColor" xmlns="http://www.w3.org/2000/svg" viewBox="0 0 16 16"><path fill-rule="evenodd" d="M8 10.5a2.5 2.5 0 100-5 2.5 2.5 0 000 5zM8 12a4 4 0 100-8 4 4 0 000 8zM8 0a.75.75 0 01.75.75v1.5a.75.75 0 01-1.5 0V.75A.75.75 0 018 0zm0 13a.75.75 0 01.75.75v1.5a.75.75 0 01-1.5 0v-1.5A.75.75 0 018 13zM2.343 2.343a.75.75 0 011.061 0l1.06 1.061a.75.75 0 01-1.06 1.06l-1.06-1.06a.75.75 0 010-1.06zm9.193 9.193a.75.75 0 011.06 0l1.061 1.06a.75.75 0 01-1.06 1.061l-1.061-1.06a.75.75 0 010-1.061zM16 8a.75.75 0 01-.75.75h-1.5a.75.75 0 010-1.5h1.5A.75.75 0 0116 8zM3 8a.75.75 0 01-.75.75H.75a.75.75 0 010-1.5h1.5A.75.75 0 013 8zm10.657-5.657a.75.75 0 010 1.061l-1.061 1.06a.75.75 0 11-1.06-1.06l1.06-1.06a.75.75 0 011.06 0zm-9.193 9.193a.75.75 0 010 1.06l-1.06 1.061a.75.75 0 11-1.061-1.06l1.06-1.061a.75.75 0 011.061 0z"></path></symbol>
  <symbol id="theme-dark" fill="currentColor" xmlns="http://www.w3.org/2000/svg" viewBox="0 0 16 16"><path fill-rule="evenodd" d="M9.598 1.591a.75.75 0 01.785-.175 7 7 0 11-8.967 8.967.75.75 0 01.961-.96 5.5 5.5 0 007.046-7.046.75.75 0 01.175-.786zm1.616 1.945a7 7 0 01-7.678 7.678 5.5 5.5 0 107.678-7.678z"></path></symbol>
  <symbol id="theme-system" fill="currentColor" xmlns="http://www.w3.org/2000/svg" viewBox="0 0 16 16"><path fill-rule="evenodd" d="M1.75 2.5h12.5a.25.25 0 01.25.25v7.5a.25.25 0 01-.25.25H1.75a.25.25 0 01-.25-.25v-7.5a.25.25 0 01.25-.25zM14.25 1H1.75A1.75 1.75 0 000 2.75v7.5C0 11.216.784 12 1.75 12h3.727c-.1 1.041-.52 1.872-1.292 2.757A.75.75 0 004.75 16h6.5a.75.75 0 00.565-1.243c-.772-.885-1.193-1.716-1.292-2.757h3.727A1.75 1.75 0 0016 10.25v-7.5A1.75 1.75 0 0014.25 1zM9.018 12H6.982a5.72 5.72 0 01-.765 2.5h3.566a5.72 5.72 0 01-.765-2.5z"></path></symbol>
  <symbol id="mastodon" viewBox="0 0 20 20" xmlns="http://www.w3.org/2000/svg" fill="currentColor"><path fill="currentColor" fill-rule="evenodd" d="M14.255 15.213c2.686-.298 5.025-1.84 5.32-3.247.463-2.218.424-5.413.424-5.413 0-4.33-3.047-5.599-3.047-5.599C15.415.297 12.777.021 10.036 0h-.068C7.228.02 4.59.297 3.054.954c0 0-3.048 1.27-3.048 5.6l-.003.825C0 8.177-.006 9.063.02 9.987c.11 4.235.834 8.408 5.04 9.444 1.939.478 3.604.578 4.945.51 2.431-.126 3.796-.808 3.796-.808l-.08-1.643s-1.738.51-3.69.448c-1.933-.062-3.974-.194-4.286-2.404a4.225 4.225 0 0 1-.044-.62s1.898.433 4.304.535c1.47.063 2.85-.08 4.25-.236Zm2.15-3.081V6.889c0-1.071-.294-1.923-.882-2.553-.607-.63-1.402-.953-2.389-.953-1.142 0-2.007.409-2.578 1.226L10 5.476l-.556-.867c-.571-.817-1.436-1.226-2.578-1.226-.987 0-1.782.323-2.389.953-.589.63-.882 1.482-.882 2.553v5.243h2.232V7.043c0-1.073.484-1.617 1.454-1.617 1.073 0 1.61.646 1.61 1.923v2.785h2.218V7.35c0-1.277.537-1.923 1.61-1.923.97 0 1.454.544 1.454 1.617v5.089h2.232Z" clip-rule="evenodd"/></symbol>
  <symbol id="root-me" xmlns="http://www.w3.org/2000/svg" viewBox="0 0 20 20" fill="none"><g><path fill="currentColor" d="M10.191 15.987c-.008-.008-.016-.016-.016-.024l-.016-.015c-.008 0-.008-.008-.016-.008-.008-.008-.016-.008-.024-.016-.008 0-.016-.008-.024-.008s-.015-.008-.015-.008c-.008 0-.016 0-.024-.008H9.96c-.008 0-.016 0-.024.008-.008 0-.016.008-.016.008-.008 0-.016.008-.023.008-.008 0-.016.008-.024.016-.008 0-.008.008-.016.008l-.016.015-.016.016-.645.803a.23.23 0 0 0 .183.373.238.238 0 0 0 .183-.087l.008-.008a.585.585 0 0 1 .915 0l.008.008a.238.238 0 0 0 .327.04.23.23 0 0 0 .04-.326l-.653-.795ZM9.117 2.416a.612.612 0 0 0-.613.58l-1.218.445a.162.162 0 0 0-.111.15v.771h-.98a.613.613 0 1 0-.589.77c.287.001.518-.19.59-.452h1.138a.16.16 0 0 0 .16-.159v-.818l1.073-.397c.104.198.31.333.542.333.334 0 .612-.27.612-.612a.606.606 0 0 0-.604-.611Z"/><path fill="#9D9D9C" d="M7.827 13.794a9.533 9.533 0 0 1-.573-.222c-.135-.064-.27-.127-.398-.191.303.302 1.035.842 1.823.858a.726.726 0 0 0 .12-.183 6.924 6.924 0 0 1-.97-.262Z"/><path fill="currentColor" d="M17.815 8.248c0-.374-.024-.747-.08-1.105 0-.023-.007-.047-.007-.071-.486-3.155-2.881-5.745-6.033-6.436a.801.801 0 1 0-.955.953v2.932c0 .048.024.096.064.127a.16.16 0 0 0 .087.024c.016 0 .04 0 .056-.008l1.178-.445a.59.59 0 0 0 .342.239V5.84c-.597.731-1.337 1.39-2.125 1.979l-.9-2.082a.608.608 0 0 0-.333-1.12.613.613 0 1 0 0 1.223h.032l.939 2.17a20.53 20.53 0 0 1-1.672 1.08l-2.674-.802a.133.133 0 0 0-.095.008l-.796.31a.603.603 0 0 0-.493-.247.613.613 0 1 0 .612.612c0-.024-.008-.048-.008-.072l.748-.294 2.332.7a27.967 27.967 0 0 1-4.066 1.86l-.144.047a.764.764 0 0 0-.461-.151h-.024a7.209 7.209 0 0 1-.565-2.805c0-.477.048-.946.135-1.399h3.494a.613.613 0 1 0 .589-.77.606.606 0 0 0-.59.453H2.982a7.255 7.255 0 0 1 5.388-5.324c.143.23.397.39.684.39a.8.8 0 0 0 .804-.803A.801.801 0 0 0 9.053 0a.81.81 0 0 0-.788.636c-3.51.794-6.08 3.949-6.08 7.604 0 1.04.207 2.082.613 3.035a.808.808 0 0 0 .31 1.335v3.131c0 .056.016.111.048.159l.175.12 2.38 1.676v2.002c0 .167.135.302.302.302h7.958a.302.302 0 0 0 .303-.302v-2.002l2.387-1.677.175-.127a.286.286 0 0 0 .048-.159v-3.155a.798.798 0 0 0 .294-1.279 7.517 7.517 0 0 0 .637-3.051Zm-9.04-7.7A.386.386 0 0 1 9.06.421a.39.39 0 1 1-.215.715.396.396 0 0 1-.175-.318c0-.11.04-.206.103-.27Zm1.75.255a.39.39 0 0 1 .39-.39c.112 0 .207.048.279.12a.387.387 0 0 1-.287.65.377.377 0 0 1-.382-.38Zm1.496 3.059c0 .024.008.04.008.055l-.97.366V1.58a.771.771 0 0 0 .549-.381A7.06 7.06 0 0 1 13.963 2.2c-.008 1.176-.461 2.257-1.178 3.234V4.45a.606.606 0 0 0 .454-.588.613.613 0 0 0-.613-.612.616.616 0 0 0-.605.612Zm-8.65 8.375a.419.419 0 0 1-.255-.096.392.392 0 0 1-.135-.286.37.37 0 0 1 .024-.135.39.39 0 0 1 .358-.246c.071 0 .135.024.19.056.112.063.192.19.192.333a.382.382 0 0 1-.056.191.346.346 0 0 1-.318.183Zm13.529-.151a.401.401 0 0 1-.302.15.39.39 0 0 1-.279-.118.387.387 0 0 1-.104-.263.37.37 0 0 1 .255-.357.372.372 0 0 1 .135-.024.4.4 0 0 1 .383.31.246.246 0 0 1 .007.08.555.555 0 0 1-.095.222Zm-.239-1.033h-.072a.801.801 0 0 0-.66 1.26.791.791 0 0 0 .382.29v2.923l-2.507 1.764a.305.305 0 0 0-.127.247v1.684c0 .096-.08.175-.175.175h-.931a.177.177 0 0 1-.175-.175v-.604c0-.159-.112-.302-.271-.317a.305.305 0 0 0-.334.302v.627c0 .096-.08.175-.175.175h-1.139a.177.177 0 0 1-.175-.175v-.93c0-.158-.111-.301-.27-.317a.306.306 0 0 0-.334.302v.953c0 .096-.08.175-.176.175H8.384a.177.177 0 0 1-.175-.175v-.62c0-.159-.111-.302-.27-.317a.305.305 0 0 0-.334.302v.627c0 .096-.08.175-.176.175H6.5a.177.177 0 0 1-.176-.175v-1.684a.305.305 0 0 0-.127-.247l-2.499-1.764v-2.956a.8.8 0 0 0 .47-.73.874.874 0 0 0-.016-.144c.318-.11 2.745-.977 5.133-2.463 3.23-2.01 5.021-4.29 5.228-6.635a7.28 7.28 0 0 1 2.635 4.561c-.04 3.981-6.988 6.437-7.06 6.46-.015.008-.055.016-.087.032l-.27-.048c-.064-.015-.136-.023-.2-.04a4.27 4.27 0 0 1-.31-.063c-.016-.008-.04-.008-.056-.008l-.119-.024c-.048-.008-.096-.024-.143-.031-.112-.024-.223-.048-.327-.08-.198-.048-.39-.103-.58-.15-.184-.056-.375-.104-.55-.16H7.43a5.565 5.565 0 0 1-.39-.127.778.778 0 0 0-.127-.04c-.064-.024-.12-.04-.175-.055a2.393 2.393 0 0 1-.286-.104h-.008a4.956 4.956 0 0 1-.382-.143l-.303-.119c-.08-.04-.151-.063-.19-.087-.049-.024-.072-.032-.072-.032s.015.024.047.056c.046.057.097.11.152.159.08.08.165.153.254.222.115.088.231.173.35.254h.008c-.047.16-.08.334-.08.509a1.661 1.661 0 0 0 3.215.588l.248.024c.143.008.278.008.405.008.008 0 .016.008.024.008l1.345 1.366c.343.342.876.398 1.274.135l2.1-1.176a.661.661 0 0 0 .303-.548v-2.415c.812-.644 1.544-1.407 2.022-2.273a6.777 6.777 0 0 1-.502 1.788Zm-7.863 3.003c-.032.064-.08.128-.12.183a1.05 1.05 0 0 1-1.59 0 1.023 1.023 0 0 1-.247-.675c0-.064.007-.12.015-.183.128.064.263.127.398.19a7.786 7.786 0 0 0 1.544.485Z"/></g></symbol>
  <symbol id="duration" xmlns="http://www.w3.org/2000/svg" viewBox="0 0 512 512"><path fill="none" stroke="currentColor" stroke-miterlimit="10" stroke-width="32" d="M256 64C150 64 64 150 64 256s86 192 192 192 192-86 192-192S362 64 256 64z"/><path fill="none" stroke="currentColor" stroke-linecap="round" stroke-linejoin="round" stroke-width="32" d="M256 128v144h96"/></symbol>
  <symbol xmlns="http://www.w3.org/2000/svg" id="leaf" viewBox="0 0 512 512"><path fill="none" stroke="currentColor" stroke-linecap="round" stroke-linejoin="round" stroke-width="32" d="M321.89 171.42C233 114 141 155.22 56 65.22c-19.8-21-8.3 235.5 98.1 332.7 77.79 71 197.9 63.08 238.4-5.92s18.28-163.17-70.61-220.58zM173 253c86 81 175 129 292 147"/></symbol>

  <symbol id="search" xmlns="http://www.w3.org/2000/svg" fill="currentColor" viewBox="0 0 21 21"><g fill="none" fill-rule="evenodd" stroke="currentColor" stroke-linecap="round" stroke-linejoin="round"><circle cx="8.5" cy="8.5" r="5"/><path d="M17.571 17.5 12 12"/></g></symbol>
  <symbol xmlns="http://www.w3.org/2000/svg" id="article" viewBox="0 0 512 512"><path fill="none" stroke="currentColor" stroke-linejoin="round" stroke-width="32" d="M368 415.86V72a24.07 24.07 0 0 0-24-24H72a24.07 24.07 0 0 0-24 24v352a40.12 40.12 0 0 0 40 40h328"/><path fill="none" stroke="currentColor" stroke-linejoin="round" stroke-width="32" d="M416 464a48 48 0 0 1-48-48V128h72a24 24 0 0 1 24 24v264a48 48 0 0 1-48 48z"/><path fill="none" stroke="currentColor" stroke-linecap="round" stroke-linejoin="round" stroke-width="32" d="M240 128h64m-64 64h64m-192 64h192m-192 64h192m-192 64h192"/><path d="M176 208h-64a16 16 0 0 1-16-16v-64a16 16 0 0 1 16-16h64a16 16 0 0 1 16 16v64a16 16 0 0 1-16 16z"/></symbol>
  <symbol xmlns="http://www.w3.org/2000/svg" id="album" viewBox="0 0 64 64"><g fill="none" stroke="currentColor" stroke-miterlimit="10" stroke-width="2"><circle cx="32" cy="32" r="31"/><circle cx="32" cy="32" r="8"/><path d="M32 48c-8.838 0-16-7.16-16-16M32 16c8.838 0 16 7.162 16 16"/><path d="M32.003 55C19.299 55 9 44.707 9 32M32 9c12.704 0 23 10.295 23 23"/></g></symbol>
  <symbol xmlns="http://www.w3.org/2000/svg" id="podcast" viewBox="0 0 24 24" fill="none" stroke="currentColor" stroke-linecap="round" stroke-linejoin="round" stroke-width="2"><path stroke="none" d="M0 0h24v24H0z"/><path d="M15 12.9A5 5 0 1 0 11.098 9M15 12.9l-3.902-3.899-7.513 8.584a2 2 0 1 0 2.827 2.83L15 12.9z"/></symbol>
  <symbol xmlns="http://www.w3.org/2000/svg" id="recipe" viewBox="0 0 512 512"><path fill="none" stroke="currentColor" stroke-linejoin="round" stroke-width="32" d="m57.49 47.74 368.43 368.43a37.28 37.28 0 0 1 0 52.72 37.29 37.29 0 0 1-52.72 0l-90-91.55a32 32 0 0 1-9.2-22.43v-5.53a32 32 0 0 0-9.52-22.78l-11.62-10.73a32 32 0 0 0-29.8-7.44 48.53 48.53 0 0 1-46.56-12.63l-85.43-85.44C40.39 159.68 21.74 83.15 57.49 47.74z"/><path fill="none" stroke="currentColor" stroke-linecap="round" stroke-linejoin="round" stroke-width="32" d="m400 32-77.25 77.25A64 64 0 0 0 304 154.51v14.86a16 16 0 0 1-4.69 11.32L288 192m32 32 11.31-11.31a16 16 0 0 1 11.32-4.69h14.86a64 64 0 0 0 45.26-18.75L480 112m-40-40-80 80M200 368l-99.72 100.28a40 40 0 0 1-56.56 0h0a40 40 0 0 1 0-56.56L128 328"/></symbol>
  <symbol xmlns="http://www.w3.org/2000/svg" id="external-link" fill="currentColor" viewBox="0 0 16 16"><path d="M3.75 2h3.5a.75.75 0 0 1 0 1.5h-3.5a.25.25 0 0 0-.25.25v8.5c0 .138.112.25.25.25h8.5a.25.25 0 0 0 .25-.25v-3.5a.75.75 0 0 1 1.5 0v3.5A1.75 1.75 0 0 1 12.25 14h-8.5A1.75 1.75 0 0 1 2 12.25v-8.5C2 2.784 2.784 2 3.75 2Zm6.854-1h4.146a.25.25 0 0 1 .25.25v4.146a.25.25 0 0 1-.427.177L13.03 4.03 9.28 7.78a.751.751 0 0 1-1.042-.018.751.751 0 0 1-.018-1.042l3.75-3.75-1.543-1.543A.25.25 0 0 1 10.604 1Z"/></symbol>
  <symbol xmlns="http://www.w3.org/2000/svg" id="bluesky" viewBox="0 0 600 530"><path fill="#1185fe" d="M135.72 44.03C202.216 93.951 273.74 195.17 300 249.49c26.262-54.316 97.782-155.54 164.28-205.46C512.26 8.009 590-19.862 590 68.825c0 17.712-10.155 148.79-16.111 170.07-20.703 73.984-96.144 92.854-163.25 81.433 117.3 19.964 147.14 86.092 82.697 152.22-122.39 125.59-175.91-31.511-189.63-71.766-2.514-7.38-3.69-10.832-3.708-7.896-.017-2.936-1.193.516-3.707 7.896-13.714 40.255-67.233 197.36-189.63 71.766-64.444-66.128-34.605-132.26 82.697-152.22-67.108 11.421-142.55-7.45-163.25-81.433C20.15 217.613 9.997 86.535 9.997 68.825c0-88.687 77.742-60.816 125.72-24.795z"/></symbol>
</svg>