<?xml version="1.0" encoding="UTF-8" standalone="no"?>
<!DOCTYPE svg PUBLIC "-//W3C//DTD SVG 20010904//EN" "http://www.w3.org/TR/2001/REC-SVG-20010904/DTD/svg10.dtd">
<svg version="1.0" xmlns="http://www.w3.org/2000/svg" width="300.000000pt" height="287.000000pt" viewBox="0 0 300.000000 287.000000" preserveAspectRatio="xMidYMid meet">
<g transform="translate(0.000000,287.000000) scale(0.100000,-0.100000)" fill="currentColor" stroke="none">
<path d="M1266 2460 c-18 -33 -40 -57 -64 -70 -52 -27 -131 -128 -169 -216 -35 -80 -42 -156 -24 -236 9 -37 33 -71 45 -63 3 3 2 -1 -4 -7 -16 -19 -12 -86 9 -131 10 -23 25 -61 32 -85 10 -35 19 -46 47 -58 20 -8 41 -23 48 -33 16 -22 107 -48 112 -32 2 6 9 11 16 11 8 0 28 13 47 29 32 29 34 34 37 109 4 78 4 80 -26 100 -66 48 -136 48 -178 1 l-19 -21 35 21 c45 27 79 27 121 -2 64 -43 72 -132 17 -188 -39 -39 -108 -41 -152 -4 -29 23 -30 28 -40 147 -15 193 -14 258 8 308 27 61 39 70 86 59 27 -6 48 -5 70 5 l32 13 -23 17 c-28 19 -69 21 -69 4 0 -10 -3 -9 -9 1 -7 11 -10 11 -15 0 -3 -8 -3 -4 0 9 5 21 4 22 -15 10 -12 -7 -21 -17 -21 -21 0 -5 -13 1 -30 13 -16 12 -30 17 -30 12 0 -5 11 -17 25 -26 14 -9 25 -20 25 -25 0 -5 -11 -8 -25 -8 -14 0 -25 3 -25 7 0 4 -9 18 -21 31 l-20 23 4 -24 c3 -14 10 -37 15 -51 7 -18 7 -30 0 -37 -6 -6 -11 -31 -12 -56 -1 -24 -3 -44 -6 -43 -17 6 -5 -49 15 -70 8 -7 11 -23 7 -35 -5 -22 -6 -22 -15 5 -5 15 -13 27 -18 27 -9 0 -3 -45 12 -94 12 -38 11 -43 -5 -43 -18 0 -26 52 -27 170 -1 48 -4 87 -7 87 -3 0 -14 -8 -25 -17 -20 -17 -20 -17 -14 0 4 10 7 28 7 40 0 18 2 19 10 7 15 -25 24 15 12 60 -8 34 -7 43 13 70 15 21 25 27 28 18 3 -7 6 5 7 27 1 32 3 36 10 20 7 -16 9 -13 9 17 2 65 34 59 45 -9 4 -22 13 -48 19 -57 10 -14 12 -12 12 11 1 16 4 37 8 48 5 15 1 23 -16 30 -31 14 -27 36 11 61 19 13 28 25 22 29 -8 5 -8 11 1 21 17 21 29 17 29 -8 0 -49 2 -64 13 -86 8 -17 8 -25 -1 -34 -7 -7 -12 -21 -12 -33 1 -20 1 -20 15 -1 8 11 15 32 15 47 0 31 19 80 35 92 6 4 5 10 -4 16 -11 7 -10 14 5 42 11 19 25 39 33 45 8 6 11 16 7 22 -15 24 14 11 50 -23 33 -32 74 -49 59 -26 -3 6 3 14 13 20 28 15 77 -45 77 -95 0 -33 5 -42 35 -62 34 -23 71 -26 110 -8 11 5 18 -4 28 -35 16 -53 71 -122 92 -116 11 3 21 -6 29 -24 7 -16 19 -29 26 -29 25 0 45 -111 49 -260 0 -30 4 -57 8 -60 13 -11 13 -64 -1 -56 -5 3 -6 -23 -3 -60 5 -63 4 -66 -29 -100 -19 -20 -43 -34 -57 -34 l-24 0 8 -92 c5 -51 9 -133 9 -183 0 -80 -3 -96 -30 -149 -34 -66 -71 -99 -140 -122 -33 -12 -43 -19 -34 -25 10 -6 8 -9 -9 -9 -13 0 -21 4 -18 8 3 4 -8 7 -25 6 -16 -1 -29 2 -29 7 0 5 -11 11 -24 15 -13 3 -40 24 -62 46 -36 38 -38 39 -46 19 -9 -25 -21 -27 -38 -6 -17 21 -54 20 -46 -1 3 -9 6 -25 7 -37 1 -22 1 -22 7 0 7 22 8 22 36 8 35 -18 36 -18 36 0 0 22 17 18 23 -5 3 -12 14 -20 27 -20 11 0 18 -4 15 -10 -3 -5 2 -10 12 -10 11 0 28 -7 39 -15 10 -8 30 -15 44 -15 52 -1 70 -11 70 -40 0 -27 22 -60 39 -60 4 0 25 -18 46 -39 22 -22 43 -37 47 -35 5 3 8 0 8 -7 0 -13 -88 -169 -134 -239 -21 -32 -24 -41 -10 -30 33 25 65 61 60 68 -5 10 30 72 38 67 3 -3 4 -2 1 2 -3 3 0 12 6 20 7 7 19 28 28 45 23 46 46 50 37 7 -3 -18 -10 -35 -15 -39 -7 -4 -12 -70 -6 -70 2 0 15 26 30 57 25 54 28 56 41 38 18 -24 18 -40 -1 -59 -8 -8 -15 -17 -15 -21 0 -3 -11 -21 -25 -39 -15 -20 -25 -46 -25 -67 l0 -34 33 55 c33 56 56 109 63 145 3 15 -10 31 -47 60 -29 22 -62 56 -74 76 -13 20 -37 48 -55 62 l-31 27 32 47 c18 27 53 74 77 106 50 65 57 90 72 228 9 79 8 101 -4 124 -19 36 -12 48 25 43 29 -4 39 5 19 17 -5 3 -10 13 -10 21 0 12 4 13 21 4 29 -16 59 -86 59 -140 0 -39 2 -43 15 -29 16 16 8 62 -22 128 -9 19 -19 46 -23 60 -3 14 -11 24 -16 21 -5 -3 -8 -9 -6 -15 2 -5 0 -7 -4 -3 -4 4 -19 -1 -34 -12 -31 -22 -50 -26 -50 -10 0 6 5 10 10 10 6 0 23 11 38 25 17 16 35 24 49 22 15 -3 24 3 33 22 8 18 14 22 19 12 7 -10 10 -10 13 -1 3 9 18 5 54 -13 37 -19 53 -34 64 -61 7 -20 17 -36 21 -36 4 0 10 -15 13 -34 4 -19 13 -36 20 -39 13 -5 36 -76 41 -127 1 -14 10 -50 18 -80 9 -30 18 -95 21 -145 3 -49 9 -114 14 -143 8 -46 7 -56 -10 -78 -19 -24 -23 -25 -118 -20 -54 2 -107 9 -118 15 -30 16 -42 14 -42 -8 0 -11 -4 -23 -10 -26 -6 -4 -7 1 -3 11 4 12 3 15 -5 10 -15 -9 -16 -43 -2 -51 7 -4 5 -14 -5 -28 -21 -30 -19 -60 6 -75 17 -11 19 -19 14 -55 -7 -42 8 -102 23 -93 4 2 7 23 5 46 -2 41 -2 41 28 35 28 -6 29 -6 19 20 -10 26 -14 167 -5 176 2 3 21 3 41 1 38 -5 40 -11 19 -77 -3 -11 5 1 20 28 24 44 28 47 65 47 44 0 52 -18 25 -56 -8 -12 -12 -24 -9 -27 3 -3 2 -12 -2 -19 -5 -7 -10 -22 -11 -33 -2 -11 -7 -44 -12 -73 -8 -51 -7 -54 24 -88 30 -32 34 -34 49 -19 24 24 20 35 -14 35 -18 0 -33 6 -37 15 -7 21 -5 23 46 29 24 2 47 10 51 16 6 9 9 9 12 -1 9 -25 17 -4 19 49 1 28 5 49 9 47 4 -3 7 3 6 12 -1 18 1 19 103 72 34 18 61 35 58 37 -3 3 -19 -2 -37 -11 -18 -9 -34 -14 -37 -11 -3 2 19 17 49 32 29 14 66 36 82 47 25 18 29 18 23 4 -6 -16 -4 -16 16 -2 23 14 44 41 91 110 34 50 42 19 10 -41 -14 -25 -22 -49 -19 -53 4 -3 11 2 16 12 6 9 14 17 19 17 14 0 -1 -33 -23 -50 -20 -16 -40 -88 -29 -104 4 -6 9 5 12 24 3 20 11 34 18 32 7 -1 11 1 11 5 -7 42 24 44 41 4 9 -23 9 -42 1 -81 -6 -28 -11 -65 -11 -83 1 -32 1 -32 14 -8 l13 24 11 -31 c7 -20 7 -34 1 -37 -15 -10 -10 -25 6 -19 12 5 15 -3 15 -42 0 -34 -3 -45 -10 -34 -5 8 -12 11 -16 8 -3 -4 3 -19 13 -35 11 -15 30 -45 42 -66 l23 -37 -23 3 c-13 2 -25 9 -27 16 -4 13 -68 48 -122 68 -44 16 -228 20 -255 6 -11 -6 -38 -13 -60 -16 l-40 -5 40 18 c35 16 37 19 15 19 -14 0 -32 -3 -40 -9 -21 -13 -30 7 -18 41 14 41 71 87 155 125 75 35 93 49 46 38 -89 -22 -223 -121 -223 -165 0 -10 -7 -19 -15 -19 -10 0 -2 -12 20 -31 52 -46 81 -103 100 -194 19 -94 25 -105 25 -44 -1 37 -18 101 -44 159 -4 11 1 15 20 16 18 2 24 -2 20 -12 -7 -18 11 -17 49 1 l30 15 -32 -6 c-17 -3 -34 0 -38 5 -3 6 -17 11 -30 11 -13 0 -30 3 -39 6 -27 10 -18 25 17 25 17 0 84 2 148 5 110 6 118 5 138 -15 19 -19 25 -19 23 0 -2 9 95 -38 102 -50 11 -16 -11 -22 -24 -6 -7 8 -17 15 -23 15 -5 0 0 -9 13 -20 13 -11 33 -20 44 -20 26 0 56 -46 56 -84 0 -14 4 -26 10 -26 5 0 7 6 4 14 -4 11 0 13 16 9 16 -4 20 -11 16 -27 -3 -11 -6 -25 -6 -31 0 -5 -5 -3 -10 5 -8 12 -10 11 -10 -7 0 -12 -3 -28 -6 -37 -5 -13 1 -16 30 -16 35 0 36 1 36 37 0 20 7 45 17 55 15 17 15 18 -5 18 -36 0 -58 70 -30 98 9 9 4 12 -23 12 -33 0 -37 3 -48 41 -7 23 -16 78 -21 123 -5 44 -18 105 -30 134 -11 29 -20 75 -20 102 0 28 -7 67 -15 87 -9 21 -19 73 -24 118 -9 94 -20 117 -92 200 -96 111 -214 184 -339 210 -108 23 -139 45 -142 105 -1 14 -40 78 -62 102 -14 15 -51 35 -81 44 -58 19 -64 27 -41 53 11 13 13 26 6 56 -5 22 -16 104 -24 182 -18 177 -32 211 -119 287 -73 65 -103 112 -85 134 7 7 24 20 40 28 43 22 35 37 -17 32 -25 -3 -45 -2 -45 2 0 5 -29 31 -65 59 -55 43 -71 51 -108 51 -24 0 -47 4 -52 9 -12 12 -124 31 -181 31 -39 0 -42 -3 -68 -50z m30 -65 c-1 -25 -4 -45 -8 -45 -5 0 -8 6 -8 13 0 8 -4 7 -10 -3 -7 -11 -8 -5 -3 20 5 27 19 56 29 60 0 0 0 -20 0 -45z m373 -31 c10 -13 25 -24 32 -24 22 -1 -30 -40 -52 -40 -10 0 -19 5 -19 10 0 6 -9 10 -20 10 -26 0 -34 19 -21 52 8 21 15 25 36 21 14 -3 34 -16 44 -29z m691 -1072 c25 -9 62 -26 82 -39 21 -13 40 -23 44 -23 13 0 39 -34 40 -54 3 -46 17 -97 24 -89 5 4 5 27 1 50 -5 23 -6 45 -3 48 11 11 52 -49 52 -76 0 -15 5 -31 10 -34 6 -4 10 5 10 21 l0 27 25 -23 c13 -12 22 -27 19 -31 -3 -5 0 -9 5 -9 6 0 11 -7 11 -16 0 -9 7 -22 16 -29 14 -10 15 -17 4 -49 -10 -31 -83 -130 -92 -125 -3 2 -64 -30 -116 -61 l-33 -20 6 20 c4 12 2 20 -5 20 -6 0 -10 -3 -8 -7 2 -5 -25 -37 -60 -73 l-62 -65 6 35 c4 19 11 43 16 52 6 13 5 16 -6 12 -21 -8 -36 -59 -36 -123 0 -57 -9 -84 -26 -79 -5 1 -24 -3 -42 -11 -18 -8 -35 -11 -38 -8 -6 5 28 138 47 188 6 15 18 26 27 25 11 -1 22 13 32 42 13 37 13 44 1 52 -13 7 -12 15 2 51 13 32 14 46 6 54 -9 7 -10 5 -6 -7 3 -9 0 -21 -7 -27 -19 -16 -25 13 -24 103 1 39 -3 82 -9 96 -27 65 -26 70 5 70 62 0 205 -91 239 -153 7 -12 12 -18 13 -13 0 15 40 -36 40 -51 0 -7 6 -16 14 -19 9 -3 12 -13 9 -22 -4 -9 8 -3 25 15 25 26 32 29 35 15 3 -9 4 -3 3 15 0 17 -5 29 -10 26 -5 -3 -6 0 -4 8 3 8 11 13 17 11 18 -4 13 6 -13 23 -13 8 -30 13 -38 10 -23 -9 -20 -52 4 -58 17 -5 18 -8 7 -29 -9 -17 -14 -19 -17 -8 -7 20 -18 33 -102 116 -81 81 -140 117 -208 129 -24 4 -41 9 -39 11 2 3 0 25 -4 50 -5 26 -6 50 -4 55 7 10 55 2 115 -19z m-356 -701 c-15 -15 -16 -11 -11 59 8 112 21 131 25 36 2 -64 0 -83 -14 -95z"/>
<path d="M2366 1089 c-37 -106 -43 -129 -37 -133 9 -6 56 132 47 141 -3 3 -8 0 -10 -8z"/>
<path d="M2422 863 c-3 -43 12 -36 23 10 5 20 3 27 -7 27 -9 0 -15 -13 -16 -37z"/>
<path d="M1390 2344 c0 -5 5 -15 12 -22 7 -7 8 -12 2 -12 -5 0 -15 5 -22 12 -15 15 -27 4 -19 -16 4 -9 13 -13 22 -10 13 5 14 2 5 -20 -10 -28 0 -35 19 -12 13 15 8 63 -9 80 -6 6 -10 6 -10 0z"/>
<path d="M1230 2258 c-7 -15 -9 -35 -5 -45 6 -15 9 -12 17 15 12 44 4 64 -12 30z"/>
<path d="M1329 2208 c5 -23 12 -33 26 -33 10 0 20 6 23 14 3 10 0 12 -12 8 -10 -4 -16 -1 -16 7 0 7 -6 19 -14 25 -11 9 -12 6 -7 -21z"/>
<path d="M1444 2180 c4 -22 2 -30 -8 -30 -8 0 -16 6 -19 13 -3 9 -10 9 -31 -2 -23 -13 -25 -17 -12 -29 8 -9 34 -14 66 -14 53 0 73 8 52 21 -7 4 -10 15 -6 24 3 9 10 14 15 11 5 -3 9 0 9 5 0 6 -7 11 -15 11 -8 0 -15 -4 -15 -10 0 -5 -4 -10 -10 -10 -5 0 -10 9 -10 20 0 11 -5 20 -11 20 -7 0 -9 -11 -5 -30z"/>
<path d="M1586 2135 c9 -14 20 -26 25 -26 5 -1 14 -3 19 -4 6 -1 19 -3 31 -4 11 0 17 -5 14 -11 -3 -5 -1 -10 4 -10 26 0 -2 39 -31 44 -7 1 -24 9 -38 19 -34 24 -43 21 -24 -8z"/>
<path d="M1085 2040 c-4 -28 -5 -53 -2 -56 2 -3 7 19 11 47 4 28 5 53 3 56 -3 2 -8 -19 -12 -47z"/>
<path d="M1802 1905 c-1 -24 -7 -56 -12 -70 -6 -17 -6 -24 0 -20 5 3 12 -7 15 -22 4 -15 10 -46 15 -69 5 -22 7 -65 5 -95 l-5 -54 16 38 c9 20 21 37 25 37 5 0 9 9 9 20 0 11 -4 20 -9 20 -8 0 -21 25 -26 50 -10 49 -19 77 -27 87 -9 12 9 53 24 53 13 0 9 33 -6 53 -19 25 -23 22 -24 -28z"/>
<path d="M1760 1909 c13 -46 20 -48 20 -6 0 25 -4 37 -14 37 -12 0 -13 -7 -6 -31z"/>
<path d="M1585 1846 c-37 -8 -63 -20 -70 -31 -5 -10 -17 -26 -26 -35 -23 -24 -30 -48 -35 -113 -4 -55 -3 -60 26 -85 16 -15 30 -32 30 -39 0 -7 4 -13 10 -13 16 0 23 -49 10 -65 -7 -8 -8 -15 -2 -15 19 0 34 29 28 57 -6 28 -6 28 39 25 37 -3 52 1 80 23 52 39 66 81 54 157 -7 42 -7 64 0 66 19 6 -11 51 -43 63 -17 7 -33 14 -36 15 -3 1 -32 -3 -65 -10z m95 -78 c52 -72 52 -112 -1 -173 -27 -31 -37 -35 -79 -35 -42 0 -52 4 -79 35 -26 30 -31 44 -31 85 0 41 5 55 30 84 30 34 48 42 102 45 22 1 34 -8 58 -41z"/>
<path d="M1646 1704 c-7 -19 1 -34 19 -34 18 0 26 25 12 39 -15 15 -24 14 -31 -5z"/>
<path d="M536 1768 c6 -175 15 -345 19 -373 2 -16 5 -76 6 -133 1 -95 3 -104 24 -118 25 -16 117 -53 151 -60 12 -2 41 -11 65 -20 24 -8 51 -17 59 -19 8 -2 29 -9 45 -16 17 -6 35 -13 41 -14 6 -2 26 -6 44 -10 29 -6 31 -5 19 8 -8 8 -18 13 -24 11 -5 -2 -21 3 -35 11 -44 25 -93 45 -104 43 -6 0 -24 4 -41 11 -16 7 -34 14 -40 15 -5 2 -21 7 -35 13 -14 5 -48 18 -77 28 -41 15 -53 24 -57 44 -7 34 -22 285 -31 518 l-4 92 41 -15 c23 -8 47 -19 55 -25 7 -6 13 -9 13 -6 0 3 26 -7 58 -22 31 -16 89 -41 127 -55 39 -15 90 -36 115 -46 73 -31 91 -34 84 -15 -4 9 -9 14 -11 11 -3 -2 -29 7 -59 20 -30 13 -61 24 -69 24 -8 0 -15 5 -15 10 0 5 -3 9 -7 8 -14 -4 -113 36 -113 46 0 5 -3 6 -6 3 -4 -4 -19 0 -33 8 -25 13 -201 95 -206 95 -1 0 -1 -33 1 -72z"/>
<path d="M1235 1660 c-4 -7 -3 -16 3 -22 14 -14 45 -2 40 15 -6 16 -34 21 -43 7z"/>
<path d="M1470 1496 c0 -20 -35 -29 -60 -16 -21 11 -26 4 -11 -19 5 -8 16 -11 30 -6 13 4 21 2 21 -5 0 -15 51 -4 62 13 7 12 -18 47 -34 47 -4 0 -8 -6 -8 -14z"/>
<path d="M1414 1301 c-6 -6 -5 -47 2 -65 6 -16 34 -23 34 -8 0 5 13 7 29 4 16 -2 32 1 36 8 5 8 -2 11 -21 10 -75 -5 -67 17 9 26 39 5 47 3 47 -11 0 -9 5 -13 10 -10 17 10 11 45 -7 46 -43 4 -135 4 -139 0z"/>
<path d="M1577 1232 c-20 -20 -37 -43 -37 -49 0 -9 -16 -13 -45 -13 -26 0 -45 -5 -45 -11 0 -6 -7 -8 -16 -5 -10 4 -14 1 -12 -6 13 -38 175 -7 165 31 -2 10 0 26 5 36 8 14 12 15 19 4 6 -10 9 -4 9 19 0 17 -1 32 -2 32 -2 -1 -20 -18 -41 -38z"/>
<path d="M2005 1187 c-4 -17 -8 -49 -9 -69 -1 -24 -14 -53 -34 -82 -18 -24 -37 -68 -43 -97 -9 -45 -20 -62 -60 -100 -27 -25 -49 -48 -49 -52 0 -15 21 -6 55 24 29 26 36 28 41 15 3 -9 3 -24 -1 -33 -4 -13 -3 -15 4 -8 6 6 18 42 26 80 9 39 29 104 45 145 16 41 31 95 34 120 2 25 7 52 11 61 3 10 2 20 -3 23 -5 3 -13 -9 -17 -27z"/>
<path d="M1650 1140 c0 -16 -4 -30 -9 -30 -5 0 -11 -10 -13 -22 -3 -21 -4 -21 -18 -7 -12 14 -17 14 -25 3 -5 -7 -27 -15 -47 -18 -95 -11 -106 -42 -15 -40 45 1 64 7 92 28 19 15 35 33 35 40 0 8 7 16 15 20 8 3 15 10 15 16 0 6 -5 8 -11 4 -8 -4 -9 0 -4 15 4 12 2 21 -4 21 -6 0 -11 -13 -11 -30z"/>
<path d="M1938 1102 c-57 -60 -116 -140 -143 -194 -42 -84 -22 -77 28 9 26 45 72 111 103 148 61 72 70 98 12 37z"/>
<path d="M950 966 c-14 -39 -12 -111 4 -151 8 -19 16 -35 18 -35 5 0 0 202 -6 207 -3 3 -10 -6 -16 -21z"/>
<path d="M1112 945 c-7 -8 -8 -15 -3 -15 5 0 12 -8 14 -17 4 -15 6 -14 12 5 4 13 13 21 19 19 12 -4 9 -46 -5 -63 -5 -6 -5 -14 -1 -18 4 -4 2 -7 -3 -6 -29 6 -34 0 -24 -27 5 -15 8 -38 4 -50 -3 -13 -1 -23 4 -23 18 0 33 31 28 57 -3 17 0 34 9 44 7 8 17 29 20 46 5 28 2 33 -24 47 -37 19 -34 19 -50 1z"/>
<path d="M1200 950 c0 -10 85 -37 173 -55 15 -3 27 -12 27 -20 0 -9 6 -12 15 -9 11 5 13 2 9 -10 -5 -12 0 -16 18 -16 16 0 29 -8 36 -22 9 -19 11 -20 11 -5 1 16 6 17 34 12 17 -4 38 -12 46 -19 11 -8 13 -8 10 3 -3 8 -21 20 -41 27 -19 6 -54 24 -76 38 -23 14 -46 26 -52 26 -6 0 -22 7 -35 16 -14 9 -32 13 -41 10 -8 -3 -24 -2 -33 4 -28 14 -101 29 -101 20z"/>
<path d="M892 890 c-10 -11 -25 -31 -32 -45 -11 -21 -11 -27 2 -42 9 -10 24 -34 33 -53 10 -19 20 -30 22 -23 2 6 -3 25 -12 42 -30 59 -35 80 -22 93 23 25 39 48 34 48 -4 0 -15 -9 -25 -20z"/>
<path d="M1260 877 c0 -14 81 -97 94 -97 5 0 -4 12 -19 27 -15 15 -33 40 -41 55 -15 29 -34 37 -34 15z"/>
<path d="M899 823 c6 -12 16 -25 22 -28 5 -4 22 -32 37 -63 17 -37 28 -51 30 -39 4 22 -37 94 -73 127 -26 23 -27 23 -16 3z"/>
<path d="M816 801 c-17 -18 -16 -21 4 -61 24 -47 40 -47 20 -1 -7 17 -9 42 -6 56 8 30 5 31 -18 6z"/>
<path d="M1068 761 c-11 -28 -13 -42 -5 -50 8 -8 6 -11 -8 -12 -11 0 -14 -3 -7 -6 6 -2 12 -14 12 -25 0 -16 -5 -19 -23 -14 -20 5 -22 2 -22 -34 0 -30 4 -40 15 -40 9 0 21 -5 28 -12 9 -9 12 -8 12 5 0 9 -9 21 -21 27 -18 10 -19 25 -1 25 4 0 13 4 21 9 11 7 13 5 8 -7 -3 -10 -2 -17 3 -17 6 0 10 6 10 13 0 8 4 7 10 -3 8 -13 10 -12 10 3 0 11 -9 21 -20 24 -11 3 -18 9 -15 13 3 5 7 30 10 56 3 26 7 56 11 66 11 35 -13 17 -28 -21z"/>
<path d="M1231 755 c6 -20 8 -43 5 -51 -3 -9 -1 -12 4 -9 6 3 10 1 10 -4 0 -6 6 -11 13 -11 11 0 10 11 -4 52 -20 61 -43 80 -28 23z"/>
<path d="M1179 753 c-22 -61 -21 -59 -6 -43 15 15 32 70 22 70 -3 0 -10 -12 -16 -27z"/>
<path d="M742 732 c-29 -27 -42 -47 -42 -65 0 -45 82 -157 116 -157 3 0 -10 19 -29 43 -58 71 -71 111 -44 139 13 14 48 78 43 78 -1 0 -21 -17 -44 -38z"/>
<path d="M851 755 c13 -30 33 -73 43 -94 16 -36 83 -107 92 -99 4 4 -5 20 -20 35 -16 15 -37 46 -48 68 -18 35 -79 117 -67 90z"/>
<path d="M1432 698 c5 -15 68 -24 68 -10 0 12 -24 22 -52 22 -11 0 -18 -5 -16 -12z"/>
<path d="M800 666 c0 -8 16 -32 35 -53 40 -43 48 -30 10 15 -14 17 -25 35 -25 41 0 6 -4 11 -10 11 -5 0 -10 -6 -10 -14z"/>
<path d="M950 651 c0 -10 11 -26 25 -35 14 -9 25 -12 25 -6 0 6 -7 13 -15 16 -8 4 -15 15 -15 25 0 10 -4 19 -10 19 -5 0 -10 -8 -10 -19z"/>
<path d="M631 636 c-18 -13 -28 -26 -24 -29 11 -7 70 39 62 47 -3 3 -20 -5 -38 -18z"/>
<path d="M1910 637 c0 -8 5 -19 10 -22 16 -10 12 -28 -5 -21 -9 3 -15 0 -15 -10 0 -8 5 -12 10 -9 6 3 10 -1 10 -9 0 -8 -4 -18 -10 -21 -5 -3 -10 -1 -10 6 0 10 -3 10 -12 1 -10 -10 -10 -15 1 -21 17 -11 5 -32 -13 -25 -20 8 -30 -14 -15 -32 9 -11 9 -18 1 -26 -9 -9 -12 -9 -12 1 0 7 -5 9 -11 5 -8 -5 -8 -9 1 -14 9 -6 9 -12 0 -29 -9 -18 -14 -20 -25 -11 -11 9 -17 5 -29 -24 -8 -20 -22 -39 -31 -42 -9 -4 -13 -13 -10 -24 3 -9 -1 -23 -10 -30 -22 -18 -19 -27 14 -38 26 -9 32 -8 45 13 10 15 12 26 6 30 -6 4 5 25 25 49 34 42 45 63 25 51 -15 -9 -12 11 3 24 8 6 17 8 21 4 4 -4 4 1 0 11 -6 15 -4 17 6 11 9 -5 11 -4 6 3 -6 11 28 92 39 92 3 0 -4 -18 -15 -40 -11 -22 -18 -40 -15 -40 2 0 14 19 26 43 28 53 31 115 7 141 -15 17 -18 17 -18 3z m-104 -311 c-36 -44 -45 -63 -26 -51 6 3 10 1 10 -5 0 -7 -6 -10 -14 -7 -7 3 -19 0 -26 -6 -25 -24 13 37 49 80 48 55 54 46 7 -11z"/>
<path d="M1120 628 c0 -5 11 -8 25 -8 22 0 24 -2 13 -14 -9 -10 -15 -11 -20 -2 -5 6 -8 7 -8 1 0 -6 9 -19 21 -28 20 -17 22 -18 40 -1 20 18 25 34 10 34 -5 0 -12 -8 -14 -17 -3 -13 -5 -11 -6 6 -1 23 1 24 52 18 28 -4 63 -9 75 -13 22 -6 23 -5 11 14 -7 12 -16 17 -19 13 -3 -5 -44 -6 -92 -2 -49 3 -88 3 -88 -1z"/>
<path d="M1405 620 l20 -23 -34 6 c-52 11 -22 -17 48 -44 l58 -23 8 -135 c4 -75 9 -183 11 -241 2 -58 6 -114 8 -125 3 -11 5 -24 7 -30 1 -6 5 6 8 25 4 19 3 45 -1 58 -5 15 -3 31 6 45 12 18 13 45 6 142 -5 65 -7 122 -4 126 2 4 0 10 -6 14 -5 3 -10 25 -10 49 0 23 -6 48 -12 54 -10 10 -10 15 1 21 10 6 2 12 -25 21 -62 20 -87 50 -42 50 32 0 10 18 -32 26 l-35 7 20 -23z"/>
<path d="M2670 630 c-8 -5 -58 -28 -110 -50 -101 -45 -137 -68 -85 -56 38 9 192 85 206 103 13 15 10 16 -11 3z"/>
<path d="M1672 587 c-12 -13 -19 -26 -16 -30 3 -3 -9 -4 -27 -2 l-34 4 25 -20 25 -21 -30 6 c-27 6 -28 5 -12 -7 23 -19 22 -31 -4 -24 -26 7 -49 -13 -49 -42 0 -15 6 -21 23 -21 17 0 34 20 75 86 54 88 62 112 24 71z"/>
<path d="M548 568 c-44 -27 -68 -65 -33 -52 8 4 15 1 15 -5 0 -6 6 -11 14 -11 7 0 30 -13 51 -30 40 -32 45 -34 45 -22 0 4 -22 25 -50 47 -27 22 -50 42 -50 45 0 3 18 14 40 24 22 10 37 23 34 27 -8 13 -14 11 -66 -23z"/>
<path d="M650 585 c0 -16 27 -32 37 -22 5 6 -21 37 -31 37 -3 0 -6 -7 -6 -15z"/>
<path d="M811 589 c-1 -18 40 -76 66 -94 10 -6 29 -15 43 -18 l25 -6 -25 20 c-51 42 -75 66 -92 89 -12 18 -17 20 -17 9z"/>
<path d="M1256 593 c-14 -14 -4 -23 27 -23 29 -1 30 -2 12 -12 -19 -12 -18 -13 9 -18 28 -5 29 -6 13 -22 -9 -9 -17 -23 -17 -30 0 -8 4 -7 11 5 5 9 18 17 27 17 15 0 15 -2 2 -11 -13 -9 -13 -10 0 -6 8 2 13 11 12 18 -2 8 -5 25 -6 38 -2 13 -9 27 -17 31 -24 12 -66 20 -73 13z"/>
<path d="M930 540 c0 -5 15 -17 33 -26 51 -26 63 -58 26 -69 -17 -6 -24 -15 -9 -12 3 0 15 -5 28 -12 22 -11 22 -13 5 -35 -10 -13 -23 -22 -29 -19 -6 2 -25 -7 -42 -21 -16 -15 -37 -26 -47 -26 -9 0 -14 -4 -11 -9 4 -5 -5 -22 -18 -38 -14 -16 -28 -41 -31 -56 -4 -15 -11 -30 -16 -33 -14 -8 -11 -24 5 -24 9 0 19 -20 27 -55 15 -66 32 -73 27 -10 -3 43 4 57 18 34 3 -6 15 -9 25 -6 10 3 22 1 25 -4 3 -5 -3 -9 -13 -10 -10 0 3 -6 28 -13 25 -7 58 -22 73 -33 15 -12 34 -19 46 -16 15 4 20 0 20 -13 0 -14 3 -15 12 -6 17 17 43 15 85 -8 21 -11 51 -19 68 -19 21 1 24 3 10 6 -11 3 -44 16 -73 29 -29 13 -57 24 -63 24 -6 0 -9 6 -6 13 2 6 10 11 16 9 9 -2 10 11 5 45 -3 27 -8 50 -10 52 -2 2 1 12 7 22 6 13 6 19 -1 20 -5 1 -14 2 -19 3 -15 2 -26 16 -13 16 16 0 15 25 -2 39 -7 6 -14 30 -14 52 -1 23 -3 44 -6 47 -3 3 -6 -4 -6 -16 0 -12 -5 -22 -11 -22 -7 0 -9 -10 -5 -27 3 -16 10 -62 16 -103 6 -41 15 -87 20 -102 5 -16 5 -30 0 -33 -5 -3 -48 13 -94 35 -47 23 -102 44 -121 47 -20 3 -37 9 -40 12 -2 4 6 25 18 46 15 26 42 51 83 74 112 67 109 62 90 117 -9 26 -16 58 -16 70 0 32 -42 74 -74 74 -14 0 -26 -4 -26 -10z"/>
<path d="M1040 537 c0 -16 46 -58 54 -50 9 10 7 25 -3 19 -5 -3 -12 1 -15 10 -3 9 -11 12 -18 8 -8 -5 -9 -2 -5 9 3 10 2 17 -3 17 -6 0 -10 -6 -10 -13z"/>
<path d="M1150 532 c0 -6 7 -12 15 -16 24 -9 17 -26 -10 -26 -14 0 -25 -5 -25 -11 0 -5 5 -7 10 -4 6 3 10 1 10 -5 0 -8 6 -8 21 0 25 14 23 63 -3 68 -10 2 -18 -1 -18 -6z"/>
<path d="M2063 523 c-7 -2 -13 -11 -13 -19 0 -9 -10 -44 -22 -80 -20 -56 -21 -66 -8 -74 8 -5 12 -10 8 -10 -4 0 -3 -11 2 -25 6 -16 6 -25 0 -25 -6 0 -10 -5 -10 -11 0 -5 4 -8 9 -5 12 8 19 -70 8 -89 -5 -10 -3 -17 8 -21 9 -4 18 -4 21 -1 10 10 5 136 -6 156 -13 24 -13 72 -1 104 10 25 24 108 19 106 -2 0 -9 -3 -15 -6z"/>
<path d="M730 513 c0 -5 10 -21 23 -35 12 -13 32 -36 43 -50 17 -22 84 -65 84 -54 0 4 -81 87 -123 125 -15 14 -27 20 -27 14z"/>
<path d="M2098 508 c7 -9 28 -53 47 -99 18 -45 43 -94 55 -108 25 -31 23 -25 -28 98 -25 61 -47 100 -63 110 -22 15 -23 14 -11 -1z"/>
<path d="M679 458 c28 -57 63 -98 82 -98 7 0 2 8 -9 19 -12 10 -22 21 -22 25 0 12 -62 106 -70 106 -4 0 4 -24 19 -52z"/>
<path d="M466 493 c-4 -5 -11 -8 -14 -8 -22 0 -72 -30 -77 -46 -7 -22 -101 -119 -115 -119 -5 0 -10 -5 -10 -10 0 -6 -20 -25 -45 -42 -25 -17 -43 -33 -41 -36 3 -2 29 14 58 37 29 22 71 48 93 58 27 12 40 24 40 38 0 11 11 25 25 32 14 7 19 13 12 13 -10 0 -10 4 0 20 8 12 29 22 55 26 44 6 76 -8 149 -65 11 -9 0 3 -25 26 -26 24 -58 48 -73 55 -15 7 -24 16 -22 20 6 10 0 10 -10 1z"/>
<path d="M2610 485 c22 -13 23 -14 5 -15 -17 0 -17 -2 -5 -10 20 -13 33 -13 25 0 -3 6 -1 10 6 10 7 0 4 7 -7 15 -10 8 -26 14 -34 14 -9 0 -4 -6 10 -14z"/>
<path d="M1258 447 c-90 -38 -102 -47 -60 -47 16 0 32 4 34 10 2 5 20 16 41 25 34 14 37 14 37 -1 0 -13 5 -11 21 7 l20 24 -5 -40 c-3 -22 -6 -77 -6 -122 0 -49 -4 -83 -10 -83 -5 0 -11 12 -11 28 -1 18 -4 13 -9 -17 -8 -49 -3 -88 13 -98 6 -4 8 7 5 28 -3 22 0 37 8 44 7 5 16 37 19 70 3 33 9 80 14 105 8 49 -4 100 -22 99 -7 0 -47 -15 -89 -32z"/>
<path d="M1918 434 c-16 -25 -23 -42 -17 -38 6 3 15 0 20 -7 6 -10 9 -6 9 13 0 14 5 28 10 30 12 4 23 48 12 48 -4 0 -19 -21 -34 -46z"/>
<path d="M1689 429 c-6 -12 -9 -29 -6 -39 7 -26 -9 -48 -24 -33 -9 9 -9 16 -1 26 9 11 6 14 -16 14 l-28 0 19 -39 c11 -21 25 -38 33 -38 8 0 14 -5 14 -12 0 -6 9 -3 20 7 22 20 26 51 8 58 -10 3 -10 8 1 21 12 14 12 19 2 26 -8 4 -10 13 -7 19 4 6 5 11 2 11 -3 0 -10 -9 -17 -21z"/>
<path d="M1752 420 c-8 -16 -12 -38 -10 -47 2 -14 9 -9 26 18 25 41 28 59 9 59 -6 0 -18 -13 -25 -30z"/>
<path d="M2266 402 c-4 -11 -4 -32 -2 -48 5 -28 19 -163 20 -201 1 -11 4 -19 9 -16 4 2 8 -4 9 -14 0 -10 2 -23 2 -30 1 -6 5 -15 9 -19 4 -4 7 -17 7 -29 0 -22 26 -53 35 -43 3 2 0 20 -6 39 -40 134 -53 202 -63 341 -3 35 -12 45 -20 20z"/>
<path d="M547 394 c-3 -3 18 -25 46 -48 29 -23 66 -60 82 -82 17 -22 40 -48 53 -58 l24 -18 -17 31 c-16 33 -159 181 -173 181 -5 0 -11 -3 -15 -6z"/>
<path d="M652 354 c49 -70 128 -151 128 -133 0 9 -22 36 -48 60 -27 25 -57 59 -67 77 -10 17 -25 34 -33 37 -7 2 2 -16 20 -41z"/>
<path d="M1248 324 c-2 -41 0 -83 4 -92 4 -9 7 25 7 76 1 50 -1 92 -3 92 -3 0 -6 -34 -8 -76z"/>
<path d="M1308 350 c-6 -59 4 -87 13 -35 4 22 3 49 -1 60 -6 15 -8 9 -12 -25z"/>
<path d="M1391 327 c-1 -27 3 -46 8 -43 10 7 18 -80 17 -184 -1 -69 8 -100 30 -100 4 0 4 28 0 63 -4 34 -9 89 -12 122 -2 33 -13 89 -23 125 l-20 65 0 -48z"/>
<path d="M1906 351 c-10 -11 -31 -25 -47 -32 -20 -8 -26 -15 -18 -19 16 -11 76 26 82 50 6 25 4 25 -17 1z"/>
<path d="M450 349 c0 -6 6 -9 14 -6 8 3 32 -3 53 -13 l38 -19 -30 24 c-31 26 -75 34 -75 14z"/>
<path d="M1571 323 c-6 -21 -11 -53 -11 -71 0 -48 29 -142 46 -149 8 -3 14 -11 14 -18 0 -7 7 -15 15 -19 19 -7 19 -8 -10 56 -19 41 -25 75 -28 141 -2 48 -6 89 -9 93 -4 3 -11 -11 -17 -33z"/>
<path d="M1155 318 c-6 -22 10 -108 19 -108 2 0 4 24 4 53 0 63 -13 95 -23 55z"/>
<path d="M1608 313 c-7 -27 1 -36 19 -21 20 17 22 8 11 -52 -11 -63 -3 -133 18 -155 18 -17 34 -20 34 -5 0 6 15 27 33 46 46 51 50 61 34 84 -14 20 -14 20 -34 -3 -29 -31 -46 -67 -33 -67 8 0 8 -6 0 -20 -6 -10 -17 -17 -24 -14 -16 6 -25 64 -15 91 6 15 8 14 8 -6 1 -33 17 -16 24 27 4 19 2 32 -4 32 -6 0 -7 4 -4 10 8 13 -31 54 -43 46 -6 -3 -12 2 -14 11 -3 15 -5 14 -10 -4z"/>
<path d="M820 310 c-30 -7 -33 -34 -4 -38 15 -2 23 4 27 20 7 27 8 26 -23 18z"/>
<path d="M2453 294 c3 -10 17 -50 31 -89 14 -38 28 -100 32 -137 5 -49 11 -68 21 -68 10 0 12 6 8 20 -3 11 -8 32 -11 47 -11 67 -17 92 -41 161 -14 40 -30 75 -36 79 -6 4 -8 -1 -4 -13z"/>
<path d="M2505 294 c10 -8 31 -14 46 -14 14 0 42 -2 60 -5 30 -5 31 -4 11 5 -13 5 -49 14 -80 19 -49 7 -53 7 -37 -5z"/>
<path d="M1893 270 c-5 -17 -7 -18 -20 -4 -11 10 -19 12 -27 4 -7 -5 -16 -7 -19 -3 -4 3 -7 2 -7 -4 0 -14 68 -22 95 -13 18 7 18 9 3 15 -10 4 -15 11 -12 16 3 5 2 9 -1 9 -4 0 -9 -9 -12 -20z"/>
<path d="M278 256 c-82 -41 -115 -65 -142 -104 -14 -21 -26 -47 -26 -58 0 -23 39 -64 59 -64 8 0 2 9 -13 21 -14 11 -26 27 -26 35 0 20 7 18 40 -16 16 -17 40 -35 52 -40 13 -6 31 -15 40 -22 26 -18 30 -5 12 37 -12 30 -13 43 -4 66 16 38 114 129 139 129 32 0 70 -18 96 -46 35 -37 49 -25 18 15 -55 70 -158 90 -245 47z m12 -55 c0 -5 -7 -15 -17 -22 -9 -8 -25 -34 -36 -58 -16 -36 -17 -45 -6 -52 8 -5 9 -9 3 -9 -12 0 -35 18 -53 42 -10 14 -9 22 11 51 13 19 29 32 36 30 6 -3 12 0 12 5 0 9 16 17 43 21 4 0 7 -3 7 -8z"/>
<path d="M500 277 c0 -4 14 -26 30 -49 17 -22 30 -47 30 -55 0 -7 5 -13 11 -13 6 0 42 -19 80 -42 58 -36 71 -49 80 -80 5 -21 16 -38 24 -38 22 0 0 63 -35 100 -17 18 -30 36 -30 42 0 5 -8 7 -18 4 -12 -4 -26 1 -37 14 -10 11 -24 20 -32 20 -7 0 -13 5 -13 11 0 6 -9 22 -20 36 -11 14 -20 22 -20 18 0 -5 -11 2 -25 15 -14 13 -25 20 -25 17z"/>
<path d="M2577 228 c3 -18 10 -41 14 -50 13 -24 11 -56 -3 -61 -10 -4 -10 -6 0 -6 8 -1 12 -18 12 -50 0 -28 4 -52 9 -55 11 -7 4 142 -11 207 -11 52 -31 66 -21 15z"/>
<path d="M2707 243 c-4 -3 -7 -42 -7 -86 0 -88 11 -98 16 -15 2 29 6 65 9 81 4 26 -4 35 -18 20z"/>
<path d="M2750 225 c0 -8 9 -20 21 -28 11 -8 15 -17 9 -19 -7 -2 -6 -10 4 -23 14 -19 15 -19 9 5 -5 25 -5 25 12 5 16 -19 16 -19 1 5 -9 14 -19 33 -22 42 -8 21 -34 32 -34 13z"/>
<path d="M2819 186 c9 -19 20 -31 24 -27 11 10 -13 61 -28 61 -9 0 -8 -10 4 -34z"/>
<path d="M1840 186 c-14 -14 21 -37 38 -24 9 8 11 7 6 -7 -5 -12 -3 -16 6 -13 7 2 14 16 14 31 2 24 -2 27 -26 25 -16 -1 -33 -7 -38 -12z"/>
<path d="M2970 140 c0 -29 4 -40 15 -40 11 0 15 11 15 40 0 29 -4 40 -15 40 -11 0 -15 -11 -15 -40z"/>
<path d="M2156 108 c42 -75 50 -84 50 -58 0 11 -4 20 -8 20 -4 0 -8 14 -8 30 0 24 -4 30 -22 31 -13 0 -17 3 -11 6 10 3 10 8 -1 19 -33 32 -33 10 0 -48z"/>
<path d="M1762 127 c-18 -18 -32 -38 -32 -44 0 -11 147 -29 158 -19 3 4 -2 14 -13 24 -10 10 -14 11 -10 3 7 -12 0 -13 -40 -8 -27 4 -51 9 -53 12 -3 3 7 14 22 26 14 11 24 25 21 30 -10 15 -20 11 -53 -24z"/>
<path d="M13 143 c-7 -2 -13 -13 -13 -23 0 -14 10 -21 35 -26 37 -7 46 -29 23 -52 -7 -7 -8 -12 -2 -12 14 0 31 37 39 83 l6 37 -38 -1 c-21 0 -44 -3 -50 -6z"/>
<path d="M1261 118 c0 -7 4 -22 9 -33 7 -18 8 -19 15 -3 4 10 11 15 16 12 5 -3 9 3 9 12 0 10 -3 14 -6 11 -4 -3 -15 -2 -25 4 -14 7 -19 6 -18 -3z"/>
<path d="M2077 123 c-13 -12 -7 -61 8 -67 8 -3 15 -18 15 -33 0 -15 4 -23 8 -17 4 6 13 13 21 16 12 3 11 8 -5 24 -21 21 -34 81 -15 70 6 -4 11 -2 11 3 0 12 -33 15 -43 4z"/>
<path d="M580 89 c8 -15 7 -17 -5 -13 -8 4 -15 2 -15 -4 0 -16 59 -72 76 -72 18 0 18 8 -1 27 -9 8 -18 28 -22 43 -3 16 -13 30 -24 33 -16 4 -17 2 -9 -14z"/>
<path d="M1962 101 c-10 -6 -9 -11 3 -21 11 -9 19 -10 26 -3 13 13 -12 35 -29 24z"/>
<path d="M2448 96 c-20 -20 -17 -90 4 -94 12 -2 15 2 11 17 -3 11 0 34 5 50 12 34 1 49 -20 27z"/>
<path d="M2650 108 c-7 -18 -4 -86 3 -79 5 5 7 26 4 47 -2 22 -5 36 -7 32z"/>
<path d="M2006 65 c-7 -18 7 -27 31 -19 13 4 14 3 5 -3 -10 -8 -10 -12 2 -22 8 -7 19 -10 25 -7 5 3 12 0 14 -6 4 -10 6 -10 6 -1 1 13 -33 49 -61 64 -11 6 -18 4 -22 -6z"/>
<path d="M2738 68 c-16 -5 -28 -14 -28 -19 0 -6 5 -7 11 -4 6 4 43 13 82 20 l72 13 -55 0 c-30 0 -67 -4 -82 -10z"/>
<path d="M1928 47 c12 -13 22 -29 22 -35 0 -7 8 -12 17 -12 14 0 12 4 -7 25 -17 18 -19 25 -9 26 8 0 6 4 -6 9 -34 15 -39 11 -17 -13z"/>
<path d="M2820 53 c-25 -2 -52 -6 -60 -9 -23 -8 4 -20 63 -29 46 -7 47 -7 47 19 0 14 -1 25 -2 24 -2 -1 -23 -3 -48 -5z"/>
<path d="M83 33 c-4 -10 -11 -21 -17 -25 -7 -5 -4 -8 7 -8 9 0 17 7 17 15 0 8 5 15 10 15 6 0 10 -7 10 -15 0 -8 9 -15 20 -15 26 0 26 17 0 25 -11 3 -20 11 -20 16 0 16 -20 10 -27 -8z"/>
<path d="M2948 25 c-5 -23 -2 -25 26 -24 23 1 26 3 9 6 -28 5 -30 23 -3 23 11 0 20 5 20 10 0 6 -11 10 -24 10 -17 0 -25 -7 -28 -25z"/>
<path d="M961 37 c3 -4 23 -14 45 -23 33 -13 37 -14 24 -1 -14 15 -82 37 -69 24z"/>
<path d="M2680 16 c0 -13 10 -16 48 -15 42 1 44 2 17 9 -16 4 -38 11 -47 15 -13 5 -18 2 -18 -9z"/>
</g>
<script xmlns=""/></svg>