<svg xmlns="http://www.w3.org/2000/svg" width="400" height="382.667" version="1.0" viewBox="0 0 300 287"><g fill="currentColor"><path d="M126.6 41c-1.8 3.3-4 5.7-6.4 7-5.2 2.7-13.1 12.8-16.9 21.6-3.5 8-4.2 15.6-2.4 23.6.9 3.7 3.3 7.1 4.5 6.3.3-.3.2.1-.4.7-1.6 1.9-1.2 8.6.9 13.1 1 2.3 2.5 6.1 3.2 8.5 1 3.5 1.9 4.6 4.7 5.8 2 .8 4.1 2.3 4.8 3.3 1.6 2.2 10.7 4.8 11.2 3.2.2-.6.9-1.1 1.6-1.1.8 0 2.8-1.3 4.7-2.9 3.2-2.9 3.4-3.4 3.7-10.9.4-7.8.4-8-2.6-10-6.6-4.8-13.6-4.8-17.8-.1l-1.9 2.1 3.5-2.1c4.5-2.7 7.9-2.7 12.1.2 6.4 4.3 7.2 13.2 1.7 18.8-3.9 3.9-10.8 4.1-15.2.4-2.9-2.3-3-2.8-4-14.7-1.5-19.3-1.4-25.8.8-30.8 2.7-6.1 3.9-7 8.6-5.9 2.7.6 4.8.5 7-.5l3.2-1.3-2.3-1.7c-2.8-1.9-6.9-2.1-6.9-.4 0 1-.3.9-.9-.1-.7-1.1-1-1.1-1.5 0-.3.8-.3.4 0-.9.5-2.1.4-2.2-1.5-1-1.2.7-2.1 1.7-2.1 2.1 0 .5-1.3-.1-3-1.3-1.6-1.2-3-1.7-3-1.2s1.1 1.7 2.5 2.6 2.5 2 2.5 2.5-1.1.8-2.5.8-2.5-.3-2.5-.7-.9-1.8-2.1-3.1l-2-2.3.4 2.4c.3 1.4 1 3.7 1.5 5.1.7 1.8.7 3 0 3.7-.6.6-1.1 3.1-1.2 5.6-.1 2.4-.3 4.4-.6 4.3-1.7-.6-.5 4.9 1.5 7 .8.7 1.1 2.3.7 3.5-.5 2.2-.6 2.2-1.5-.5-.5-1.5-1.3-2.7-1.8-2.7-.9 0-.3 4.5 1.2 9.4 1.2 3.8 1.1 4.3-.5 4.3-1.8 0-2.6-5.2-2.7-17-.1-4.8-.4-8.7-.7-8.7s-1.4.8-2.5 1.7c-2 1.7-2 1.7-1.4 0 .4-1 .7-2.8.7-4 0-1.8.2-1.9 1-.7 1.5 2.5 2.4-1.5 1.2-6-.8-3.4-.7-4.3 1.3-7 1.5-2.1 2.5-2.7 2.8-1.8.3.7.6-.5.7-2.7.1-3.2.3-3.6 1-2s.9 1.3.9-1.7c.2-6.5 3.4-5.9 4.5.9.4 2.2 1.3 4.8 1.9 5.7 1 1.4 1.2 1.2 1.2-1.1.1-1.6.4-3.7.8-4.8.5-1.5.1-2.3-1.6-3-3.1-1.4-2.7-3.6 1.1-6.1 1.9-1.3 2.8-2.5 2.2-2.9-.8-.5-.8-1.1.1-2.1 1.7-2.1 2.9-1.7 2.9.8 0 4.9.2 6.4 1.3 8.6.8 1.7.8 2.5-.1 3.4-.7.7-1.2 2.1-1.2 3.3.1 2 .1 2 1.5.1.8-1.1 1.5-3.2 1.5-4.7 0-3.1 1.9-8 3.5-9.2.6-.4.5-1-.4-1.6-1.1-.7-1-1.4.5-4.2 1.1-1.9 2.5-3.9 3.3-4.5s1.1-1.6.7-2.2c-1.5-2.4 1.4-1.1 5 2.3 3.3 3.2 7.4 4.9 5.9 2.6-.3-.6.3-1.4 1.3-2 2.8-1.5 7.7 4.5 7.7 9.5 0 3.3.5 4.2 3.5 6.2 3.4 2.3 7.1 2.6 11 .8 1.1-.5 1.8.4 2.8 3.5 1.6 5.3 7.1 12.2 9.2 11.6 1.1-.3 2.1.6 2.9 2.4.7 1.6 1.9 2.9 2.6 2.9 2.5 0 4.5 11.1 4.9 26 0 3 .4 5.7.8 6 1.3 1.1 1.3 6.4-.1 5.6-.5-.3-.6 2.3-.3 6 .5 6.3.4 6.6-2.9 10-1.9 2-4.3 3.4-5.7 3.4h-2.4l.8 9.2c.5 5.1.9 13.3.9 18.3 0 8-.3 9.6-3 14.9-3.4 6.6-7.1 9.9-14 12.2-3.3 1.2-4.3 1.9-3.4 2.5 1 .6.8.9-.9.9-1.3 0-2.1-.4-1.8-.8s-.8-.7-2.5-.6c-1.6.1-2.9-.2-2.9-.7s-1.1-1.1-2.4-1.5c-1.3-.3-4-2.4-6.2-4.6-3.6-3.8-3.8-3.9-4.6-1.9-.9 2.5-2.1 2.7-3.8.6s-5.4-2-4.6.1c.3.9.6 2.5.7 3.7.1 2.2.1 2.2.7 0 .7-2.2.8-2.2 3.6-.8 3.5 1.8 3.6 1.8 3.6 0 0-2.2 1.7-1.8 2.3.5.3 1.2 1.4 2 2.7 2 1.1 0 1.8.4 1.5 1-.3.5.2 1 1.2 1 1.1 0 2.8.7 3.9 1.5 1 .8 3 1.5 4.4 1.5 5.2.1 7 1.1 7 4 0 2.7 2.2 6 3.9 6 .4 0 2.5 1.8 4.6 3.9 2.2 2.2 4.3 3.7 4.7 3.5.5-.3.8 0 .8.7 0 1.3-8.8 16.9-13.4 23.9-2.1 3.2-2.4 4.1-1 3 3.3-2.5 6.5-6.1 6-6.8-.5-1 3-7.2 3.8-6.7.3.3.4.2.1-.2-.3-.3 0-1.2.6-2 .7-.7 1.9-2.8 2.8-4.5 2.3-4.6 4.6-5 3.7-.7-.3 1.8-1 3.5-1.5 3.9-.7.4-1.2 7-.6 7 .2 0 1.5-2.6 3-5.7 2.5-5.4 2.8-5.6 4.1-3.8 1.8 2.4 1.8 4-.1 5.9-.8.8-1.5 1.7-1.5 2.1 0 .3-1.1 2.1-2.5 3.9-1.5 2-2.5 4.6-2.5 6.7v3.4l3.3-5.5c3.3-5.6 5.6-10.9 6.3-14.5.3-1.5-1-3.1-4.7-6-2.9-2.2-6.2-5.6-7.4-7.6-1.3-2-3.7-4.8-5.5-6.2l-3.1-2.7 3.2-4.7c1.8-2.7 5.3-7.4 7.7-10.6 5-6.5 5.7-9 7.2-22.8.9-7.9.8-10.1-.4-12.4-1.9-3.6-1.2-4.8 2.5-4.3 2.9.4 3.9-.5 1.9-1.7-.5-.3-1-1.3-1-2.1 0-1.2.4-1.3 2.1-.4 2.9 1.6 5.9 8.6 5.9 14 0 3.9.2 4.3 1.5 2.9 1.6-1.6.8-6.2-2.2-12.8-.9-1.9-1.9-4.6-2.3-6-.3-1.4-1.1-2.4-1.6-2.1s-.8.9-.6 1.5c.2.5 0 .7-.4.3s-1.9.1-3.4 1.2c-3.1 2.2-5 2.6-5 1 0-.6.5-1 1-1 .6 0 2.3-1.1 3.8-2.5 1.7-1.6 3.5-2.4 4.9-2.2 1.5.3 2.4-.3 3.3-2.2.8-1.8 1.4-2.2 1.9-1.2.7 1 1 1 1.3.1s1.8-.5 5.4 1.3c3.7 1.9 5.3 3.4 6.4 6.1.7 2 1.7 3.6 2.1 3.6s1 1.5 1.3 3.4c.4 1.9 1.3 3.6 2 3.9 1.3.5 3.6 7.6 4.1 12.7.1 1.4 1 5 1.8 8 .9 3 1.8 9.5 2.1 14.5.3 4.9.9 11.4 1.4 14.3.8 4.6.7 5.6-1 7.8-1.9 2.4-2.3 2.5-11.8 2-5.4-.2-10.7-.9-11.8-1.5-3-1.6-4.2-1.4-4.2.8 0 1.1-.4 2.3-1 2.6-.6.4-.7-.1-.3-1.1.4-1.2.3-1.5-.5-1-1.5.9-1.6 4.3-.2 5.1.7.4.5 1.4-.5 2.8-2.1 3-1.9 6 .6 7.5 1.7 1.1 1.9 1.9 1.4 5.5-.7 4.2.8 10.2 2.3 9.3.4-.2.7-2.3.5-4.6-.2-4.1-.2-4.1 2.8-3.5 2.8.6 2.9.6 1.9-2s-1.4-16.7-.5-17.6c.2-.3 2.1-.3 4.1-.1 3.8.5 4 1.1 1.9 7.7-.3 1.1.5-.1 2-2.8 2.4-4.4 2.8-4.7 6.5-4.7 4.4 0 5.2 1.8 2.5 5.6-.8 1.2-1.2 2.4-.9 2.7s.2 1.2-.2 1.9c-.5.7-1 2.2-1.1 3.3-.2 1.1-.7 4.4-1.2 7.3-.8 5.1-.7 5.4 2.4 8.8 3 3.2 3.4 3.4 4.9 1.9 2.4-2.4 2-3.5-1.4-3.5-1.8 0-3.3-.6-3.7-1.5-.7-2.1-.5-2.3 4.6-2.9 2.4-.2 4.7-1 5.1-1.6.6-.9.9-.9 1.2.1.9 2.5 1.7.4 1.9-4.9.1-2.8.5-4.9.9-4.7.4.3.7-.3.6-1.2-.1-1.8.1-1.9 10.3-7.2 3.4-1.8 6.1-3.5 5.8-3.7-.3-.3-1.9.2-3.7 1.1s-3.4 1.4-3.7 1.1c-.3-.2 1.9-1.7 4.9-3.2 2.9-1.4 6.6-3.6 8.2-4.7 2.5-1.8 2.9-1.8 2.3-.4-.6 1.6-.4 1.6 1.6.2 2.3-1.4 4.4-4.1 9.1-11 3.4-5 4.2-1.9 1 4.1-1.4 2.5-2.2 4.9-1.9 5.3.4.3 1.1-.2 1.6-1.2.6-.9 1.4-1.7 1.9-1.7 1.4 0-.1 3.3-2.3 5-2 1.6-4 8.8-2.9 10.4.4.6.9-.5 1.2-2.4.3-2 1.1-3.4 1.8-3.2.7.1 1.1-.1 1.1-.5-.7-4.2 2.4-4.4 4.1-.4.9 2.3.9 4.2.1 8.1-.6 2.8-1.1 6.5-1.1 8.3.1 3.2.1 3.2 1.4.8l1.3-2.4 1.1 3.1c.7 2 .7 3.4.1 3.7-1.5 1-1 2.5.6 1.9 1.2-.5 1.5.3 1.5 4.2 0 3.4-.3 4.5-1 3.4-.5-.8-1.2-1.1-1.6-.8-.3.4.3 1.9 1.3 3.5 1.1 1.5 3 4.5 4.2 6.6l2.3 3.7-2.3-.3c-1.3-.2-2.5-.9-2.7-1.6-.4-1.3-6.8-4.8-12.2-6.8-4.4-1.6-22.8-2-25.5-.6-1.1.6-3.8 1.3-6 1.6l-4 .5 4-1.8c3.5-1.6 3.7-1.9 1.5-1.9-1.4 0-3.2.3-4 .9-2.1 1.3-3-.7-1.8-4.1 1.4-4.1 7.1-8.7 15.5-12.5 7.5-3.5 9.3-4.9 4.6-3.8-8.9 2.2-22.3 12.1-22.3 16.5 0 1-.7 1.9-1.5 1.9-1 0-.2 1.2 2 3.1 5.2 4.6 8.1 10.3 10 19.4 1.9 9.4 2.5 10.5 2.5 4.4-.1-3.7-1.8-10.1-4.4-15.9-.4-1.1.1-1.5 2-1.6 1.8-.2 2.4.2 2 1.2-.7 1.8 1.1 1.7 4.9-.1l3-1.5-3.2.6c-1.7.3-3.4 0-3.8-.5-.3-.6-1.7-1.1-3-1.1s-3-.3-3.9-.6c-2.7-1-1.8-2.5 1.7-2.5 1.7 0 8.4-.2 14.8-.5 11-.6 11.8-.5 13.8 1.5 1.9 1.9 2.5 1.9 2.3 0-.2-.9 9.5 3.8 10.2 5 1.1 1.6-1.1 2.2-2.4.6-.7-.8-1.7-1.5-2.3-1.5-.5 0 0 .9 1.3 2s3.3 2 4.4 2c2.6 0 5.6 4.6 5.6 8.4 0 1.4.4 2.6 1 2.6.5 0 .7-.6.4-1.4-.4-1.1 0-1.3 1.6-.9s2 1.1 1.6 2.7c-.3 1.1-.6 2.5-.6 3.1 0 .5-.5.3-1-.5-.8-1.2-1-1.1-1 .7 0 1.2-.3 2.8-.6 3.7-.5 1.3.1 1.6 3 1.6 3.5 0 3.6-.1 3.6-3.7 0-2 .7-4.5 1.7-5.5 1.5-1.7 1.5-1.8-.5-1.8-3.6 0-5.8-7-3-9.8.9-.9.4-1.2-2.3-1.2-3.3 0-3.7-.3-4.8-4.1-.7-2.3-1.6-7.8-2.1-12.3-.5-4.4-1.8-10.5-3-13.4-1.1-2.9-2-7.5-2-10.2 0-2.8-.7-6.7-1.5-8.7-.9-2.1-1.9-7.3-2.4-11.8-.9-9.4-2-11.7-9.2-20-9.6-11.1-21.4-18.4-33.9-21-10.8-2.3-13.9-4.5-14.2-10.5-.1-1.4-4-7.8-6.2-10.2-1.4-1.5-5.1-3.5-8.1-4.4-5.8-1.9-6.4-2.7-4.1-5.3 1.1-1.3 1.3-2.6.6-5.6-.5-2.2-1.6-10.4-2.4-18.2-1.8-17.7-3.2-21.1-11.9-28.7-7.3-6.5-10.3-11.2-8.5-13.4.7-.7 2.4-2 4-2.8 4.3-2.2 3.5-3.7-1.7-3.2-2.5.3-4.5.2-4.5-.2 0-.5-2.9-3.1-6.5-5.9-5.5-4.3-7.1-5.1-10.8-5.1-2.4 0-4.7-.4-5.2-.9-1.2-1.2-12.4-3.1-18.1-3.1-3.9 0-4.2.3-6.8 5m3 6.5c-.1 2.5-.4 4.5-.8 4.5-.5 0-.8-.6-.8-1.3 0-.8-.4-.7-1 .3-.7 1.1-.8.5-.3-2 .5-2.7 1.9-5.6 2.9-6zm37.3 3.1c1 1.3 2.5 2.4 3.2 2.4 2.2.1-3 4-5.2 4-1 0-1.9-.5-1.9-1 0-.6-.9-1-2-1-2.6 0-3.4-1.9-2.1-5.2.8-2.1 1.5-2.5 3.6-2.1 1.4.3 3.4 1.6 4.4 2.9M236 157.8c2.5.9 6.2 2.6 8.2 3.9 2.1 1.3 4 2.3 4.4 2.3 1.3 0 3.9 3.4 4 5.4.3 4.6 1.7 9.7 2.4 8.9.5-.4.5-2.7.1-5-.5-2.3-.6-4.5-.3-4.8 1.1-1.1 5.2 4.9 5.2 7.6 0 1.5.5 3.1 1 3.4.6.4 1-.5 1-2.1v-2.7l2.5 2.3c1.3 1.2 2.2 2.7 1.9 3.1-.3.5 0 .9.5.9.6 0 1.1.7 1.1 1.6s.7 2.2 1.6 2.9c1.4 1 1.5 1.7.4 4.9-1 3.1-8.3 13-9.2 12.5-.3-.2-6.4 3-11.6 6.1l-3.3 2 .6-2c.4-1.2.2-2-.5-2-.6 0-1 .3-.8.7.2.5-2.5 3.7-6 7.3l-6.2 6.5.6-3.5c.4-1.9 1.1-4.3 1.6-5.2.6-1.3.5-1.6-.6-1.2-2.1.8-3.6 5.9-3.6 12.3 0 5.7-.9 8.4-2.6 7.9-.5-.1-2.4.3-4.2 1.1s-3.5 1.1-3.8.8c-.6-.5 2.8-13.8 4.7-18.8.6-1.5 1.8-2.6 2.7-2.5 1.1.1 2.2-1.3 3.2-4.2 1.3-3.7 1.3-4.4.1-5.2-1.3-.7-1.2-1.5.2-5.1 1.3-3.2 1.4-4.6.6-5.4-.9-.7-1-.5-.6.7.3.9 0 2.1-.7 2.7-1.9 1.6-2.5-1.3-2.4-10.3.1-3.9-.3-8.2-.9-9.6-2.7-6.5-2.6-7 .5-7 6.2 0 20.5 9.1 23.9 15.3.7 1.2 1.2 1.8 1.3 1.3 0-1.5 4 3.6 4 5.1 0 .7.6 1.6 1.4 1.9.9.3 1.2 1.3.9 2.2-.4.9.8.3 2.5-1.5 2.5-2.6 3.2-2.9 3.5-1.5.3.9.4.3.3-1.5 0-1.7-.5-2.9-1-2.6s-.6 0-.4-.8c.3-.8 1.1-1.3 1.7-1.1 1.8.4 1.3-.6-1.3-2.3-1.3-.8-3-1.3-3.8-1-2.3.9-2 5.2.4 5.8 1.7.5 1.8.8.7 2.9-.9 1.7-1.4 1.9-1.7.8-.7-2-1.8-3.3-10.2-11.6-8.1-8.1-14-11.7-20.8-12.9-2.4-.4-4.1-.9-3.9-1.1.2-.3 0-2.5-.4-5-.5-2.6-.6-5-.4-5.5.7-1 5.5-.2 11.5 1.9m-35.6 70.1c-1.5 1.5-1.6 1.1-1.1-5.9.8-11.2 2.1-13.1 2.5-3.6.2 6.4 0 8.3-1.4 9.5"/><path d="M236.6 178.1c-3.7 10.6-4.3 12.9-3.7 13.3.9.6 5.6-13.2 4.7-14.1-.3-.3-.8 0-1 .8M242.2 200.7c-.3 4.3 1.2 3.6 2.3-1 .5-2 .3-2.7-.7-2.7-.9 0-1.5 1.3-1.6 3.7M139 52.6c0 .5.5 1.5 1.2 2.2s.8 1.2.2 1.2c-.5 0-1.5-.5-2.2-1.2-1.5-1.5-2.7-.4-1.9 1.6.4.9 1.3 1.3 2.2 1 1.3-.5 1.4-.2.5 2-1 2.8 0 3.5 1.9 1.2 1.3-1.5.8-6.3-.9-8-.6-.6-1-.6-1 0M123 61.2c-.7 1.5-.9 3.5-.5 4.5.6 1.5.9 1.2 1.7-1.5 1.2-4.4.4-6.4-1.2-3M132.9 66.2c.5 2.3 1.2 3.3 2.6 3.3 1 0 2-.6 2.3-1.4.3-1 0-1.2-1.2-.8-1 .4-1.6.1-1.6-.7 0-.7-.6-1.9-1.4-2.5-1.1-.9-1.2-.6-.7 2.1M144.4 69c.4 2.2.2 3-.8 3-.8 0-1.6-.6-1.9-1.3-.3-.9-1-.9-3.1.2-2.3 1.3-2.5 1.7-1.2 2.9.8.9 3.4 1.4 6.6 1.4 5.3 0 7.3-.8 5.2-2.1-.7-.4-1-1.5-.6-2.4.3-.9 1-1.4 1.5-1.1s.9 0 .9-.5c0-.6-.7-1.1-1.5-1.1s-1.5.4-1.5 1c0 .5-.4 1-1 1-.5 0-1-.9-1-2s-.5-2-1.1-2c-.7 0-.9 1.1-.5 3M158.6 73.5c.9 1.4 2 2.6 2.5 2.6.5.1 1.4.3 1.9.4.6.1 1.9.3 3.1.4 1.1 0 1.7.5 1.4 1.1-.3.5-.1 1 .4 1 2.6 0-.2-3.9-3.1-4.4-.7-.1-2.4-.9-3.8-1.9-3.4-2.4-4.3-2.1-2.4.8M108.5 83c-.4 2.8-.5 5.3-.2 5.6.2.3.7-1.9 1.1-4.7s.5-5.3.3-5.6c-.3-.2-.8 1.9-1.2 4.7M180.2 96.5c-.1 2.4-.7 5.6-1.2 7-.6 1.7-.6 2.4 0 2 .5-.3 1.2.7 1.5 2.2.4 1.5 1 4.6 1.5 6.9.5 2.2.7 6.5.5 9.5l-.5 5.4 1.6-3.8c.9-2 2.1-3.7 2.5-3.7.5 0 .9-.9.9-2s-.4-2-.9-2c-.8 0-2.1-2.5-2.6-5-1-4.9-1.9-7.7-2.7-8.7-.9-1.2.9-5.3 2.4-5.3 1.3 0 .9-3.3-.6-5.3-1.9-2.5-2.3-2.2-2.4 2.8M176 96.1c1.3 4.6 2 4.8 2 .6 0-2.5-.4-3.7-1.4-3.7-1.2 0-1.3.7-.6 3.1M158.5 102.4c-3.7.8-6.3 2-7 3.1-.5 1-1.7 2.6-2.6 3.5-2.3 2.4-3 4.8-3.5 11.3-.4 5.5-.3 6 2.6 8.5 1.6 1.5 3 3.2 3 3.9s.4 1.3 1 1.3c1.6 0 2.3 4.9 1 6.5-.7.8-.8 1.5-.2 1.5 1.9 0 3.4-2.9 2.8-5.7s-.6-2.8 3.9-2.5c3.7.3 5.2-.1 8-2.3 5.2-3.9 6.6-8.1 5.4-15.7q-1.05-6.3 0-6.6c1.9-.6-1.1-5.1-4.3-6.3-1.7-.7-3.3-1.4-3.6-1.5s-3.2.3-6.5 1m9.5 7.8c5.2 7.2 5.2 11.2-.1 17.3-2.7 3.1-3.7 3.5-7.9 3.5s-5.2-.4-7.9-3.5c-2.6-3-3.1-4.4-3.1-8.5s.5-5.5 3-8.4c3-3.4 4.8-4.2 10.2-4.5 2.2-.1 3.4.8 5.8 4.1"/><path d="M164.6 116.6c-.7 1.9.1 3.4 1.9 3.4s2.6-2.5 1.2-3.9c-1.5-1.5-2.4-1.4-3.1.5M53.6 110.2c.6 17.5 1.5 34.5 1.9 37.3.2 1.6.5 7.6.6 13.3.1 9.5.3 10.4 2.4 11.8 2.5 1.6 11.7 5.3 15.1 6 1.2.2 4.1 1.1 6.5 2 2.4.8 5.1 1.7 5.9 1.9s2.9.9 4.5 1.6c1.7.6 3.5 1.3 4.1 1.4.6.2 2.6.6 4.4 1 2.9.6 3.1.5 1.9-.8-.8-.8-1.8-1.3-2.4-1.1-.5.2-2.1-.3-3.5-1.1-4.4-2.5-9.3-4.5-10.4-4.3-.6 0-2.4-.4-4.1-1.1-1.6-.7-3.4-1.4-4-1.5-.5-.2-2.1-.7-3.5-1.3-1.4-.5-4.8-1.8-7.7-2.8-4.1-1.5-5.3-2.4-5.7-4.4-.7-3.4-2.2-28.5-3.1-51.8l-.4-9.2 4.1 1.5c2.3.8 4.7 1.9 5.5 2.5.7.6 1.3.9 1.3.6s2.6.7 5.8 2.2c3.1 1.6 8.9 4.1 12.7 5.5 3.9 1.5 9 3.6 11.5 4.6 7.3 3.1 9.1 3.4 8.4 1.5-.4-.9-.9-1.4-1.1-1.1-.3.2-2.9-.7-5.9-2s-6.1-2.4-6.9-2.4-1.5-.5-1.5-1-.3-.9-.7-.8c-1.4.4-11.3-3.6-11.3-4.6 0-.5-.3-.6-.6-.3-.4.4-1.9 0-3.3-.8-2.5-1.3-20.1-9.5-20.6-9.5-.1 0-.1 3.3.1 7.2M123.5 121c-.4.7-.3 1.6.3 2.2 1.4 1.4 4.5.2 4-1.5-.6-1.6-3.4-2.1-4.3-.7M147 137.4c0 2-3.5 2.9-6 1.6-2.1-1.1-2.6-.4-1.1 1.9.5.8 1.6 1.1 3 .6 1.3-.4 2.1-.2 2.1.5 0 1.5 5.1.4 6.2-1.3.7-1.2-1.8-4.7-3.4-4.7-.4 0-.8.6-.8 1.4M141.4 156.9c-.6.6-.5 4.7.2 6.5.6 1.6 3.4 2.3 3.4.8 0-.5 1.3-.7 2.9-.4 1.6.2 3.2-.1 3.6-.8.5-.8-.2-1.1-2.1-1-7.5.5-6.7-1.7.9-2.6 3.9-.5 4.7-.3 4.7 1.1 0 .9.5 1.3 1 1 1.7-1 1.1-4.5-.7-4.6-4.3-.4-13.5-.4-13.9 0M157.7 163.8c-2 2-3.7 4.3-3.7 4.9 0 .9-1.6 1.3-4.5 1.3-2.6 0-4.5.5-4.5 1.1s-.7.8-1.6.5c-1-.4-1.4-.1-1.2.6 1.3 3.8 17.5.7 16.5-3.1-.2-1 0-2.6.5-3.6.8-1.4 1.2-1.5 1.9-.4.6 1 .9.4.9-1.9 0-1.7-.1-3.2-.2-3.2-.2.1-2 1.8-4.1 3.8M200.5 168.3c-.4 1.7-.8 4.9-.9 6.9-.1 2.4-1.4 5.3-3.4 8.2-1.8 2.4-3.7 6.8-4.3 9.7-.9 4.5-2 6.2-6 10-2.7 2.5-4.9 4.8-4.9 5.2 0 1.5 2.1.6 5.5-2.4 2.9-2.6 3.6-2.8 4.1-1.5.3.9.3 2.4-.1 3.3-.4 1.3-.3 1.5.4.8.6-.6 1.8-4.2 2.6-8 .9-3.9 2.9-10.4 4.5-14.5s3.1-9.5 3.4-12c.2-2.5.7-5.2 1.1-6.1.3-1 .2-2-.3-2.3s-1.3.9-1.7 2.7M165 173c0 1.6-.4 3-.9 3s-1.1 1-1.3 2.2c-.3 2.1-.4 2.1-1.8.7-1.2-1.4-1.7-1.4-2.5-.3-.5.7-2.7 1.5-4.7 1.8-9.5 1.1-10.6 4.2-1.5 4 4.5-.1 6.4-.7 9.2-2.8 1.9-1.5 3.5-3.3 3.5-4 0-.8.7-1.6 1.5-2 .8-.3 1.5-1 1.5-1.6s-.5-.8-1.1-.4c-.8.4-.9 0-.4-1.5.4-1.2.2-2.1-.4-2.1s-1.1 1.3-1.1 3"/><path d="M193.8 176.8c-5.7 6-11.6 14-14.3 19.4-4.2 8.4-2.2 7.7 2.8-.9 2.6-4.5 7.2-11.1 10.3-14.8 6.1-7.2 7-9.8 1.2-3.7M95 190.4c-1.4 3.9-1.2 11.1.4 15.1.8 1.9 1.6 3.5 1.8 3.5.5 0 0-20.2-.6-20.7-.3-.3-1 .6-1.6 2.1M111.2 192.5c-.7.8-.8 1.5-.3 1.5s1.2.8 1.4 1.7c.4 1.5.6 1.4 1.2-.5.4-1.3 1.3-2.1 1.9-1.9 1.2.4.9 4.6-.5 6.3-.5.6-.5 1.4-.1 1.8s.2.7-.3.6c-2.9-.6-3.4 0-2.4 2.7.5 1.5.8 3.8.4 5-.3 1.3-.1 2.3.4 2.3 1.8 0 3.3-3.1 2.8-5.7-.3-1.7 0-3.4.9-4.4.7-.8 1.7-2.9 2-4.6.5-2.8.2-3.3-2.4-4.7-3.7-1.9-3.4-1.9-5-.1M120 192c0 1 8.5 3.7 17.3 5.5 1.5.3 2.7 1.2 2.7 2 0 .9.6 1.2 1.5.9 1.1-.5 1.3-.2.9 1-.5 1.2 0 1.6 1.8 1.6 1.6 0 2.9.8 3.6 2.2.9 1.9 1.1 2 1.1.5.1-1.6.6-1.7 3.4-1.2 1.7.4 3.8 1.2 4.6 1.9 1.1.8 1.3.8 1-.3-.3-.8-2.1-2-4.1-2.7-1.9-.6-5.4-2.4-7.6-3.8-2.3-1.4-4.6-2.6-5.2-2.6s-2.2-.7-3.5-1.6c-1.4-.9-3.2-1.3-4.1-1-.8.3-2.4.2-3.3-.4-2.8-1.4-10.1-2.9-10.1-2M89.2 198c-1 1.1-2.5 3.1-3.2 4.5-1.1 2.1-1.1 2.7.2 4.2.9 1 2.4 3.4 3.3 5.3 1 1.9 2 3 2.2 2.3.2-.6-.3-2.5-1.2-4.2-3-5.9-3.5-8-2.2-9.3 2.3-2.5 3.9-4.8 3.4-4.8-.4 0-1.5.9-2.5 2M126 199.3c0 1.4 8.1 9.7 9.4 9.7.5 0-.4-1.2-1.9-2.7s-3.3-4-4.1-5.5c-1.5-2.9-3.4-3.7-3.4-1.5"/><path d="M89.9 204.7c.6 1.2 1.6 2.5 2.2 2.8.5.4 2.2 3.2 3.7 6.3 1.7 3.7 2.8 5.1 3 3.9.4-2.2-3.7-9.4-7.3-12.7-2.6-2.3-2.7-2.3-1.6-.3M81.6 206.9c-1.7 1.8-1.6 2.1.4 6.1 2.4 4.7 4 4.7 2 .1-.7-1.7-.9-4.2-.6-5.6.8-3 .5-3.1-1.8-.6M106.8 210.9c-1.1 2.8-1.3 4.2-.5 5s.6 1.1-.8 1.2c-1.1 0-1.4.3-.7.6.6.2 1.2 1.4 1.2 2.5 0 1.6-.5 1.9-2.3 1.4-2-.5-2.2-.2-2.2 3.4 0 3 .4 4 1.5 4 .9 0 2.1.5 2.8 1.2.9.9 1.2.8 1.2-.5 0-.9-.9-2.1-2.1-2.7-1.8-1-1.9-2.5-.1-2.5.4 0 1.3-.4 2.1-.9 1.1-.7 1.3-.5.8.7-.3 1-.2 1.7.3 1.7.6 0 1-.6 1-1.3 0-.8.4-.7 1 .3.8 1.3 1 1.2 1-.3 0-1.1-.9-2.1-2-2.4s-1.8-.9-1.5-1.3c.3-.5.7-3 1-5.6s.7-5.6 1.1-6.6c1.1-3.5-1.3-1.7-2.8 2.1M123.1 211.5c.6 2 .8 4.3.5 5.1-.3.9-.1 1.2.4.9.6-.3 1-.1 1 .4 0 .6.6 1.1 1.3 1.1 1.1 0 1-1.1-.4-5.2-2-6.1-4.3-8-2.8-2.3M117.9 211.7c-2.2 6.1-2.1 5.9-.6 4.3 1.5-1.5 3.2-7 2.2-7-.3 0-1 1.2-1.6 2.7M74.2 213.8c-2.9 2.7-4.2 4.7-4.2 6.5 0 4.5 8.2 15.7 11.6 15.7.3 0-1-1.9-2.9-4.3-5.8-7.1-7.1-11.1-4.4-13.9 1.3-1.4 4.8-7.8 4.3-7.8-.1 0-2.1 1.7-4.4 3.8"/><path d="M85.1 211.5c1.3 3 3.3 7.3 4.3 9.4 1.6 3.6 8.3 10.7 9.2 9.9.4-.4-.5-2-2-3.5-1.6-1.5-3.7-4.6-4.8-6.8-1.8-3.5-7.9-11.7-6.7-9M143.2 217.2c.5 1.5 6.8 2.4 6.8 1 0-1.2-2.4-2.2-5.2-2.2-1.1 0-1.8.5-1.6 1.2M80 220.4c0 .8 1.6 3.2 3.5 5.3 4 4.3 4.8 3 1-1.5-1.4-1.7-2.5-3.5-2.5-4.1s-.4-1.1-1-1.1c-.5 0-1 .6-1 1.4M95 221.9c0 1 1.1 2.6 2.5 3.5s2.5 1.2 2.5.6-.7-1.3-1.5-1.6c-.8-.4-1.5-1.5-1.5-2.5s-.4-1.9-1-1.9c-.5 0-1 .8-1 1.9M63.1 223.4c-1.8 1.3-2.8 2.6-2.4 2.9 1.1.7 7-3.9 6.2-4.7-.3-.3-2 .5-3.8 1.8M191 223.3c0 .8.5 1.9 1 2.2 1.6 1 1.2 2.8-.5 2.1-.9-.3-1.5 0-1.5 1 0 .8.5 1.2 1 .9.6-.3 1 .1 1 .9s-.4 1.8-1 2.1c-.5.3-1 .1-1-.6 0-1-.3-1-1.2-.1-1 1-1 1.5.1 2.1 1.7 1.1.5 3.2-1.3 2.5-2-.8-3 1.4-1.5 3.2.9 1.1.9 1.8.1 2.6-.9.9-1.2.9-1.2-.1 0-.7-.5-.9-1.1-.5-.8.5-.8.9.1 1.4.9.6.9 1.2 0 2.9-.9 1.8-1.4 2-2.5 1.1s-1.7-.5-2.9 2.4c-.8 2-2.2 3.9-3.1 4.2-.9.4-1.3 1.3-1 2.4.3.9-.1 2.3-1 3-2.2 1.8-1.9 2.7 1.4 3.8 2.6.9 3.2.8 4.5-1.3 1-1.5 1.2-2.6.6-3s.5-2.5 2.5-4.9c3.4-4.2 4.5-6.3 2.5-5.1-1.5.9-1.2-1.1.3-2.4.8-.6 1.7-.8 2.1-.4s.4-.1 0-1.1c-.6-1.5-.4-1.7.6-1.1q1.35.75.6-.3c-.6-1.1 2.8-9.2 3.9-9.2.3 0-.4 1.8-1.5 4s-1.8 4-1.5 4c.2 0 1.4-1.9 2.6-4.3 2.8-5.3 3.1-11.5.7-14.1-1.5-1.7-1.8-1.7-1.8-.3m-10.4 31.1c-3.6 4.4-4.5 6.3-2.6 5.1.6-.3 1-.1 1 .5 0 .7-.6 1-1.4.7-.7-.3-1.9 0-2.6.6-2.5 2.4 1.3-3.7 4.9-8 4.8-5.5 5.4-4.6.7 1.1M112 224.2c0 .5 1.1.8 2.5.8 2.2 0 2.4.2 1.3 1.4-.9 1-1.5 1.1-2 .2-.5-.6-.8-.7-.8-.1s.9 1.9 2.1 2.8c2 1.7 2.2 1.8 4 .1 2-1.8 2.5-3.4 1-3.4-.5 0-1.2.8-1.4 1.7q-.45 1.95-.6-.6c-.1-2.3.1-2.4 5.2-1.8 2.8.4 6.3.9 7.5 1.3 2.2.6 2.3.5 1.1-1.4-.7-1.2-1.6-1.7-1.9-1.3-.3.5-4.4.6-9.2.2-4.9-.3-8.8-.3-8.8.1M140.5 225l2 2.3-3.4-.6c-5.2-1.1-2.2 1.7 4.8 4.4l5.8 2.3.8 13.5c.4 7.5.9 18.3 1.1 24.1s.6 11.4.8 12.5c.3 1.1.5 2.4.7 3 .1.6.5-.6.8-2.5.4-1.9.3-4.5-.1-5.8-.5-1.5-.3-3.1.6-4.5 1.2-1.8 1.3-4.5.6-14.2-.5-6.5-.7-12.2-.4-12.6.2-.4 0-1-.6-1.4-.5-.3-1-2.5-1-4.9 0-2.3-.6-4.8-1.2-5.4-1-1-1-1.5.1-2.1 1-.6.2-1.2-2.5-2.1-6.2-2-8.7-5-4.2-5 3.2 0 1-1.8-3.2-2.6l-3.5-.7zM267 224c-.8.5-5.8 2.8-11 5-10.1 4.5-13.7 6.8-8.5 5.6 3.8-.9 19.2-8.5 20.6-10.3 1.3-1.5 1-1.6-1.1-.3M167.2 228.3c-1.2 1.3-1.9 2.6-1.6 3 .3.3-.9.4-2.7.2l-3.4-.4 2.5 2 2.5 2.1-3-.6c-2.7-.6-2.8-.5-1.2.7 2.3 1.9 2.2 3.1-.4 2.4s-4.9 1.3-4.9 4.2c0 1.5.6 2.1 2.3 2.1s3.4-2 7.5-8.6c5.4-8.8 6.2-11.2 2.4-7.1M54.8 230.2c-4.4 2.7-6.8 6.5-3.3 5.2.8-.4 1.5-.1 1.5.5s.6 1.1 1.4 1.1c.7 0 3 1.3 5.1 3 4 3.2 4.5 3.4 4.5 2.2 0-.4-2.2-2.5-5-4.7-2.7-2.2-5-4.2-5-4.5s1.8-1.4 4-2.4 3.7-2.3 3.4-2.7c-.8-1.3-1.4-1.1-6.6 2.3M65 228.5c0 1.6 2.7 3.2 3.7 2.2.5-.6-2.1-3.7-3.1-3.7-.3 0-.6.7-.6 1.5M81.1 228.1c-.1 1.8 4 7.6 6.6 9.4 1 .6 2.9 1.5 4.3 1.8l2.5.6-2.5-2c-5.1-4.2-7.5-6.6-9.2-8.9-1.2-1.8-1.7-2-1.7-.9"/><path d="M125.6 227.7c-1.4 1.4-.4 2.3 2.7 2.3 2.9.1 3 .2 1.2 1.2-1.9 1.2-1.8 1.3.9 1.8 2.8.5 2.9.6 1.3 2.2-.9.9-1.7 2.3-1.7 3 0 .8.4.7 1.1-.5.5-.9 1.8-1.7 2.7-1.7 1.5 0 1.5.2.2 1.1s-1.3 1 0 .6c.8-.2 1.3-1.1 1.2-1.8-.2-.8-.5-2.5-.6-3.8-.2-1.3-.9-2.7-1.7-3.1-2.4-1.2-6.6-2-7.3-1.3M93 233c0 .5 1.5 1.7 3.3 2.6 5.1 2.6 6.3 5.8 2.6 6.9-1.7.6-2.4 1.5-.9 1.2.3 0 1.5.5 2.8 1.2 2.2 1.1 2.2 1.3.5 3.5-1 1.3-2.3 2.2-2.9 1.9-.6-.2-2.5.7-4.2 2.1-1.6 1.5-3.7 2.6-4.7 2.6-.9 0-1.4.4-1.1.9.4.5-.5 2.2-1.8 3.8-1.4 1.6-2.8 4.1-3.1 5.6-.4 1.5-1.1 3-1.6 3.3-1.4.8-1.1 2.4.5 2.4.9 0 1.9 2 2.7 5.5 1.5 6.6 3.2 7.3 2.7 1-.3-4.3.4-5.7 1.8-3.4.3.6 1.5.9 2.5.6s2.2-.1 2.5.4-.3.9-1.3 1c-1 0 .3.6 2.8 1.3s5.8 2.2 7.3 3.3c1.5 1.2 3.4 1.9 4.6 1.6 1.5-.4 2 0 2 1.3 0 1.4.3 1.5 1.2.6 1.7-1.7 4.3-1.5 8.5.8 2.1 1.1 5.1 1.9 6.8 1.9 2.1-.1 2.4-.3 1-.6-1.1-.3-4.4-1.6-7.3-2.9s-5.7-2.4-6.3-2.4-.9-.6-.6-1.3c.2-.6 1-1.1 1.6-.9.9.2 1-1.1.5-4.5-.3-2.7-.8-5-1-5.2s.1-1.2.7-2.2c.6-1.3.6-1.9-.1-2-.5-.1-1.4-.2-1.9-.3-1.5-.2-2.6-1.6-1.3-1.6 1.6 0 1.5-2.5-.2-3.9-.7-.6-1.4-3-1.4-5.2-.1-2.3-.3-4.4-.6-4.7s-.6.4-.6 1.6-.5 2.2-1.1 2.2c-.7 0-.9 1-.5 2.7.3 1.6 1 6.2 1.6 10.3s1.5 8.7 2 10.2c.5 1.6.5 3 0 3.3s-4.8-1.3-9.4-3.5c-4.7-2.3-10.2-4.4-12.1-4.7-2-.3-3.7-.9-4-1.2-.2-.4.6-2.5 1.8-4.6 1.5-2.6 4.2-5.1 8.3-7.4 11.2-6.7 10.9-6.2 9-11.7-.9-2.6-1.6-5.8-1.6-7 0-3.2-4.2-7.4-7.4-7.4-1.4 0-2.6.4-2.6 1M104 233.3c0 1.6 4.6 5.8 5.4 5 .9-1 .7-2.5-.3-1.9-.5.3-1.2-.1-1.5-1s-1.1-1.2-1.8-.8c-.8.5-.9.2-.5-.9.3-1 .2-1.7-.3-1.7-.6 0-1 .6-1 1.3M115 233.8c0 .6.7 1.2 1.5 1.6 2.4.9 1.7 2.6-1 2.6-1.4 0-2.5.5-2.5 1.1 0 .5.5.7 1 .4.6-.3 1-.1 1 .5 0 .8.6.8 2.1 0 2.5-1.4 2.3-6.3-.3-6.8-1-.2-1.8.1-1.8.6M206.3 234.7c-.7.2-1.3 1.1-1.3 1.9 0 .9-1 4.4-2.2 8-2 5.6-2.1 6.6-.8 7.4.8.5 1.2 1 .8 1s-.3 1.1.2 2.5c.6 1.6.6 2.5 0 2.5s-1 .5-1 1.1c0 .5.4.8.9.5 1.2-.8 1.9 7 .8 8.9-.5 1-.3 1.7.8 2.1.9.4 1.8.4 2.1.1 1-1 .5-13.6-.6-15.6-1.3-2.4-1.3-7.2-.1-10.4 1-2.5 2.4-10.8 1.9-10.6-.2 0-.9.3-1.5.6"/><path d="M73 235.7c0 .5 1 2.1 2.3 3.5 1.2 1.3 3.2 3.6 4.3 5 1.7 2.2 8.4 6.5 8.4 5.4 0-.4-8.1-8.7-12.3-12.5-1.5-1.4-2.7-2-2.7-1.4M209.8 236.2c.7.9 2.8 5.3 4.7 9.9 1.8 4.5 4.3 9.4 5.5 10.8 2.5 3.1 2.3 2.5-2.8-9.8-2.5-6.1-4.7-10-6.3-11-2.2-1.5-2.3-1.4-1.1.1M67.9 241.2c2.8 5.7 6.3 9.8 8.2 9.8.7 0 .2-.8-.9-1.9-1.2-1-2.2-2.1-2.2-2.5 0-1.2-6.2-10.6-7-10.6-.4 0 .4 2.4 1.9 5.2M46.6 237.7c-.4.5-1.1.8-1.4.8-2.2 0-7.2 3-7.7 4.6-.7 2.2-10.1 11.9-11.5 11.9-.5 0-1 .5-1 1 0 .6-2 2.5-4.5 4.2s-4.3 3.3-4.1 3.6c.3.2 2.9-1.4 5.8-3.7 2.9-2.2 7.1-4.8 9.3-5.8 2.7-1.2 4-2.4 4-3.8 0-1.1 1.1-2.5 2.5-3.2s1.9-1.3 1.2-1.3c-1 0-1-.4 0-2 .8-1.2 2.9-2.2 5.5-2.6 4.4-.6 7.6.8 14.9 6.5 1.1.9 0-.3-2.5-2.6-2.6-2.4-5.8-4.8-7.3-5.5s-2.4-1.6-2.2-2c.6-1 0-1-1-.1M261 238.5c2.2 1.3 2.3 1.4.5 1.5-1.7 0-1.7.2-.5 1 2 1.3 3.3 1.3 2.5 0-.3-.6-.1-1 .6-1s.4-.7-.7-1.5c-1-.8-2.6-1.4-3.4-1.4-.9 0-.4.6 1 1.4M125.8 242.3c-9 3.8-10.2 4.7-6 4.7 1.6 0 3.2-.4 3.4-1 .2-.5 2-1.6 4.1-2.5 3.4-1.4 3.7-1.4 3.7.1 0 1.3.5 1.1 2.1-.7l2-2.4-.5 4c-.3 2.2-.6 7.7-.6 12.2 0 4.9-.4 8.3-1 8.3-.5 0-1.1-1.2-1.1-2.8-.1-1.8-.4-1.3-.9 1.7-.8 4.9-.3 8.8 1.3 9.8.6.4.8-.7.5-2.8-.3-2.2 0-3.7.8-4.4.7-.5 1.6-3.7 1.9-7s.9-8 1.4-10.5c.8-4.9-.4-10-2.2-9.9-.7 0-4.7 1.5-8.9 3.2M191.8 243.6c-1.6 2.5-2.3 4.2-1.7 3.8.6-.3 1.5 0 2 .7.6 1 .9.6.9-1.3 0-1.4.5-2.8 1-3 1.2-.4 2.3-4.8 1.2-4.8-.4 0-1.9 2.1-3.4 4.6M168.9 244.1c-.6 1.2-.9 2.9-.6 3.9.7 2.6-.9 4.8-2.4 3.3-.9-.9-.9-1.6-.1-2.6.9-1.1.6-1.4-1.6-1.4h-2.8l1.9 3.9c1.1 2.1 2.5 3.8 3.3 3.8s1.4.5 1.4 1.2c0 .6.9.3 2-.7 2.2-2 2.6-5.1.8-5.8-1-.3-1-.8.1-2.1 1.2-1.4 1.2-1.9.2-2.6-.8-.4-1-1.3-.7-1.9.4-.6.5-1.1.2-1.1s-1 .9-1.7 2.1M175.2 245c-.8 1.6-1.2 3.8-1 4.7.2 1.4.9.9 2.6-1.8 2.5-4.1 2.8-5.9.9-5.9-.6 0-1.8 1.3-2.5 3M226.6 246.8c-.4 1.1-.4 3.2-.2 4.8.5 2.8 1.9 16.3 2 20.1.1 1.1.4 1.9.9 1.6.4-.2.8.4.9 1.4 0 1 .2 2.3.2 3 .1.6.5 1.5.9 1.9s.7 1.7.7 2.9c0 2.2 2.6 5.3 3.5 4.3.3-.2 0-2-.6-3.9-4-13.4-5.3-20.2-6.3-34.1-.3-3.5-1.2-4.5-2-2"/><path d="M54.7 247.6c-.3.3 1.8 2.5 4.6 4.8 2.9 2.3 6.6 6 8.2 8.2 1.7 2.2 4 4.8 5.3 5.8l2.4 1.8-1.7-3.1c-1.6-3.3-15.9-18.1-17.3-18.1-.5 0-1.1.3-1.5.6M65.2 251.6c4.9 7 12.8 15.1 12.8 13.3 0-.9-2.2-3.6-4.8-6-2.7-2.5-5.7-5.9-6.7-7.7-1-1.7-2.5-3.4-3.3-3.7-.7-.2.2 1.6 2 4.1M124.8 254.6c-.2 4.1 0 8.3.4 9.2s.7-2.5.7-7.6c.1-5-.1-9.2-.3-9.2-.3 0-.6 3.4-.8 7.6M130.8 252c-.6 5.9.4 8.7 1.3 3.5.4-2.2.3-4.9-.1-6-.6-1.5-.8-.9-1.2 2.5M139.1 254.3c-.1 2.7.3 4.6.8 4.3 1-.7 1.8 8 1.7 18.4-.1 6.9.8 10 3 10 .4 0 .4-2.8 0-6.3-.4-3.4-.9-8.9-1.2-12.2-.2-3.3-1.3-8.9-2.3-12.5l-2-6.5zM190.6 251.9c-1 1.1-3.1 2.5-4.7 3.2-2 .8-2.6 1.5-1.8 1.9 1.6 1.1 7.6-2.6 8.2-5 .6-2.5.4-2.5-1.7-.1M45 252.1c0 .6.6.9 1.4.6s3.2.3 5.3 1.3l3.8 1.9-3-2.4c-3.1-2.6-7.5-3.4-7.5-1.4M157.1 254.7c-.6 2.1-1.1 5.3-1.1 7.1 0 4.8 2.9 14.2 4.6 14.9.8.3 1.4 1.1 1.4 1.8s.7 1.5 1.5 1.9c1.9.7 1.9.8-1-5.6-1.9-4.1-2.5-7.5-2.8-14.1-.2-4.8-.6-8.9-.9-9.3-.4-.3-1.1 1.1-1.7 3.3M115.5 255.2c-.6 2.2 1 10.8 1.9 10.8.2 0 .4-2.4.4-5.3 0-6.3-1.3-9.5-2.3-5.5"/><path d="M160.8 255.7c-.7 2.7.1 3.6 1.9 2.1 2-1.7 2.2-.8 1.1 5.2-1.1 6.3-.3 13.3 1.8 15.5 1.8 1.7 3.4 2 3.4.5 0-.6 1.5-2.7 3.3-4.6 4.6-5.1 5-6.1 3.4-8.4-1.4-2-1.4-2-3.4.3-2.9 3.1-4.6 6.7-3.3 6.7.8 0 .8.6 0 2-.6 1-1.7 1.7-2.4 1.4-1.6-.6-2.5-6.4-1.5-9.1.6-1.5.8-1.4.8.6.1 3.3 1.7 1.6 2.4-2.7.4-1.9.2-3.2-.4-3.2s-.7-.4-.4-1c.8-1.3-3.1-5.4-4.3-4.6-.6.3-1.2-.2-1.4-1.1-.3-1.5-.5-1.4-1 .4M82 256c-3 .7-3.3 3.4-.4 3.8 1.5.2 2.3-.4 2.7-2 .7-2.7.8-2.6-2.3-1.8M245.3 257.6c.3 1 1.7 5 3.1 8.9 1.4 3.8 2.8 10 3.2 13.7.5 4.9 1.1 6.8 2.1 6.8s1.2-.6.8-2c-.3-1.1-.8-3.2-1.1-4.7-1.1-6.7-1.7-9.2-4.1-16.1-1.4-4-3-7.5-3.6-7.9s-.8.1-.4 1.3M250.5 257.6c1 .8 3.1 1.4 4.6 1.4 1.4 0 4.2.2 6 .5 3 .5 3.1.4 1.1-.5-1.3-.5-4.9-1.4-8-1.9-4.9-.7-5.3-.7-3.7.5M189.3 260c-.5 1.7-.7 1.8-2 .4-1.1-1-1.9-1.2-2.7-.4-.7.5-1.6.7-1.9.3-.4-.3-.7-.2-.7.4 0 1.4 6.8 2.2 9.5 1.3 1.8-.7 1.8-.9.3-1.5-1-.4-1.5-1.1-1.2-1.6s.2-.9-.1-.9c-.4 0-.9.9-1.2 2M27.8 261.4c-8.2 4.1-11.5 6.5-14.2 10.4-1.4 2.1-2.6 4.7-2.6 5.8 0 2.3 3.9 6.4 5.9 6.4.8 0 .2-.9-1.3-2.1-1.4-1.1-2.6-2.7-2.6-3.5 0-2 .7-1.8 4 1.6 1.6 1.7 4 3.5 5.2 4 1.3.6 3.1 1.5 4 2.2 2.6 1.8 3 .5 1.2-3.7-1.2-3-1.3-4.3-.4-6.6 1.6-3.8 11.4-12.9 13.9-12.9 3.2 0 7 1.8 9.6 4.6 3.5 3.7 4.9 2.5 1.8-1.5-5.5-7-15.8-9-24.5-4.7m1.2 5.5c0 .5-.7 1.5-1.7 2.2-.9.8-2.5 3.4-3.6 5.8-1.6 3.6-1.7 4.5-.6 5.2.8.5.9.9.3.9-1.2 0-3.5-1.8-5.3-4.2-1-1.4-.9-2.2 1.1-5.1 1.3-1.9 2.9-3.2 3.6-3 .6.3 1.2 0 1.2-.5 0-.9 1.6-1.7 4.3-2.1.4 0 .7.3.7.8M50 259.3c0 .4 1.4 2.6 3 4.9 1.7 2.2 3 4.7 3 5.5 0 .7.5 1.3 1.1 1.3s4.2 1.9 8 4.2c5.8 3.6 7.1 4.9 8 8 .5 2.1 1.6 3.8 2.4 3.8 2.2 0 0-6.3-3.5-10-1.7-1.8-3-3.6-3-4.2 0-.5-.8-.7-1.8-.4-1.2.4-2.6-.1-3.7-1.4-1-1.1-2.4-2-3.2-2-.7 0-1.3-.5-1.3-1.1s-.9-2.2-2-3.6-2-2.2-2-1.8c0 .5-1.1-.2-2.5-1.5s-2.5-2-2.5-1.7M257.7 264.2c.3 1.8 1 4.1 1.4 5 1.3 2.4 1.1 5.6-.3 6.1q-1.5.6 0 .6c.8.1 1.2 1.8 1.2 5 0 2.8.4 5.2.9 5.5 1.1.7.4-14.2-1.1-20.7-1.1-5.2-3.1-6.6-2.1-1.5M270.7 262.7c-.4.3-.7 4.2-.7 8.6 0 8.8 1.1 9.8 1.6 1.5.2-2.9.6-6.5.9-8.1.4-2.6-.4-3.5-1.8-2M275 264.5c0 .8.9 2 2.1 2.8 1.1.8 1.5 1.7.9 1.9-.7.2-.6 1 .4 2.3 1.4 1.9 1.5 1.9.9-.5-.5-2.5-.5-2.5 1.2-.5 1.6 1.9 1.6 1.9.1-.5-.9-1.4-1.9-3.3-2.2-4.2-.8-2.1-3.4-3.2-3.4-1.3M281.9 268.4c.9 1.9 2 3.1 2.4 2.7 1.1-1-1.3-6.1-2.8-6.1-.9 0-.8 1 .4 3.4M184 268.4c-1.4 1.4 2.1 3.7 3.8 2.4.9-.8 1.1-.7.6.7-.5 1.2-.3 1.6.6 1.3.7-.2 1.4-1.6 1.4-3.1.2-2.4-.2-2.7-2.6-2.5-1.6.1-3.3.7-3.8 1.2M297 273c0 2.9.4 4 1.5 4s1.5-1.1 1.5-4-.4-4-1.5-4-1.5 1.1-1.5 4M215.6 276.2c4.2 7.5 5 8.4 5 5.8 0-1.1-.4-2-.8-2s-.8-1.4-.8-3c0-2.4-.4-3-2.2-3.1-1.3 0-1.7-.3-1.1-.6 1-.3 1-.8-.1-1.9-3.3-3.2-3.3-1 0 4.8M176.2 274.3c-1.8 1.8-3.2 3.8-3.2 4.4 0 1.1 14.7 2.9 15.8 1.9.3-.4-.2-1.4-1.3-2.4-1-1-1.4-1.1-1-.3.7 1.2 0 1.3-4 .8-2.7-.4-5.1-.9-5.3-1.2-.3-.3.7-1.4 2.2-2.6 1.4-1.1 2.4-2.5 2.1-3-1-1.5-2-1.1-5.3 2.4M1.3 272.7C.6 272.9 0 274 0 275c0 1.4 1 2.1 3.5 2.6 3.7.7 4.6 2.9 2.3 5.2-.7.7-.8 1.2-.2 1.2 1.4 0 3.1-3.7 3.9-8.3l.6-3.7-3.8.1c-2.1 0-4.4.3-5 .6M126.1 275.2c0 .7.4 2.2.9 3.3.7 1.8.8 1.9 1.5.3.4-1 1.1-1.5 1.6-1.2s.9-.3.9-1.2c0-1-.3-1.4-.6-1.1-.4.3-1.5.2-2.5-.4-1.4-.7-1.9-.6-1.8.3M207.7 274.7c-1.3 1.2-.7 6.1.8 6.7.8.3 1.5 1.8 1.5 3.3s.4 2.3.8 1.7 1.3-1.3 2.1-1.6c1.2-.3 1.1-.8-.5-2.4-2.1-2.1-3.4-8.1-1.5-7 .6.4 1.1.2 1.1-.3 0-1.2-3.3-1.5-4.3-.4M58 278.1c.8 1.5.7 1.7-.5 1.3-.8-.4-1.5-.2-1.5.4 0 1.6 5.9 7.2 7.6 7.2 1.8 0 1.8-.8-.1-2.7-.9-.8-1.8-2.8-2.2-4.3-.3-1.6-1.3-3-2.4-3.3-1.6-.4-1.7-.2-.9 1.4M196.2 276.9c-1 .6-.9 1.1.3 2.1 1.1.9 1.9 1 2.6.3 1.3-1.3-1.2-3.5-2.9-2.4M244.8 277.4c-2 2-1.7 9 .4 9.4 1.2.2 1.5-.2 1.1-1.7-.3-1.1 0-3.4.5-5 1.2-3.4.1-4.9-2-2.7M265 276.2c-.7 1.8-.4 8.6.3 7.9.5-.5.7-2.6.4-4.7-.2-2.2-.5-3.6-.7-3.2M200.6 280.5c-.7 1.8.7 2.7 3.1 1.9 1.3-.4 1.4-.3.5.3-1 .8-1 1.2.2 2.2.8.7 1.9 1 2.5.7.5-.3 1.2 0 1.4.6.4 1 .6 1 .6.1.1-1.3-3.3-4.9-6.1-6.4-1.1-.6-1.8-.4-2.2.6M273.8 280.2c-1.6.5-2.8 1.4-2.8 1.9 0 .6.5.7 1.1.4.6-.4 4.3-1.3 8.2-2l7.2-1.3H282c-3 0-6.7.4-8.2 1M192.8 282.3c1.2 1.3 2.2 2.9 2.2 3.5 0 .7.8 1.2 1.7 1.2 1.4 0 1.2-.4-.7-2.5-1.7-1.8-1.9-2.5-.9-2.6.8 0 .6-.4-.6-.9-3.4-1.5-3.9-1.1-1.7 1.3M282 281.7c-2.5.2-5.2.6-6 .9-2.3.8.4 2 6.3 2.9 4.6.7 4.7.7 4.7-1.9 0-1.4-.1-2.5-.2-2.4-.2.1-2.3.3-4.8.5M8.3 283.7c-.4 1-1.1 2.1-1.7 2.5-.7.5-.4.8.7.8.9 0 1.7-.7 1.7-1.5s.5-1.5 1-1.5c.6 0 1 .7 1 1.5s.9 1.5 2 1.5c2.6 0 2.6-1.7 0-2.5-1.1-.3-2-1.1-2-1.6 0-1.6-2-1-2.7.8M294.8 284.5c-.5 2.3-.2 2.5 2.6 2.4q3.45-.15.9-.6c-2.8-.5-3-2.3-.3-2.3 1.1 0 2-.5 2-1 0-.6-1.1-1-2.4-1-1.7 0-2.5.7-2.8 2.5M96.1 283.3c.3.4 2.3 1.4 4.5 2.3 3.3 1.3 3.7 1.4 2.4.1-1.4-1.5-8.2-3.7-6.9-2.4M268 285.4c0 1.3 1 1.6 4.8 1.5 4.2-.1 4.4-.2 1.7-.9-1.6-.4-3.8-1.1-4.7-1.5-1.3-.5-1.8-.2-1.8.9"/></g><script/></svg>